<svg width="234" height="157" viewBox="0 0 234 157" fill="none" xmlns="http://www.w3.org/2000/svg">
<g filter="url(#filter0_d_1092_618)">
<g clip-path="url(#clip0_1092_618)">
<rect x="5" y="1" width="224" height="148.235" rx="6.58824" fill="#171717"/>
<rect x="11.5879" y="12.5293" width="16.4706" height="16.4706" rx="8.23529" fill="#2F2F2F"/>
<g clip-path="url(#clip1_1092_618)">
<path d="M20.6469 16.758V18.4588C20.6469 18.6894 20.6469 18.8047 20.6918 18.8928C20.7313 18.9702 20.7943 19.0332 20.8718 19.0727C20.9599 19.1176 21.0752 19.1176 21.3058 19.1176H23.0066M20.6469 23.0293L21.6764 21.9999L20.6469 20.9705M18.9999 20.9705L17.9705 21.9999L18.9999 23.0293M23.1175 19.9362V22.9058C23.1175 23.5976 23.1175 23.9435 22.9829 24.2078C22.8645 24.4402 22.6755 24.6292 22.4431 24.7476C22.1788 24.8823 21.8329 24.8823 21.1411 24.8823H18.5058C17.8139 24.8823 17.468 24.8823 17.2038 24.7476C16.9713 24.6292 16.7824 24.4402 16.6639 24.2078C16.5293 23.9435 16.5293 23.5976 16.5293 22.9058V18.6234C16.5293 17.9316 16.5293 17.5857 16.6639 17.3215C16.7824 17.089 16.9713 16.9 17.2038 16.7816C17.468 16.647 17.8139 16.647 18.5058 16.647H19.8283C20.1304 16.647 20.2815 16.647 20.4236 16.6811C20.5497 16.7114 20.6702 16.7613 20.7807 16.829C20.9054 16.9054 21.0122 17.0122 21.2258 17.2259L22.5386 18.5387C22.7523 18.7523 22.8591 18.8591 22.9355 18.9838C23.0032 19.0943 23.0531 19.2148 23.0834 19.3409C23.1175 19.483 23.1175 19.6341 23.1175 19.9362Z" stroke="white" stroke-width="0.823529" stroke-linecap="round" stroke-linejoin="round"/>
</g>
<path d="M34.8771 25.2646L37.8286 17.0788H39.166L42.1175 25.2646H41.0338L40.2152 22.9357H36.7794L35.9608 25.2646H34.8771ZM37.1138 21.9672H39.8808L38.4973 17.9435L37.1138 21.9672ZM44.244 25.2646C43.8904 25.2646 43.6022 25.1724 43.3793 24.9879C43.1564 24.8035 43.0449 24.5114 43.0449 24.1117V17.0788H44.0134V24.031C44.0134 24.154 44.0442 24.2501 44.1056 24.3192C44.1748 24.3807 44.2709 24.4115 44.3939 24.4115H44.9242V25.2646H44.244ZM47.2052 25.2646C46.8516 25.2646 46.5634 25.1724 46.3405 24.9879C46.1176 24.8035 46.0061 24.5114 46.0061 24.1117V17.0788H46.9746V24.031C46.9746 24.154 47.0053 24.2501 47.0668 24.3192C47.136 24.3807 47.2321 24.4115 47.355 24.4115H47.8854V25.2646H47.2052ZM52.1006 25.2646V17.0788H55.0406C55.9552 17.0788 56.6662 17.2978 57.1735 17.7359C57.6808 18.1741 57.9345 18.7813 57.9345 19.5576C57.9345 20.0803 57.8192 20.5337 57.5886 20.9181C57.358 21.2947 57.0275 21.5829 56.597 21.7828C56.1666 21.9826 55.6478 22.0825 55.0406 22.0825H53.0921V25.2646H52.1006ZM53.0921 21.1141H55.0406C55.6555 21.1141 56.1167 20.9834 56.4241 20.7221C56.7392 20.4607 56.8968 20.0726 56.8968 19.5576C56.8968 19.058 56.7392 18.6814 56.4241 18.4277C56.1167 18.1741 55.6555 18.0472 55.0406 18.0472H53.0921V21.1141ZM59.3483 25.2646V19.1541H60.2014L60.2475 20.699L60.1553 20.6644C60.2322 20.1417 60.3974 19.7613 60.6511 19.523C60.9124 19.277 61.2583 19.1541 61.6887 19.1541H62.2883V20.0764H61.7003C61.3928 20.0764 61.1353 20.1341 60.9278 20.2494C60.7279 20.357 60.5742 20.5222 60.4666 20.7451C60.3667 20.9603 60.3167 21.237 60.3167 21.5752V25.2646H59.3483ZM65.6418 25.403C65.0807 25.403 64.5888 25.2723 64.166 25.011C63.7433 24.7497 63.4166 24.3807 63.186 23.9042C62.9554 23.4199 62.8401 22.855 62.8401 22.2094C62.8401 21.556 62.9554 20.9911 63.186 20.5145C63.4166 20.038 63.7433 19.669 64.166 19.4077C64.5888 19.1464 65.0807 19.0157 65.6418 19.0157C66.2029 19.0157 66.691 19.1464 67.106 19.4077C67.5288 19.669 67.8554 20.038 68.086 20.5145C68.3166 20.9911 68.4319 21.556 68.4319 22.2094C68.4319 22.855 68.3166 23.4199 68.086 23.9042C67.8554 24.3807 67.5288 24.7497 67.106 25.011C66.691 25.2723 66.2029 25.403 65.6418 25.403ZM65.6418 24.4806C66.2029 24.4806 66.6372 24.2808 66.9446 23.8811C67.2597 23.4737 67.4173 22.9165 67.4173 22.2094C67.4173 21.5022 67.2597 20.9488 66.9446 20.5491C66.6372 20.1417 66.2029 19.9381 65.6418 19.9381C65.0807 19.9381 64.6426 20.1417 64.3274 20.5491C64.0123 20.9488 63.8547 21.5022 63.8547 22.2094C63.8547 22.9165 64.0123 23.4737 64.3274 23.8811C64.6426 24.2808 65.0807 24.4806 65.6418 24.4806ZM68.7717 26.9941V26.1409H69.2675C69.4674 26.1409 69.6288 26.0909 69.7517 25.991C69.8747 25.8988 69.9362 25.7258 69.9362 25.4722V19.1541H70.9047V25.5183C70.9047 26.0563 70.7855 26.4368 70.5473 26.6597C70.309 26.8826 69.9132 26.9941 69.3597 26.9941H68.7717ZM69.9132 18.1971V17.0672H70.9277V18.1971H69.9132ZM75.0207 25.403C74.4442 25.403 73.9446 25.2723 73.5219 25.011C73.1068 24.7497 72.784 24.3807 72.5534 23.9042C72.3305 23.4199 72.219 22.855 72.219 22.2094C72.219 21.5637 72.3305 21.0026 72.5534 20.5261C72.784 20.0495 73.103 19.6806 73.5103 19.4192C73.9254 19.1502 74.4135 19.0157 74.9746 19.0157C75.5049 19.0157 75.9738 19.1425 76.3812 19.3962C76.7885 19.6421 77.1037 20.0034 77.3266 20.4799C77.5572 20.9565 77.6724 21.5368 77.6724 22.2209V22.5091H73.2336C73.2721 23.1625 73.445 23.6544 73.7524 23.9849C74.0676 24.3154 74.4903 24.4806 75.0207 24.4806C75.4204 24.4806 75.747 24.3884 76.0007 24.2039C76.262 24.0118 76.4426 23.762 76.5426 23.4545L77.5802 23.5352C77.4188 24.081 77.1114 24.5306 76.6579 24.8842C76.2121 25.2301 75.6663 25.403 75.0207 25.403ZM73.2336 21.6559H76.6117C76.5656 21.0641 76.3927 20.6298 76.0929 20.3531C75.8008 20.0764 75.4281 19.9381 74.9746 19.9381C74.5057 19.9381 74.1175 20.0841 73.8101 20.3762C73.5103 20.6606 73.3182 21.0872 73.2336 21.6559ZM81.3709 25.403C80.8021 25.403 80.3063 25.2723 79.8836 25.011C79.4685 24.7497 79.1457 24.3807 78.9151 23.9042C78.6845 23.4199 78.5692 22.855 78.5692 22.2094C78.5692 21.5637 78.6845 21.0026 78.9151 20.5261C79.1457 20.0495 79.4685 19.6806 79.8836 19.4192C80.3063 19.1502 80.8021 19.0157 81.3709 19.0157C81.8397 19.0157 82.2548 19.1003 82.616 19.2694C82.985 19.4308 83.2848 19.669 83.5153 19.9842C83.7459 20.2993 83.8958 20.6836 83.965 21.1371L82.9504 21.2063C82.8812 20.7989 82.7044 20.4876 82.42 20.2724C82.1357 20.0495 81.7859 19.9381 81.3709 19.9381C80.8098 19.9381 80.3717 20.1417 80.0565 20.5491C79.7414 20.9488 79.5838 21.5022 79.5838 22.2094C79.5838 22.9165 79.7414 23.4737 80.0565 23.8811C80.3717 24.2808 80.8098 24.4806 81.3709 24.4806C81.7859 24.4806 82.1357 24.3654 82.42 24.1348C82.7044 23.9042 82.8812 23.5583 82.9504 23.0971L83.965 23.1663C83.8958 23.6198 83.7459 24.0156 83.5153 24.3538C83.2848 24.6843 82.985 24.9418 82.616 25.1263C82.2548 25.3108 81.8397 25.403 81.3709 25.403ZM87.1658 25.2646C86.6124 25.2646 86.2012 25.1378 85.9322 24.8842C85.6709 24.6305 85.5402 24.2347 85.5402 23.6966V17.7244H86.5087V23.6736C86.5087 23.9503 86.5702 24.1425 86.6931 24.2501C86.8161 24.3577 87.0044 24.4115 87.2581 24.4115H88.1343V25.2646H87.1658ZM84.6409 20.0072V19.1541H88.1343V20.0072H84.6409ZM91.4891 25.403C90.9434 25.403 90.4784 25.3146 90.094 25.1378C89.7174 24.961 89.4215 24.7189 89.2063 24.4115C88.9987 24.0963 88.8796 23.7389 88.8489 23.3392L89.8635 23.2701C89.9249 23.639 90.0825 23.9349 90.3362 24.1578C90.5898 24.373 90.9741 24.4806 91.4891 24.4806C91.9042 24.4806 92.2347 24.4153 92.4806 24.2846C92.7343 24.1463 92.8611 23.9272 92.8611 23.6275C92.8611 23.4661 92.8227 23.3316 92.7458 23.2239C92.6689 23.1163 92.5191 23.0241 92.2962 22.9472C92.0733 22.8627 91.7427 22.782 91.3046 22.7051C90.7205 22.5975 90.2593 22.4668 89.9211 22.3131C89.5906 22.1517 89.3523 21.9557 89.2063 21.7251C89.0679 21.4868 88.9987 21.2063 88.9987 20.8835C88.9987 20.3377 89.1986 19.8919 89.5983 19.5461C89.998 19.1925 90.5667 19.0157 91.3046 19.0157C91.8042 19.0157 92.2231 19.1079 92.5613 19.2924C92.9072 19.4692 93.1762 19.7075 93.3684 20.0072C93.5682 20.2993 93.6989 20.6221 93.7604 20.9757L92.7458 21.0449C92.6997 20.8297 92.6151 20.6414 92.4922 20.4799C92.3692 20.3108 92.2078 20.1802 92.0079 20.0879C91.8081 19.988 91.5698 19.9381 91.2931 19.9381C90.855 19.9381 90.5322 20.0226 90.3246 20.1917C90.1171 20.3608 90.0133 20.576 90.0133 20.8374C90.0133 21.0372 90.0595 21.2025 90.1517 21.3331C90.2516 21.4561 90.4092 21.5599 90.6244 21.6444C90.8396 21.7213 91.1278 21.7905 91.4891 21.8519C92.1117 21.9596 92.5959 22.0902 92.9418 22.2439C93.2877 22.3977 93.5298 22.586 93.6682 22.8089C93.8065 23.0318 93.8757 23.3046 93.8757 23.6275C93.8757 24.0041 93.7681 24.3269 93.5529 24.5959C93.3453 24.8573 93.0609 25.0571 92.6997 25.1955C92.3461 25.3338 91.9426 25.403 91.4891 25.403Z" fill="white"/>
<mask id="path-6-inside-1_1092_618" fill="white">
<path d="M5 40.5293H229V80.0587H5V40.5293Z"/>
</mask>
<path d="M5 40.5293V41.3528H229V40.5293V39.7058H5V40.5293Z" fill="#2F2F2F" mask="url(#path-6-inside-1_1092_618)"/>
<rect x="11.5879" y="52.0588" width="16.4706" height="16.4706" rx="8.23529" fill="#2F2F2F"/>
<g clip-path="url(#clip2_1092_618)">
<path d="M20.6469 56.2875V57.9883C20.6469 58.2189 20.6469 58.3342 20.6918 58.4223C20.7313 58.4998 20.7943 58.5628 20.8718 58.6023C20.9599 58.6471 21.0752 58.6471 21.3058 58.6471H23.0066M20.6469 62.5589L21.6764 61.5295L20.6469 60.5M18.9999 60.5L17.9705 61.5295L18.9999 62.5589M23.1175 59.4658V62.4353C23.1175 63.1272 23.1175 63.4731 22.9829 63.7373C22.8645 63.9698 22.6755 64.1587 22.4431 64.2772C22.1788 64.4118 21.8329 64.4118 21.1411 64.4118H18.5058C17.8139 64.4118 17.468 64.4118 17.2038 64.2772C16.9713 64.1587 16.7824 63.9698 16.6639 63.7373C16.5293 63.4731 16.5293 63.1272 16.5293 62.4353V58.153C16.5293 57.4612 16.5293 57.1152 16.6639 56.851C16.7824 56.6186 16.9713 56.4296 17.2038 56.3112C17.468 56.1765 17.8139 56.1765 18.5058 56.1765H19.8283C20.1304 56.1765 20.2815 56.1765 20.4236 56.2106C20.5497 56.2409 20.6702 56.2908 20.7807 56.3585C20.9054 56.4349 21.0122 56.5418 21.2258 56.7554L22.5386 58.0682C22.7523 58.2819 22.8591 58.3887 22.9355 58.5133C23.0032 58.6239 23.0531 58.7444 23.0834 58.8704C23.1175 59.0126 23.1175 59.1636 23.1175 59.4658Z" stroke="white" stroke-width="0.823529" stroke-linecap="round" stroke-linejoin="round"/>
</g>
<path d="M37.2406 64.7942L35.0846 56.6083H36.1684L37.8517 63.4337L39.5234 56.6083H40.6533L42.3366 63.4337L44.0084 56.6083H45.1037L42.9477 64.7942H41.7025L40.0884 58.453L38.4742 64.7942H37.2406ZM48.3927 64.9325C47.8162 64.9325 47.3166 64.8019 46.8939 64.5405C46.4788 64.2792 46.156 63.9103 45.9254 63.4337C45.7025 62.9495 45.591 62.3845 45.591 61.7389C45.591 61.0932 45.7025 60.5321 45.9254 60.0556C46.156 59.5791 46.475 59.2101 46.8823 58.9488C47.2974 58.6798 47.7855 58.5452 48.3466 58.5452C48.8769 58.5452 49.3458 58.6721 49.7532 58.9257C50.1605 59.1717 50.4757 59.5329 50.6986 60.0095C50.9292 60.486 51.0445 61.0663 51.0445 61.7504V62.0387H46.6056C46.6441 62.692 46.817 63.1839 47.1245 63.5144C47.4396 63.8449 47.8623 64.0102 48.3927 64.0102C48.7924 64.0102 49.119 63.918 49.3727 63.7335C49.634 63.5413 49.8147 63.2915 49.9146 62.9841L50.9522 63.0648C50.7908 63.6105 50.4834 64.0602 50.0299 64.4137C49.5841 64.7596 49.0383 64.9325 48.3927 64.9325ZM46.6056 61.1855H49.9838C49.9376 60.5936 49.7647 60.1594 49.4649 59.8827C49.1729 59.606 48.8001 59.4676 48.3466 59.4676C47.8777 59.4676 47.4896 59.6136 47.1821 59.9057C46.8823 60.1901 46.6902 60.6167 46.6056 61.1855ZM55.1579 64.9325C54.7352 64.9325 54.3586 64.8403 54.0281 64.6558C53.6975 64.4637 53.4439 64.2023 53.2671 63.8718L53.2325 64.7942H52.3563V56.6083H53.3248V59.5368C53.4785 59.2831 53.7168 59.0564 54.0396 58.8565C54.3624 58.649 54.7352 58.5452 55.1579 58.5452C55.696 58.5452 56.161 58.6759 56.553 58.9372C56.945 59.1986 57.2486 59.5675 57.4638 60.0441C57.679 60.5206 57.7866 61.0856 57.7866 61.7389C57.7866 62.3922 57.679 62.9572 57.4638 63.4337C57.2486 63.9103 56.945 64.2792 56.553 64.5405C56.161 64.8019 55.696 64.9325 55.1579 64.9325ZM55.1003 64.0102C55.6153 64.0102 56.0226 63.8065 56.3224 63.3991C56.6222 62.9918 56.7721 62.4383 56.7721 61.7389C56.7721 61.0318 56.6222 60.4783 56.3224 60.0787C56.0226 59.6713 55.623 59.4676 55.1234 59.4676C54.7467 59.4676 54.4239 59.5598 54.1549 59.7443C53.8859 59.9211 53.6783 60.1786 53.5323 60.5168C53.3939 60.855 53.3248 61.2623 53.3248 61.7389C53.3248 62.2001 53.3939 62.6036 53.5323 62.9495C53.6783 63.2877 53.882 63.549 54.1434 63.7335C54.4124 63.918 54.7314 64.0102 55.1003 64.0102ZM61.4037 64.7942L64.3553 56.6083H65.6927L68.6442 64.7942H67.5604L66.7418 62.4652H63.3061L62.4875 64.7942H61.4037ZM63.6404 61.4968H66.4075L65.024 57.473L63.6404 61.4968ZM69.5716 66.5236V58.6836H70.4709L70.4939 59.998L70.3556 59.9288C70.5093 59.4753 70.763 59.1332 71.1165 58.9027C71.4778 58.6644 71.8929 58.5452 72.3617 58.5452C72.9689 58.5452 73.4647 58.6951 73.849 58.9949C74.241 59.2947 74.5292 59.6867 74.7137 60.1709C74.9059 60.6551 75.0019 61.1778 75.0019 61.7389C75.0019 62.3 74.9059 62.8227 74.7137 63.3069C74.5292 63.7911 74.241 64.1831 73.849 64.4829C73.4647 64.7827 72.9689 64.9325 72.3617 64.9325C72.0466 64.9325 71.7507 64.8787 71.4739 64.7711C71.2049 64.6635 70.9743 64.5136 70.7822 64.3215C70.5977 64.1293 70.4709 63.9026 70.4017 63.6412L70.5401 63.4798V66.5236H69.5716ZM72.2695 64.0102C72.7998 64.0102 73.2187 63.8103 73.5262 63.4107C73.8336 63.011 73.9874 62.4537 73.9874 61.7389C73.9874 61.0241 73.8336 60.4668 73.5262 60.0671C73.2187 59.6674 72.7998 59.4676 72.2695 59.4676C71.9159 59.4676 71.6085 59.5521 71.3471 59.7212C71.0935 59.8903 70.8936 60.144 70.7476 60.4822C70.6092 60.8204 70.5401 61.2393 70.5401 61.7389C70.5401 62.2385 70.6092 62.6574 70.7476 62.9956C70.8859 63.3338 71.0858 63.5874 71.3471 63.7565C71.6085 63.9256 71.9159 64.0102 72.2695 64.0102ZM76.3159 66.5236V58.6836H77.2151L77.2382 59.998L77.0999 59.9288C77.2536 59.4753 77.5072 59.1332 77.8608 58.9027C78.2221 58.6644 78.6371 58.5452 79.106 58.5452C79.7132 58.5452 80.209 58.6951 80.5933 58.9949C80.9853 59.2947 81.2735 59.6867 81.458 60.1709C81.6501 60.6551 81.7462 61.1778 81.7462 61.7389C81.7462 62.3 81.6501 62.8227 81.458 63.3069C81.2735 63.7911 80.9853 64.1831 80.5933 64.4829C80.209 64.7827 79.7132 64.9325 79.106 64.9325C78.7908 64.9325 78.4949 64.8787 78.2182 64.7711C77.9492 64.6635 77.7186 64.5136 77.5264 64.3215C77.342 64.1293 77.2151 63.9026 77.146 63.6412L77.2843 63.4798V66.5236H76.3159ZM79.0137 64.0102C79.5441 64.0102 79.963 63.8103 80.2704 63.4107C80.5779 63.011 80.7316 62.4537 80.7316 61.7389C80.7316 61.0241 80.5779 60.4668 80.2704 60.0671C79.963 59.6674 79.5441 59.4676 79.0137 59.4676C78.6602 59.4676 78.3527 59.5521 78.0914 59.7212C77.8377 59.8903 77.6379 60.144 77.4919 60.4822C77.3535 60.8204 77.2843 61.2393 77.2843 61.7389C77.2843 62.2385 77.3535 62.6574 77.4919 62.9956C77.6302 63.3338 77.8301 63.5874 78.0914 63.7565C78.3527 63.9256 78.6602 64.0102 79.0137 64.0102ZM86.1934 64.7942V56.6083H89.1334C90.0481 56.6083 90.7591 56.8274 91.2663 57.2655C91.7736 57.7036 92.0273 58.3108 92.0273 59.0871C92.0273 59.6098 91.912 60.0633 91.6814 60.4476C91.4508 60.8242 91.1203 61.1125 90.6899 61.3123C90.2594 61.5121 89.7406 61.6121 89.1334 61.6121H87.1849V64.7942H86.1934ZM87.1849 60.6436H89.1334C89.7483 60.6436 90.2095 60.5129 90.5169 60.2516C90.8321 59.9903 90.9896 59.6021 90.9896 59.0871C90.9896 58.5875 90.8321 58.2109 90.5169 57.9572C90.2095 57.7036 89.7483 57.5768 89.1334 57.5768H87.1849V60.6436ZM93.4411 64.7942V58.6836H94.2943L94.3404 60.2285L94.2481 60.194C94.325 59.6713 94.4903 59.2908 94.7439 59.0525C95.0052 58.8066 95.3511 58.6836 95.7816 58.6836H96.3811V59.606H95.7931C95.4856 59.606 95.2281 59.6636 95.0206 59.7789C94.8208 59.8865 94.667 60.0518 94.5594 60.2747C94.4595 60.4899 94.4096 60.7666 94.4096 61.1048V64.7942H93.4411ZM99.7346 64.9325C99.1735 64.9325 98.6816 64.8019 98.2588 64.5405C97.8361 64.2792 97.5094 63.9103 97.2788 63.4337C97.0483 62.9495 96.933 62.3845 96.933 61.7389C96.933 61.0856 97.0483 60.5206 97.2788 60.0441C97.5094 59.5675 97.8361 59.1986 98.2588 58.9372C98.6816 58.6759 99.1735 58.5452 99.7346 58.5452C100.296 58.5452 100.784 58.6759 101.199 58.9372C101.622 59.1986 101.948 59.5675 102.179 60.0441C102.409 60.5206 102.525 61.0856 102.525 61.7389C102.525 62.3845 102.409 62.9495 102.179 63.4337C101.948 63.9103 101.622 64.2792 101.199 64.5405C100.784 64.8019 100.296 64.9325 99.7346 64.9325ZM99.7346 64.0102C100.296 64.0102 100.73 63.8103 101.037 63.4107C101.353 63.0033 101.51 62.446 101.51 61.7389C101.51 61.0318 101.353 60.4783 101.037 60.0787C100.73 59.6713 100.296 59.4676 99.7346 59.4676C99.1735 59.4676 98.7354 59.6713 98.4203 60.0787C98.1051 60.4783 97.9476 61.0318 97.9476 61.7389C97.9476 62.446 98.1051 63.0033 98.4203 63.4107C98.7354 63.8103 99.1735 64.0102 99.7346 64.0102ZM102.865 66.5236V65.6704H103.36C103.56 65.6704 103.722 65.6205 103.845 65.5205C103.968 65.4283 104.029 65.2554 104.029 65.0017V58.6836H104.998V65.0478C104.998 65.5859 104.878 65.9663 104.64 66.1892C104.402 66.4122 104.006 66.5236 103.453 66.5236H102.865ZM104.006 57.7267V56.5968H105.021V57.7267H104.006ZM109.114 64.9325C108.537 64.9325 108.037 64.8019 107.615 64.5405C107.2 64.2792 106.877 63.9103 106.646 63.4337C106.423 62.9495 106.312 62.3845 106.312 61.7389C106.312 61.0932 106.423 60.5321 106.646 60.0556C106.877 59.5791 107.196 59.2101 107.603 58.9488C108.018 58.6798 108.506 58.5452 109.067 58.5452C109.598 58.5452 110.067 58.6721 110.474 58.9257C110.881 59.1717 111.196 59.5329 111.419 60.0095C111.65 60.486 111.765 61.0663 111.765 61.7504V62.0387H107.326C107.365 62.692 107.538 63.1839 107.845 63.5144C108.16 63.8449 108.583 64.0102 109.114 64.0102C109.513 64.0102 109.84 63.918 110.094 63.7335C110.355 63.5413 110.535 63.2915 110.635 62.9841L111.673 63.0648C111.512 63.6105 111.204 64.0602 110.751 64.4137C110.305 64.7596 109.759 64.9325 109.114 64.9325ZM107.326 61.1855H110.705C110.658 60.5936 110.486 60.1594 110.186 59.8827C109.894 59.606 109.521 59.4676 109.067 59.4676C108.599 59.4676 108.21 59.6136 107.903 59.9057C107.603 60.1901 107.411 60.6167 107.326 61.1855ZM115.464 64.9325C114.895 64.9325 114.399 64.8019 113.976 64.5405C113.561 64.2792 113.239 63.9103 113.008 63.4337C112.777 62.9495 112.662 62.3845 112.662 61.7389C112.662 61.0932 112.777 60.5321 113.008 60.0556C113.239 59.5791 113.561 59.2101 113.976 58.9488C114.399 58.6798 114.895 58.5452 115.464 58.5452C115.933 58.5452 116.348 58.6298 116.709 58.7989C117.078 58.9603 117.378 59.1986 117.608 59.5137C117.839 59.8289 117.989 60.2132 118.058 60.6667L117.043 60.7358C116.974 60.3285 116.797 60.0172 116.513 59.802C116.228 59.5791 115.879 59.4676 115.464 59.4676C114.903 59.4676 114.464 59.6713 114.149 60.0787C113.834 60.4783 113.677 61.0318 113.677 61.7389C113.677 62.446 113.834 63.0033 114.149 63.4107C114.464 63.8103 114.903 64.0102 115.464 64.0102C115.879 64.0102 116.228 63.8949 116.513 63.6643C116.797 63.4337 116.974 63.0878 117.043 62.6267L118.058 62.6958C117.989 63.1493 117.839 63.5452 117.608 63.8834C117.378 64.2139 117.078 64.4714 116.709 64.6558C116.348 64.8403 115.933 64.9325 115.464 64.9325ZM121.259 64.7942C120.705 64.7942 120.294 64.6674 120.025 64.4137C119.764 64.1601 119.633 63.7642 119.633 63.2262V57.254H120.601V63.2031C120.601 63.4798 120.663 63.672 120.786 63.7796C120.909 63.8872 121.097 63.941 121.351 63.941H122.227V64.7942H121.259ZM118.734 59.5368V58.6836H122.227V59.5368H118.734Z" fill="white"/>
<rect x="161.765" y="50.8234" width="60.2353" height="18.9412" rx="6.17647" fill="#222222"/>
<rect x="161.765" y="50.8234" width="60.2353" height="18.9412" rx="6.17647" stroke="#333333" stroke-width="0.823529"/>
<g clip-path="url(#clip3_1092_618)">
<path d="M171.236 61.941C172.146 61.941 172.883 61.2036 172.883 60.2939C172.883 59.3843 172.146 58.6468 171.236 58.6468C170.327 58.6468 169.589 59.3843 169.589 60.2939C169.589 61.2036 170.327 61.941 171.236 61.941Z" stroke="white" stroke-width="0.823529" stroke-linecap="round" stroke-linejoin="round"/>
<path d="M174.93 61.7912C174.863 61.9418 174.843 62.1088 174.873 62.2707C174.902 62.4326 174.979 62.582 175.094 62.6996L175.124 62.7296C175.217 62.8223 175.291 62.9324 175.341 63.0535C175.391 63.1747 175.417 63.3046 175.417 63.4358C175.417 63.567 175.391 63.6969 175.341 63.8181C175.291 63.9392 175.217 64.0493 175.124 64.142C175.032 64.2348 174.922 64.3085 174.8 64.3587C174.679 64.4089 174.549 64.4348 174.418 64.4348C174.287 64.4348 174.157 64.4089 174.036 64.3587C173.915 64.3085 173.805 64.2348 173.712 64.142L173.682 64.1121C173.564 63.997 173.415 63.9198 173.253 63.8905C173.091 63.8611 172.924 63.8809 172.774 63.9474C172.626 64.0107 172.5 64.1157 172.411 64.2496C172.323 64.3835 172.275 64.5404 172.274 64.701V64.7859C172.274 65.0506 172.169 65.3045 171.982 65.4917C171.795 65.6789 171.541 65.7841 171.276 65.7841C171.011 65.7841 170.758 65.6789 170.57 65.4917C170.383 65.3045 170.278 65.0506 170.278 64.7859V64.741C170.274 64.5758 170.221 64.4155 170.125 64.2811C170.028 64.1467 169.894 64.0444 169.739 63.9873C169.588 63.9209 169.421 63.9011 169.26 63.9304C169.098 63.9598 168.948 64.037 168.831 64.152L168.801 64.182C168.708 64.2748 168.598 64.3484 168.477 64.3986C168.355 64.4489 168.226 64.4747 168.094 64.4747C167.963 64.4747 167.833 64.4489 167.712 64.3986C167.591 64.3484 167.481 64.2748 167.388 64.182C167.295 64.0893 167.222 63.9792 167.171 63.858C167.121 63.7368 167.095 63.6069 167.095 63.4757C167.095 63.3445 167.121 63.2147 167.171 63.0935C167.222 62.9723 167.295 62.8622 167.388 62.7695L167.418 62.7395C167.533 62.6219 167.61 62.4725 167.64 62.3106C167.669 62.1487 167.649 61.9817 167.583 61.8312C167.52 61.6835 167.414 61.5576 167.281 61.469C167.147 61.3803 166.99 61.3327 166.829 61.3321H166.744C166.48 61.3321 166.226 61.2269 166.038 61.0397C165.851 60.8525 165.746 60.5986 165.746 60.3338C165.746 60.0691 165.851 59.8152 166.038 59.628C166.226 59.4408 166.48 59.3356 166.744 59.3356H166.789C166.954 59.3318 167.115 59.2783 167.249 59.1821C167.383 59.086 167.486 58.9517 167.543 58.7966C167.609 58.646 167.629 58.4791 167.6 58.3171C167.57 58.1552 167.493 58.0058 167.378 57.8882L167.348 57.8583C167.255 57.7655 167.182 57.6555 167.132 57.5343C167.081 57.4131 167.055 57.2832 167.055 57.152C167.055 57.0208 167.081 56.8909 167.132 56.7698C167.182 56.6486 167.255 56.5385 167.348 56.4458C167.441 56.353 167.551 56.2793 167.672 56.2291C167.793 56.1789 167.923 56.153 168.054 56.153C168.186 56.153 168.316 56.1789 168.437 56.2291C168.558 56.2793 168.668 56.353 168.761 56.4458L168.791 56.4757C168.908 56.5908 169.058 56.668 169.22 56.6973C169.382 56.7267 169.548 56.7069 169.699 56.6404H169.739C169.887 56.5772 170.012 56.4721 170.101 56.3382C170.19 56.2043 170.237 56.0474 170.238 55.8868V55.8019C170.238 55.5372 170.343 55.2833 170.53 55.0961C170.718 54.9089 170.972 54.8037 171.236 54.8037C171.501 54.8037 171.755 54.9089 171.942 55.0961C172.129 55.2833 172.235 55.5372 172.235 55.8019V55.8468C172.235 56.0075 172.283 56.1644 172.371 56.2983C172.46 56.4322 172.586 56.5372 172.734 56.6005C172.884 56.6669 173.051 56.6868 173.213 56.6574C173.375 56.628 173.524 56.5509 173.642 56.4358L173.672 56.4059C173.765 56.313 173.875 56.2394 173.996 56.1892C174.117 56.1389 174.247 56.1131 174.378 56.1131C174.509 56.1131 174.639 56.1389 174.76 56.1892C174.882 56.2394 174.992 56.313 175.084 56.4059C175.177 56.4986 175.251 56.6086 175.301 56.7298C175.351 56.851 175.377 56.9809 175.377 57.1121C175.377 57.2433 175.351 57.3732 175.301 57.4943C175.251 57.6155 175.177 57.7256 175.084 57.8183L175.054 57.8483C174.939 57.9659 174.862 58.1153 174.833 58.2772C174.804 58.4391 174.823 58.6061 174.89 58.7567V58.7966C174.953 58.9442 175.058 59.0701 175.192 59.1588C175.326 59.2475 175.483 59.295 175.643 59.2957H175.728C175.993 59.2957 176.247 59.4009 176.434 59.5881C176.621 59.7753 176.726 60.0292 176.726 60.2939C176.726 60.5587 176.621 60.8126 176.434 60.9998C176.247 61.187 175.993 61.2921 175.728 61.2921H175.683C175.523 61.2928 175.366 61.3404 175.232 61.429C175.098 61.5177 174.993 61.6436 174.93 61.7912Z" stroke="white" stroke-width="0.823529" stroke-linecap="round" stroke-linejoin="round"/>
</g>
<path d="M181.909 57.1068H183.225L185.513 62.6937H185.597L187.885 57.1068H189.201V64.2939H188.169V59.0931H188.103L185.983 64.2834H185.127L183.007 59.0896H182.94V64.2939H181.909V57.1068ZM192.262 64.4133C191.921 64.4133 191.612 64.3501 191.336 64.2238C191.06 64.0951 190.841 63.9091 190.68 63.6658C190.52 63.4225 190.441 63.1242 190.441 62.7709C190.441 62.4667 190.499 62.2164 190.616 62.0199C190.733 61.8234 190.891 61.6678 191.09 61.5531C191.289 61.4385 191.511 61.3519 191.757 61.2934C192.003 61.235 192.253 61.1905 192.508 61.1601C192.831 61.1227 193.093 61.0922 193.294 61.0688C193.495 61.0431 193.641 61.0022 193.733 60.946C193.824 60.8899 193.87 60.7986 193.87 60.6723V60.6477C193.87 60.3412 193.783 60.1038 193.61 59.9353C193.439 59.7669 193.184 59.6826 192.845 59.6826C192.492 59.6826 192.213 59.761 192.01 59.9178C191.808 60.0722 191.669 60.2441 191.592 60.4337L190.606 60.2091C190.723 59.8815 190.894 59.6171 191.118 59.4159C191.345 59.2124 191.606 59.065 191.901 58.9738C192.196 58.8802 192.506 58.8334 192.831 58.8334C193.046 58.8334 193.274 58.8591 193.515 58.9106C193.758 58.9597 193.985 59.051 194.196 59.1843C194.409 59.3177 194.583 59.5084 194.719 59.7563C194.854 60.002 194.922 60.3214 194.922 60.7144V64.2939H193.898V63.557H193.855C193.788 63.6927 193.686 63.826 193.55 63.957C193.414 64.0881 193.24 64.1969 193.027 64.2834C192.814 64.37 192.559 64.4133 192.262 64.4133ZM192.49 63.571C192.78 63.571 193.028 63.5137 193.234 63.3991C193.443 63.2844 193.6 63.1347 193.708 62.9499C193.818 62.7627 193.873 62.5627 193.873 62.3498V61.6549C193.836 61.6923 193.763 61.7274 193.655 61.7602C193.55 61.7906 193.43 61.8175 193.294 61.8409C193.158 61.862 193.026 61.8818 192.897 61.9006C192.769 61.9169 192.661 61.931 192.575 61.9427C192.371 61.9684 192.185 62.0117 192.017 62.0725C191.85 62.1334 191.717 62.2211 191.617 62.3357C191.518 62.448 191.469 62.5978 191.469 62.7849C191.469 63.0446 191.565 63.2411 191.757 63.3745C191.949 63.5055 192.193 63.571 192.49 63.571ZM197.369 61.0934V64.2939H196.32V58.9036H197.327V59.7809H197.394C197.518 59.4955 197.712 59.2662 197.976 59.0931C198.243 58.9199 198.579 58.8334 198.984 58.8334C199.351 58.8334 199.673 58.9106 199.949 59.065C200.225 59.2171 200.439 59.444 200.591 59.7458C200.743 60.0476 200.819 60.4208 200.819 60.8653V64.2939H199.77V60.9916C199.77 60.6009 199.668 60.2956 199.464 60.0757C199.261 59.8534 198.981 59.7423 198.626 59.7423C198.382 59.7423 198.166 59.7949 197.976 59.9002C197.789 60.0055 197.641 60.1599 197.531 60.3635C197.423 60.5647 197.369 60.808 197.369 61.0934ZM203.795 64.4133C203.453 64.4133 203.144 64.3501 202.868 64.2238C202.592 64.0951 202.374 63.9091 202.212 63.6658C202.053 63.4225 201.974 63.1242 201.974 62.7709C201.974 62.4667 202.032 62.2164 202.149 62.0199C202.266 61.8234 202.424 61.6678 202.623 61.5531C202.822 61.4385 203.044 61.3519 203.29 61.2934C203.535 61.235 203.785 61.1905 204.041 61.1601C204.363 61.1227 204.625 61.0922 204.827 61.0688C205.028 61.0431 205.174 61.0022 205.265 60.946C205.357 60.8899 205.402 60.7986 205.402 60.6723V60.6477C205.402 60.3412 205.316 60.1038 205.142 59.9353C204.972 59.7669 204.717 59.6826 204.377 59.6826C204.024 59.6826 203.746 59.761 203.542 59.9178C203.341 60.0722 203.202 60.2441 203.125 60.4337L202.138 60.2091C202.255 59.8815 202.426 59.6171 202.651 59.4159C202.878 59.2124 203.139 59.065 203.433 58.9738C203.728 58.8802 204.038 58.8334 204.363 58.8334C204.579 58.8334 204.807 58.8591 205.048 58.9106C205.291 58.9597 205.518 59.051 205.729 59.1843C205.941 59.3177 206.116 59.5084 206.251 59.7563C206.387 60.002 206.455 60.3214 206.455 60.7144V64.2939H205.43V63.557H205.388C205.32 63.6927 205.218 63.826 205.083 63.957C204.947 64.0881 204.773 64.1969 204.56 64.2834C204.347 64.37 204.092 64.4133 203.795 64.4133ZM204.023 63.571C204.313 63.571 204.561 63.5137 204.767 63.3991C204.975 63.2844 205.133 63.1347 205.241 62.9499C205.351 62.7627 205.406 62.5627 205.406 62.3498V61.6549C205.368 61.6923 205.296 61.7274 205.188 61.7602C205.083 61.7906 204.962 61.8175 204.827 61.8409C204.691 61.862 204.559 61.8818 204.43 61.9006C204.301 61.9169 204.194 61.931 204.107 61.9427C203.904 61.9684 203.718 62.0117 203.549 62.0725C203.383 62.1334 203.25 62.2211 203.149 62.3357C203.051 62.448 203.002 62.5978 203.002 62.7849C203.002 63.0446 203.098 63.2411 203.29 63.3745C203.481 63.5055 203.726 63.571 204.023 63.571ZM210.113 66.4276C209.684 66.4276 209.316 66.3715 209.007 66.2592C208.701 66.1469 208.45 65.9983 208.256 65.8135C208.062 65.6287 207.917 65.4263 207.821 65.2064L208.723 64.8344C208.786 64.9373 208.87 65.0461 208.976 65.1608C209.083 65.2777 209.228 65.3772 209.411 65.4591C209.596 65.5409 209.833 65.5819 210.123 65.5819C210.521 65.5819 210.85 65.4848 211.109 65.2906C211.369 65.0988 211.499 64.7923 211.499 64.3712V63.3113H211.432C211.369 63.426 211.278 63.5535 211.158 63.6938C211.041 63.8342 210.88 63.9559 210.674 64.0588C210.468 64.1618 210.2 64.2132 209.87 64.2132C209.445 64.2132 209.061 64.1138 208.719 63.9149C208.38 63.7137 208.111 63.4178 207.912 63.0271C207.716 62.634 207.617 62.1509 207.617 61.5777C207.617 61.0045 207.715 60.5132 207.909 60.1038C208.105 59.6943 208.374 59.3808 208.716 59.1633C209.057 58.9433 209.445 58.8334 209.877 58.8334C210.212 58.8334 210.482 58.8895 210.688 59.0018C210.894 59.1118 211.054 59.2405 211.169 59.3879C211.286 59.5353 211.376 59.6651 211.439 59.7774H211.516V58.9036H212.545V64.4133C212.545 64.8765 212.437 65.2567 212.222 65.5538C212.006 65.8509 211.715 66.0709 211.348 66.2136C210.983 66.3563 210.571 66.4276 210.113 66.4276ZM210.102 63.3429C210.404 63.3429 210.659 63.2727 210.867 63.1323C211.078 62.9896 211.237 62.7861 211.344 62.5217C211.454 62.255 211.509 61.9357 211.509 61.5637C211.509 61.201 211.455 60.8817 211.348 60.6056C211.24 60.3295 211.082 60.1143 210.874 59.9599C210.666 59.8031 210.409 59.7248 210.102 59.7248C209.786 59.7248 209.523 59.8066 209.312 59.9704C209.102 60.1318 208.943 60.3518 208.835 60.6302C208.73 60.9086 208.677 61.2197 208.677 61.5637C208.677 61.9169 208.731 62.2269 208.839 62.4936C208.946 62.7604 209.105 62.9686 209.316 63.1183C209.529 63.268 209.791 63.3429 210.102 63.3429ZM216.275 64.4027C215.744 64.4027 215.287 64.2893 214.903 64.0623C214.522 63.833 214.227 63.5114 214.018 63.0973C213.813 62.6808 213.71 62.193 213.71 61.6339C213.71 61.0817 213.813 60.5951 214.018 60.174C214.227 59.7528 214.517 59.4241 214.889 59.1878C215.263 58.9515 215.701 58.8334 216.201 58.8334C216.505 58.8334 216.8 58.8837 217.086 58.9843C217.371 59.0849 217.627 59.2428 217.854 59.458C218.081 59.6733 218.26 59.9529 218.391 60.2968C218.522 60.6384 218.588 61.0536 218.588 61.5426V61.9146H214.303V61.1285H217.559C217.559 60.8524 217.503 60.6079 217.391 60.395C217.279 60.1798 217.121 60.0102 216.917 59.8862C216.716 59.7622 216.48 59.7002 216.208 59.7002C215.914 59.7002 215.656 59.7727 215.436 59.9178C215.219 60.0605 215.05 60.2477 214.931 60.4793C214.814 60.7086 214.755 60.9577 214.755 61.2268V61.8409C214.755 62.2012 214.819 62.5077 214.945 62.7604C215.074 63.013 215.253 63.206 215.482 63.3394C215.711 63.4704 215.979 63.5359 216.286 63.5359C216.484 63.5359 216.666 63.5078 216.829 63.4517C216.993 63.3932 217.135 63.3066 217.254 63.192C217.373 63.0774 217.465 62.9358 217.528 62.7674L218.521 62.9464C218.441 63.2388 218.299 63.495 218.093 63.7149C217.889 63.9325 217.633 64.1021 217.324 64.2238C217.018 64.3431 216.668 64.4027 216.275 64.4027Z" fill="white"/>
<mask id="path-14-inside-2_1092_618" fill="white">
<path d="M5 80.0588H229V119.588H5V80.0588Z"/>
</mask>
<path d="M5 80.0588V80.8824H229V80.0588V79.2353H5V80.0588Z" fill="#2F2F2F" mask="url(#path-14-inside-2_1092_618)"/>
<rect x="11.5879" y="91.5881" width="16.4706" height="16.4706" rx="8.23529" fill="#2F2F2F"/>
<g clip-path="url(#clip4_1092_618)">
<path d="M20.6469 95.8168V97.5176C20.6469 97.7482 20.6469 97.8635 20.6918 97.9516C20.7313 98.0291 20.7943 98.0921 20.8718 98.1315C20.9599 98.1764 21.0752 98.1764 21.3058 98.1764H23.0066M20.6469 102.088L21.6764 101.059L20.6469 100.029M18.9999 100.029L17.9705 101.059L18.9999 102.088M23.1175 98.9951V101.965C23.1175 102.656 23.1175 103.002 22.9829 103.267C22.8645 103.499 22.6755 103.688 22.4431 103.806C22.1788 103.941 21.8329 103.941 21.1411 103.941H18.5058C17.8139 103.941 17.468 103.941 17.2038 103.806C16.9713 103.688 16.7824 103.499 16.6639 103.267C16.5293 103.002 16.5293 102.656 16.5293 101.965V97.6823C16.5293 96.9905 16.5293 96.6445 16.6639 96.3803C16.7824 96.1479 16.9713 95.9589 17.2038 95.8404C17.468 95.7058 17.8139 95.7058 18.5058 95.7058H19.8283C20.1304 95.7058 20.2815 95.7058 20.4236 95.7399C20.5497 95.7702 20.6702 95.8201 20.7807 95.8878C20.9054 95.9642 21.0122 96.0711 21.2258 96.2847L22.5386 97.5975C22.7523 97.8112 22.8591 97.918 22.9355 98.0426C23.0032 98.1532 23.0531 98.2737 23.0834 98.3997C23.1175 98.5419 23.1175 98.6929 23.1175 98.9951Z" stroke="white" stroke-width="0.823529" stroke-linecap="round" stroke-linejoin="round"/>
</g>
<path d="M35.7072 104.323V96.1376H36.6987V103.862L36.203 103.355H40.7917V104.323H35.7072ZM43.9055 104.462C43.2752 104.462 42.7718 104.316 42.3952 104.024C42.0262 103.732 41.8417 103.324 41.8417 102.802C41.8417 102.279 41.9955 101.868 42.3029 101.568C42.6104 101.268 43.0984 101.057 43.7672 100.934L45.9347 100.53C45.9347 100.015 45.8117 99.631 45.5657 99.3774C45.3275 99.1237 44.9662 98.9969 44.482 98.9969C44.0592 98.9969 43.7249 99.093 43.4789 99.2851C43.233 99.4696 43.0639 99.7386 42.9716 100.092L41.9455 100.011C42.0608 99.435 42.3375 98.97 42.7756 98.6164C43.2214 98.2552 43.7902 98.0745 44.482 98.0745C45.266 98.0745 45.8655 98.2974 46.2806 98.7433C46.6956 99.1814 46.9032 99.7886 46.9032 100.565V103.09C46.9032 103.228 46.9262 103.328 46.9723 103.39C47.0261 103.443 47.1107 103.47 47.226 103.47H47.4681V104.323C47.4373 104.331 47.3874 104.335 47.3182 104.335C47.249 104.343 47.176 104.347 47.0992 104.347C46.8224 104.347 46.5957 104.304 46.4189 104.22C46.2498 104.127 46.1268 103.989 46.05 103.805C45.9731 103.613 45.9347 103.363 45.9347 103.055L46.05 103.078C45.9962 103.34 45.8655 103.578 45.658 103.793C45.4504 104.001 45.193 104.166 44.8855 104.289C44.5781 104.404 44.2514 104.462 43.9055 104.462ZM43.9977 103.609C44.4051 103.609 44.751 103.532 45.0354 103.378C45.3275 103.217 45.5504 103.001 45.7041 102.732C45.8578 102.456 45.9347 102.148 45.9347 101.81V101.372L43.9516 101.741C43.5366 101.818 43.2483 101.937 43.0869 102.098C42.9332 102.252 42.8563 102.456 42.8563 102.709C42.8563 102.994 42.9562 103.217 43.1561 103.378C43.3636 103.532 43.6442 103.609 43.9977 103.609ZM48.5619 104.323V98.2129H49.4497L49.4843 99.7694L49.369 99.6656C49.4459 99.3043 49.5804 99.0084 49.7725 98.7778C49.9647 98.5396 50.1953 98.3628 50.4643 98.2475C50.741 98.1322 51.0369 98.0745 51.3521 98.0745C51.8209 98.0745 52.2052 98.1783 52.505 98.3858C52.8125 98.5934 53.0392 98.8739 53.1852 99.2275C53.339 99.5734 53.4158 99.9615 53.4158 100.392V104.323H52.4474V100.669C52.4474 100.292 52.4012 99.9769 52.309 99.7233C52.2245 99.4619 52.0861 99.2659 51.8939 99.1353C51.7018 98.9969 51.452 98.9277 51.1445 98.9277C50.6757 98.9277 50.2875 99.0776 49.9801 99.3774C49.6803 99.6694 49.5304 100.1 49.5304 100.669V104.323H48.5619ZM57.2936 104.462C56.7632 104.462 56.3021 104.331 55.9101 104.07C55.5257 103.809 55.2298 103.44 55.0223 102.963C54.8148 102.486 54.711 101.922 54.711 101.268C54.711 100.615 54.8148 100.05 55.0223 99.5734C55.2298 99.0968 55.5257 98.7279 55.9101 98.4665C56.3021 98.2052 56.7632 98.0745 57.2936 98.0745C57.701 98.0745 58.0737 98.1629 58.4119 98.3397C58.7501 98.5088 59.0038 98.7509 59.1729 99.0661V96.1376H60.1413V104.323H59.2651L59.2305 103.401C59.0614 103.732 58.8039 103.993 58.4581 104.185C58.1122 104.37 57.724 104.462 57.2936 104.462ZM57.4896 103.539C57.8508 103.539 58.1544 103.447 58.4004 103.263C58.6541 103.078 58.8462 102.817 58.9769 102.479C59.1075 102.133 59.1729 101.729 59.1729 101.268C59.1729 100.792 59.1075 100.384 58.9769 100.046C58.8462 99.7079 58.6541 99.4504 58.4004 99.2736C58.1544 99.0891 57.8508 98.9969 57.4896 98.9969C56.9515 98.9969 56.5211 99.2006 56.1983 99.608C55.8832 100.008 55.7256 100.561 55.7256 101.268C55.7256 101.968 55.8832 102.521 56.1983 102.928C56.5211 103.336 56.9515 103.539 57.4896 103.539ZM61.7577 104.323V98.2129H62.7262V104.323H61.7577ZM61.7347 97.256V96.1261H62.7492V97.256H61.7347ZM64.6851 104.323V98.2129H65.5729L65.6075 99.7694L65.4922 99.6656C65.569 99.3043 65.7035 99.0084 65.8957 98.7778C66.0879 98.5396 66.3184 98.3628 66.5875 98.2475C66.8642 98.1322 67.1601 98.0745 67.4752 98.0745C67.9441 98.0745 68.3284 98.1783 68.6282 98.3858C68.9356 98.5934 69.1624 98.8739 69.3084 99.2275C69.4621 99.5734 69.539 99.9615 69.539 100.392V104.323H68.5705V100.669C68.5705 100.292 68.5244 99.9769 68.4322 99.7233C68.3476 99.4619 68.2093 99.2659 68.0171 99.1353C67.825 98.9969 67.5751 98.9277 67.2677 98.9277C66.7988 98.9277 66.4107 99.0776 66.1032 99.3774C65.8035 99.6694 65.6536 100.1 65.6536 100.669V104.323H64.6851ZM73.5666 106.191C73.1285 106.191 72.7327 106.118 72.3791 105.972C72.0255 105.826 71.7296 105.619 71.4913 105.35C71.2531 105.081 71.0916 104.769 71.0071 104.416L72.0217 104.347C72.1139 104.631 72.2753 104.854 72.5059 105.015C72.7442 105.184 73.0978 105.269 73.5666 105.269C74.12 105.269 74.5428 105.157 74.8349 104.935C75.1346 104.712 75.2845 104.377 75.2845 103.931V102.94C75.1385 103.263 74.904 103.52 74.5812 103.712C74.2584 103.905 73.8971 104.001 73.4975 104.001C72.9825 104.001 72.5213 103.874 72.1139 103.62C71.7142 103.367 71.3991 103.017 71.1685 102.571C70.9456 102.125 70.8342 101.614 70.8342 101.038C70.8342 100.453 70.9456 99.9423 71.1685 99.5042C71.3914 99.0584 71.6989 98.7087 72.0909 98.455C72.4905 98.2014 72.944 98.0745 73.4513 98.0745C73.8818 98.0745 74.2661 98.1745 74.6043 98.3743C74.9502 98.5742 75.1923 98.8432 75.3306 99.1814V98.2129H76.253V103.908C76.253 104.385 76.1454 104.792 75.9302 105.131C75.7149 105.476 75.4075 105.738 75.0078 105.915C74.6081 106.099 74.1277 106.191 73.5666 106.191ZM73.5436 103.078C74.0662 103.078 74.4851 102.898 74.8003 102.536C75.1154 102.167 75.2768 101.668 75.2845 101.038C75.2922 100.615 75.223 100.254 75.077 99.9538C74.9386 99.6464 74.7349 99.412 74.4659 99.2505C74.2046 99.0814 73.8971 98.9969 73.5436 98.9969C73.0055 98.9969 72.5866 99.1814 72.2869 99.5503C71.9948 99.9116 71.8487 100.407 71.8487 101.038C71.8487 101.668 71.9986 102.167 72.2984 102.536C72.6058 102.898 73.0209 103.078 73.5436 103.078ZM81.1155 104.323V96.1376H84.0555C84.9702 96.1376 85.6812 96.3567 86.1885 96.7948C86.6957 97.2329 86.9494 97.8401 86.9494 98.6164C86.9494 99.1391 86.8341 99.5926 86.6035 99.9769C86.3729 100.354 86.0424 100.642 85.612 100.842C85.1816 101.041 84.6627 101.141 84.0555 101.141H82.107V104.323H81.1155ZM82.107 100.173H84.0555C84.6704 100.173 85.1316 100.042 85.439 99.7809C85.7542 99.5196 85.9117 99.1314 85.9117 98.6164C85.9117 98.1168 85.7542 97.7402 85.439 97.4865C85.1316 97.2329 84.6704 97.1061 84.0555 97.1061H82.107V100.173ZM89.8655 104.462C89.2352 104.462 88.7318 104.316 88.3552 104.024C87.9862 103.732 87.8018 103.324 87.8018 102.802C87.8018 102.279 87.9555 101.868 88.2629 101.568C88.5704 101.268 89.0585 101.057 89.7272 100.934L91.8947 100.53C91.8947 100.015 91.7717 99.631 91.5258 99.3774C91.2875 99.1237 90.9262 98.9969 90.442 98.9969C90.0192 98.9969 89.6849 99.093 89.4389 99.2851C89.193 99.4696 89.0239 99.7386 88.9316 100.092L87.9055 100.011C88.0208 99.435 88.2975 98.97 88.7356 98.6164C89.1814 98.2552 89.7502 98.0745 90.442 98.0745C91.226 98.0745 91.8255 98.2974 92.2406 98.7433C92.6556 99.1814 92.8632 99.7886 92.8632 100.565V103.09C92.8632 103.228 92.8862 103.328 92.9323 103.39C92.9862 103.443 93.0707 103.47 93.186 103.47H93.4281V104.323C93.3974 104.331 93.3474 104.335 93.2782 104.335C93.2091 104.343 93.136 104.347 93.0592 104.347C92.7825 104.347 92.5557 104.304 92.3789 104.22C92.2098 104.127 92.0869 103.989 92.01 103.805C91.9331 103.613 91.8947 103.363 91.8947 103.055L92.01 103.078C91.9562 103.34 91.8255 103.578 91.618 103.793C91.4105 104.001 91.153 104.166 90.8455 104.289C90.5381 104.404 90.2114 104.462 89.8655 104.462ZM89.9578 103.609C90.3651 103.609 90.711 103.532 90.9954 103.378C91.2875 103.217 91.5104 103.001 91.6641 102.732C91.8178 102.456 91.8947 102.148 91.8947 101.81V101.372L89.9116 101.741C89.4966 101.818 89.2083 101.937 89.0469 102.098C88.8932 102.252 88.8163 102.456 88.8163 102.709C88.8163 102.994 88.9163 103.217 89.1161 103.378C89.3236 103.532 89.6042 103.609 89.9578 103.609ZM96.8169 106.191C96.3787 106.191 95.9829 106.118 95.6293 105.972C95.2758 105.826 94.9798 105.619 94.7416 105.35C94.5033 105.081 94.3419 104.769 94.2573 104.416L95.2719 104.347C95.3642 104.631 95.5256 104.854 95.7562 105.015C95.9944 105.184 96.348 105.269 96.8169 105.269C97.3703 105.269 97.793 105.157 98.0851 104.935C98.3849 104.712 98.5347 104.377 98.5347 103.931V102.94C98.3887 103.263 98.1543 103.52 97.8314 103.712C97.5086 103.905 97.1474 104.001 96.7477 104.001C96.2327 104.001 95.7715 103.874 95.3642 103.62C94.9645 103.367 94.6493 103.017 94.4187 102.571C94.1958 102.125 94.0844 101.614 94.0844 101.038C94.0844 100.453 94.1958 99.9423 94.4187 99.5042C94.6416 99.0584 94.9491 98.7087 95.3411 98.455C95.7408 98.2014 96.1943 98.0745 96.7016 98.0745C97.132 98.0745 97.5163 98.1745 97.8545 98.3743C98.2004 98.5742 98.4425 98.8432 98.5809 99.1814V98.2129H99.5032V103.908C99.5032 104.385 99.3956 104.792 99.1804 105.131C98.9652 105.476 98.6577 105.738 98.258 105.915C97.8584 106.099 97.378 106.191 96.8169 106.191ZM96.7938 103.078C97.3165 103.078 97.7354 102.898 98.0505 102.536C98.3656 102.167 98.5271 101.668 98.5347 101.038C98.5424 100.615 98.4733 100.254 98.3272 99.9538C98.1889 99.6464 97.9852 99.412 97.7162 99.2505C97.4548 99.0814 97.1474 98.9969 96.7938 98.9969C96.2558 98.9969 95.8369 99.1814 95.5371 99.5503C95.245 99.9116 95.099 100.407 95.099 101.038C95.099 101.668 95.2489 102.167 95.5486 102.536C95.8561 102.898 96.2711 103.078 96.7938 103.078ZM103.619 104.462C103.043 104.462 102.543 104.331 102.12 104.07C101.705 103.809 101.382 103.44 101.152 102.963C100.929 102.479 100.817 101.914 100.817 101.268C100.817 100.623 100.929 100.061 101.152 99.5849C101.382 99.1083 101.701 98.7394 102.109 98.4781C102.524 98.2091 103.012 98.0745 103.573 98.0745C104.103 98.0745 104.572 98.2014 104.98 98.455C105.387 98.701 105.702 99.0622 105.925 99.5388C106.156 100.015 106.271 100.596 106.271 101.28V101.568H101.832C101.87 102.221 102.043 102.713 102.351 103.044C102.666 103.374 103.089 103.539 103.619 103.539C104.019 103.539 104.345 103.447 104.599 103.263C104.86 103.071 105.041 102.821 105.141 102.513L106.179 102.594C106.017 103.14 105.71 103.589 105.256 103.943C104.81 104.289 104.265 104.462 103.619 104.462ZM101.832 100.715H105.21C105.164 100.123 104.991 99.6887 104.691 99.412C104.399 99.1353 104.026 98.9969 103.573 98.9969C103.104 98.9969 102.716 99.1429 102.408 99.435C102.109 99.7194 101.917 100.146 101.832 100.715Z" fill="white"/>
<rect x="161.765" y="90.3529" width="60.2353" height="18.9412" rx="6.17647" fill="#222222"/>
<rect x="161.765" y="90.3529" width="60.2353" height="18.9412" rx="6.17647" stroke="#333333" stroke-width="0.823529"/>
<g clip-path="url(#clip5_1092_618)">
<path d="M171.236 101.471C172.146 101.471 172.883 100.733 172.883 99.8234C172.883 98.9138 172.146 98.1764 171.236 98.1764C170.327 98.1764 169.589 98.9138 169.589 99.8234C169.589 100.733 170.327 101.471 171.236 101.471Z" stroke="white" stroke-width="0.823529" stroke-linecap="round" stroke-linejoin="round"/>
<path d="M174.93 101.321C174.863 101.471 174.843 101.638 174.873 101.8C174.902 101.962 174.979 102.112 175.094 102.229L175.124 102.259C175.217 102.352 175.291 102.462 175.341 102.583C175.391 102.704 175.417 102.834 175.417 102.965C175.417 103.097 175.391 103.226 175.341 103.348C175.291 103.469 175.217 103.579 175.124 103.672C175.032 103.764 174.922 103.838 174.8 103.888C174.679 103.938 174.549 103.964 174.418 103.964C174.287 103.964 174.157 103.938 174.036 103.888C173.915 103.838 173.805 103.764 173.712 103.672L173.682 103.642C173.564 103.527 173.415 103.449 173.253 103.42C173.091 103.391 172.924 103.41 172.774 103.477C172.626 103.54 172.5 103.645 172.411 103.779C172.323 103.913 172.275 104.07 172.274 104.231V104.315C172.274 104.58 172.169 104.834 171.982 105.021C171.795 105.208 171.541 105.314 171.276 105.314C171.011 105.314 170.758 105.208 170.57 105.021C170.383 104.834 170.278 104.58 170.278 104.315V104.271C170.274 104.105 170.221 103.945 170.125 103.811C170.028 103.676 169.894 103.574 169.739 103.517C169.588 103.45 169.421 103.431 169.26 103.46C169.098 103.489 168.948 103.566 168.831 103.682L168.801 103.712C168.708 103.804 168.598 103.878 168.477 103.928C168.355 103.978 168.226 104.004 168.094 104.004C167.963 104.004 167.833 103.978 167.712 103.928C167.591 103.878 167.481 103.804 167.388 103.712C167.295 103.619 167.222 103.509 167.171 103.388C167.121 103.266 167.095 103.136 167.095 103.005C167.095 102.874 167.121 102.744 167.171 102.623C167.222 102.502 167.295 102.392 167.388 102.299L167.418 102.269C167.533 102.151 167.61 102.002 167.64 101.84C167.669 101.678 167.649 101.511 167.583 101.361C167.52 101.213 167.414 101.087 167.281 100.999C167.147 100.91 166.99 100.862 166.829 100.862H166.744C166.48 100.862 166.226 100.756 166.038 100.569C165.851 100.382 165.746 100.128 165.746 99.8634C165.746 99.5986 165.851 99.3447 166.038 99.1575C166.226 98.9703 166.48 98.8652 166.744 98.8652H166.789C166.954 98.8613 167.115 98.8078 167.249 98.7117C167.383 98.6156 167.486 98.4812 167.543 98.3261C167.609 98.1756 167.629 98.0086 167.6 97.8467C167.57 97.6848 167.493 97.5354 167.378 97.4177L167.348 97.3878C167.255 97.2951 167.182 97.185 167.132 97.0638C167.081 96.9426 167.055 96.8127 167.055 96.6816C167.055 96.5504 167.081 96.4205 167.132 96.2993C167.182 96.1781 167.255 96.068 167.348 95.9753C167.441 95.8825 167.551 95.8089 167.672 95.7586C167.793 95.7084 167.923 95.6826 168.054 95.6826C168.186 95.6826 168.316 95.7084 168.437 95.7586C168.558 95.8089 168.668 95.8825 168.761 95.9753L168.791 96.0053C168.908 96.1203 169.058 96.1975 169.22 96.2269C169.382 96.2562 169.548 96.2364 169.699 96.17H169.739C169.887 96.1067 170.012 96.0017 170.101 95.8677C170.19 95.7338 170.237 95.5769 170.238 95.4163V95.3315C170.238 95.0667 170.343 94.8128 170.53 94.6256C170.718 94.4384 170.972 94.3333 171.236 94.3333C171.501 94.3333 171.755 94.4384 171.942 94.6256C172.129 94.8128 172.235 95.0667 172.235 95.3315V95.3764C172.235 95.537 172.283 95.6939 172.371 95.8278C172.46 95.9617 172.586 96.0668 172.734 96.13C172.884 96.1965 173.051 96.2163 173.213 96.1869C173.375 96.1576 173.524 96.0804 173.642 95.9653L173.672 95.9354C173.765 95.8426 173.875 95.769 173.996 95.7187C174.117 95.6685 174.247 95.6426 174.378 95.6426C174.509 95.6426 174.639 95.6685 174.76 95.7187C174.882 95.769 174.992 95.8426 175.084 95.9354C175.177 96.0281 175.251 96.1382 175.301 96.2594C175.351 96.3806 175.377 96.5104 175.377 96.6416C175.377 96.7728 175.351 96.9027 175.301 97.0239C175.251 97.1451 175.177 97.2552 175.084 97.3479L175.054 97.3778C174.939 97.4954 174.862 97.6448 174.833 97.8068C174.804 97.9687 174.823 98.1357 174.89 98.2862V98.3261C174.953 98.4737 175.058 98.5996 175.192 98.6883C175.326 98.777 175.483 98.8246 175.643 98.8252H175.728C175.993 98.8252 176.247 98.9304 176.434 99.1176C176.621 99.3048 176.726 99.5587 176.726 99.8234C176.726 100.088 176.621 100.342 176.434 100.529C176.247 100.716 175.993 100.822 175.728 100.822H175.683C175.523 100.822 175.366 100.87 175.232 100.959C175.098 101.047 174.993 101.173 174.93 101.321Z" stroke="white" stroke-width="0.823529" stroke-linecap="round" stroke-linejoin="round"/>
</g>
<path d="M181.909 96.6363H183.225L185.513 102.223H185.597L187.885 96.6363H189.201V103.823H188.169V98.6226H188.103L185.983 103.813H185.127L183.007 98.6191H182.94V103.823H181.909V96.6363ZM192.262 103.943C191.921 103.943 191.612 103.88 191.336 103.753C191.06 103.625 190.841 103.439 190.68 103.195C190.52 102.952 190.441 102.654 190.441 102.3C190.441 101.996 190.499 101.746 190.616 101.549C190.733 101.353 190.891 101.197 191.09 101.083C191.289 100.968 191.511 100.881 191.757 100.823C192.003 100.764 192.253 100.72 192.508 100.69C192.831 100.652 193.093 100.622 193.294 100.598C193.495 100.573 193.641 100.532 193.733 100.476C193.824 100.419 193.87 100.328 193.87 100.202V100.177C193.87 99.8708 193.783 99.6333 193.61 99.4649C193.439 99.2964 193.184 99.2122 192.845 99.2122C192.492 99.2122 192.213 99.2906 192.01 99.4473C191.808 99.6017 191.669 99.7737 191.592 99.9632L190.606 99.7386C190.723 99.4111 190.894 99.1467 191.118 98.9455C191.345 98.7419 191.606 98.5945 191.901 98.5033C192.196 98.4097 192.506 98.3629 192.831 98.3629C193.046 98.3629 193.274 98.3887 193.515 98.4401C193.758 98.4893 193.985 98.5805 194.196 98.7139C194.409 98.8472 194.583 99.0379 194.719 99.2859C194.854 99.5315 194.922 99.8509 194.922 100.244V103.823H193.898V103.087H193.855C193.788 103.222 193.686 103.356 193.55 103.487C193.414 103.618 193.24 103.726 193.027 103.813C192.814 103.9 192.559 103.943 192.262 103.943ZM192.49 103.101C192.78 103.101 193.028 103.043 193.234 102.929C193.443 102.814 193.6 102.664 193.708 102.479C193.818 102.292 193.873 102.092 193.873 101.879V101.184C193.836 101.222 193.763 101.257 193.655 101.29C193.55 101.32 193.43 101.347 193.294 101.37C193.158 101.392 193.026 101.411 192.897 101.43C192.769 101.446 192.661 101.461 192.575 101.472C192.371 101.498 192.185 101.541 192.017 101.602C191.85 101.663 191.717 101.751 191.617 101.865C191.518 101.978 191.469 102.127 191.469 102.314C191.469 102.574 191.565 102.771 191.757 102.904C191.949 103.035 192.193 103.101 192.49 103.101ZM197.369 100.623V103.823H196.32V98.4331H197.327V99.3105H197.394C197.518 99.025 197.712 98.7957 197.976 98.6226C198.243 98.4495 198.579 98.3629 198.984 98.3629C199.351 98.3629 199.673 98.4401 199.949 98.5945C200.225 98.7466 200.439 98.9736 200.591 99.2754C200.743 99.5772 200.819 99.9503 200.819 100.395V103.823H199.77V100.521C199.77 100.13 199.668 99.8252 199.464 99.6052C199.261 99.383 198.981 99.2718 198.626 99.2718C198.382 99.2718 198.166 99.3245 197.976 99.4298C197.789 99.5351 197.641 99.6895 197.531 99.893C197.423 100.094 197.369 100.338 197.369 100.623ZM203.795 103.943C203.453 103.943 203.144 103.88 202.868 103.753C202.592 103.625 202.374 103.439 202.212 103.195C202.053 102.952 201.974 102.654 201.974 102.3C201.974 101.996 202.032 101.746 202.149 101.549C202.266 101.353 202.424 101.197 202.623 101.083C202.822 100.968 203.044 100.881 203.29 100.823C203.535 100.764 203.785 100.72 204.041 100.69C204.363 100.652 204.625 100.622 204.827 100.598C205.028 100.573 205.174 100.532 205.265 100.476C205.357 100.419 205.402 100.328 205.402 100.202V100.177C205.402 99.8708 205.316 99.6333 205.142 99.4649C204.972 99.2964 204.717 99.2122 204.377 99.2122C204.024 99.2122 203.746 99.2906 203.542 99.4473C203.341 99.6017 203.202 99.7737 203.125 99.9632L202.138 99.7386C202.255 99.4111 202.426 99.1467 202.651 98.9455C202.878 98.7419 203.139 98.5945 203.433 98.5033C203.728 98.4097 204.038 98.3629 204.363 98.3629C204.579 98.3629 204.807 98.3887 205.048 98.4401C205.291 98.4893 205.518 98.5805 205.729 98.7139C205.941 98.8472 206.116 99.0379 206.251 99.2859C206.387 99.5315 206.455 99.8509 206.455 100.244V103.823H205.43V103.087H205.388C205.32 103.222 205.218 103.356 205.083 103.487C204.947 103.618 204.773 103.726 204.56 103.813C204.347 103.9 204.092 103.943 203.795 103.943ZM204.023 103.101C204.313 103.101 204.561 103.043 204.767 102.929C204.975 102.814 205.133 102.664 205.241 102.479C205.351 102.292 205.406 102.092 205.406 101.879V101.184C205.368 101.222 205.296 101.257 205.188 101.29C205.083 101.32 204.962 101.347 204.827 101.37C204.691 101.392 204.559 101.411 204.43 101.43C204.301 101.446 204.194 101.461 204.107 101.472C203.904 101.498 203.718 101.541 203.549 101.602C203.383 101.663 203.25 101.751 203.149 101.865C203.051 101.978 203.002 102.127 203.002 102.314C203.002 102.574 203.098 102.771 203.29 102.904C203.481 103.035 203.726 103.101 204.023 103.101ZM210.113 105.957C209.684 105.957 209.316 105.901 209.007 105.789C208.701 105.676 208.45 105.528 208.256 105.343C208.062 105.158 207.917 104.956 207.821 104.736L208.723 104.364C208.786 104.467 208.87 104.576 208.976 104.69C209.083 104.807 209.228 104.907 209.411 104.989C209.596 105.07 209.833 105.111 210.123 105.111C210.521 105.111 210.85 105.014 211.109 104.82C211.369 104.628 211.499 104.322 211.499 103.901V102.841H211.432C211.369 102.956 211.278 103.083 211.158 103.223C211.041 103.364 210.88 103.485 210.674 103.588C210.468 103.691 210.2 103.743 209.87 103.743C209.445 103.743 209.061 103.643 208.719 103.444C208.38 103.243 208.111 102.947 207.912 102.557C207.716 102.164 207.617 101.68 207.617 101.107C207.617 100.534 207.715 100.043 207.909 99.6333C208.105 99.2239 208.374 98.9104 208.716 98.6928C209.057 98.4729 209.445 98.3629 209.877 98.3629C210.212 98.3629 210.482 98.4191 210.688 98.5314C210.894 98.6413 211.054 98.77 211.169 98.9174C211.286 99.0648 211.376 99.1946 211.439 99.3069H211.516V98.4331H212.545V103.943C212.545 104.406 212.437 104.786 212.222 105.083C212.006 105.38 211.715 105.6 211.348 105.743C210.983 105.886 210.571 105.957 210.113 105.957ZM210.102 102.872C210.404 102.872 210.659 102.802 210.867 102.662C211.078 102.519 211.237 102.316 211.344 102.051C211.454 101.785 211.509 101.465 211.509 101.093C211.509 100.731 211.455 100.411 211.348 100.135C211.24 99.8591 211.082 99.6438 210.874 99.4894C210.666 99.3327 210.409 99.2543 210.102 99.2543C209.786 99.2543 209.523 99.3362 209.312 99.5C209.102 99.6614 208.943 99.8813 208.835 100.16C208.73 100.438 208.677 100.749 208.677 101.093C208.677 101.446 208.731 101.756 208.839 102.023C208.946 102.29 209.105 102.498 209.316 102.648C209.529 102.798 209.791 102.872 210.102 102.872ZM216.275 103.932C215.744 103.932 215.287 103.819 214.903 103.592C214.522 103.363 214.227 103.041 214.018 102.627C213.813 102.21 213.71 101.723 213.71 101.163C213.71 100.611 213.813 100.125 214.018 99.7035C214.227 99.2824 214.517 98.9537 214.889 98.7174C215.263 98.4811 215.701 98.3629 216.201 98.3629C216.505 98.3629 216.8 98.4132 217.086 98.5138C217.371 98.6144 217.627 98.7723 217.854 98.9876C218.081 99.2028 218.26 99.4824 218.391 99.8263C218.522 100.168 218.588 100.583 218.588 101.072V101.444H214.303V100.658H217.559C217.559 100.382 217.503 100.137 217.391 99.9246C217.279 99.7093 217.121 99.5397 216.917 99.4157C216.716 99.2917 216.48 99.2297 216.208 99.2297C215.914 99.2297 215.656 99.3023 215.436 99.4473C215.219 99.59 215.05 99.7772 214.931 100.009C214.814 100.238 214.755 100.487 214.755 100.756V101.37C214.755 101.731 214.819 102.037 214.945 102.29C215.074 102.543 215.253 102.736 215.482 102.869C215.711 103 215.979 103.065 216.286 103.065C216.484 103.065 216.666 103.037 216.829 102.981C216.993 102.923 217.135 102.836 217.254 102.722C217.373 102.607 217.465 102.465 217.528 102.297L218.521 102.476C218.441 102.768 218.299 103.025 218.093 103.244C217.889 103.462 217.633 103.632 217.324 103.753C217.018 103.873 216.668 103.932 216.275 103.932Z" fill="white"/>
<mask id="path-22-inside-3_1092_618" fill="white">
<path d="M5 119.588H229V149.235H5V119.588Z"/>
</mask>
<path d="M5 119.588H229V149.235H5V119.588Z" fill="#222222"/>
<path d="M5 119.588V120.412H229V119.588V118.765H5V119.588Z" fill="#2F2F2F" mask="url(#path-22-inside-3_1092_618)"/>
<rect x="11.5879" y="126.177" width="16.4706" height="16.4706" rx="8.23529" fill="#2F2F2F"/>
<path d="M19.8238 131.53V137.294M16.9414 134.412H22.7061" stroke="white" stroke-width="0.823529" stroke-linecap="round" stroke-linejoin="round"/>
<path d="M38.2437 138.07C37.6178 138.07 37.0677 137.925 36.5933 137.635C36.119 137.339 35.75 136.917 35.4865 136.37C35.223 135.823 35.0912 135.171 35.0912 134.414C35.0912 133.656 35.223 133.004 35.4865 132.457C35.75 131.903 36.119 131.478 36.5933 131.182C37.0677 130.886 37.6178 130.737 38.2437 130.737C39.0935 130.737 39.7524 130.951 40.2201 131.38C40.6879 131.808 40.9942 132.391 41.1392 133.129L40.2399 133.188C40.1411 132.687 39.9302 132.292 39.6074 132.002C39.2846 131.712 38.83 131.567 38.2437 131.567C37.7957 131.567 37.4004 131.683 37.0578 131.913C36.7218 132.137 36.4582 132.463 36.2672 132.892C36.0761 133.313 35.9806 133.821 35.9806 134.414C35.9806 135.006 36.0761 135.514 36.2672 135.935C36.4582 136.357 36.7218 136.68 37.0578 136.904C37.4004 137.128 37.7957 137.24 38.2437 137.24C38.8564 137.24 39.3307 137.082 39.6667 136.766C40.0027 136.443 40.2135 136.008 40.2992 135.461L41.1985 135.52C41.1128 136.028 40.9448 136.472 40.6945 136.854C40.4441 137.237 40.1114 137.536 39.6964 137.754C39.2879 137.965 38.8037 138.07 38.2437 138.07ZM42.3084 137.912V132.674H43.0397L43.0792 133.998L43.0002 133.969C43.066 133.521 43.2077 133.195 43.4251 132.99C43.6491 132.78 43.9456 132.674 44.3145 132.674H44.8284V133.465H44.3244C44.0609 133.465 43.8402 133.514 43.6623 133.613C43.491 133.705 43.3592 133.847 43.267 134.038C43.1813 134.222 43.1385 134.46 43.1385 134.75V137.912H42.3084ZM47.7028 138.03C47.2087 138.03 46.7805 137.918 46.4181 137.694C46.0624 137.47 45.7857 137.154 45.588 136.746C45.397 136.331 45.3014 135.846 45.3014 135.293C45.3014 134.74 45.397 134.259 45.588 133.85C45.7857 133.442 46.0591 133.126 46.4083 132.902C46.764 132.671 47.1824 132.556 47.6633 132.556C48.1179 132.556 48.5198 132.664 48.869 132.882C49.2181 133.093 49.4883 133.402 49.6793 133.811C49.877 134.219 49.9758 134.717 49.9758 135.303V135.55H46.1711C46.204 136.11 46.3523 136.532 46.6158 136.815C46.8859 137.098 47.2483 137.24 47.7028 137.24C48.0454 137.24 48.3254 137.161 48.5428 137.003C48.7668 136.838 48.9217 136.624 49.0073 136.36L49.8967 136.43C49.7584 136.897 49.4948 137.283 49.1061 137.586C48.724 137.882 48.2563 138.03 47.7028 138.03ZM46.1711 134.819H49.0666C49.0271 134.311 48.8788 133.939 48.6219 133.702C48.3716 133.465 48.052 133.346 47.6633 133.346C47.2614 133.346 46.9287 133.471 46.6652 133.722C46.4083 133.966 46.2436 134.331 46.1711 134.819ZM52.6485 138.03C52.1083 138.03 51.6767 137.905 51.3539 137.655C51.0377 137.405 50.8796 137.055 50.8796 136.607C50.8796 136.159 51.0113 135.807 51.2749 135.55C51.5384 135.293 51.9567 135.112 52.5299 135.006L54.3878 134.661C54.3878 134.219 54.2824 133.89 54.0716 133.672C53.8673 133.455 53.5577 133.346 53.1426 133.346C52.7803 133.346 52.4937 133.429 52.2829 133.593C52.072 133.751 51.9271 133.982 51.848 134.285L50.9685 134.216C51.0673 133.722 51.3045 133.323 51.68 133.02C52.0622 132.71 52.5497 132.556 53.1426 132.556C53.8146 132.556 54.3285 132.747 54.6843 133.129C55.04 133.504 55.2179 134.025 55.2179 134.69V136.854C55.2179 136.973 55.2377 137.059 55.2772 137.111C55.3233 137.158 55.3958 137.181 55.4946 137.181H55.7022V137.912C55.6758 137.918 55.633 137.922 55.5737 137.922C55.5144 137.928 55.4518 137.932 55.3859 137.932C55.1487 137.932 54.9544 137.895 54.8029 137.823C54.6579 137.744 54.5525 137.625 54.4866 137.467C54.4207 137.302 54.3878 137.088 54.3878 136.825L54.4866 136.845C54.4405 137.069 54.3285 137.273 54.1506 137.457C53.9727 137.635 53.752 137.777 53.4885 137.882C53.225 137.981 52.945 138.03 52.6485 138.03ZM52.7276 137.299C53.0767 137.299 53.3732 137.233 53.617 137.102C53.8673 136.963 54.0584 136.779 54.1902 136.548C54.3219 136.311 54.3878 136.047 54.3878 135.758V135.382L52.688 135.698C52.3323 135.764 52.0852 135.866 51.9469 136.005C51.8151 136.136 51.7492 136.311 51.7492 136.528C51.7492 136.772 51.8349 136.963 52.0062 137.102C52.184 137.233 52.4245 137.299 52.7276 137.299ZM58.2963 137.912C57.822 137.912 57.4695 137.803 57.2389 137.586C57.0149 137.368 56.9029 137.029 56.9029 136.568V131.449H57.733V136.548C57.733 136.785 57.7858 136.95 57.8912 137.042C57.9966 137.134 58.158 137.181 58.3754 137.181H59.1265V137.912H58.2963ZM56.1321 133.406V132.674H59.1265V133.406H56.1321ZM62.1403 138.03C61.6462 138.03 61.218 137.918 60.8556 137.694C60.4999 137.47 60.2232 137.154 60.0255 136.746C59.8345 136.331 59.7389 135.846 59.7389 135.293C59.7389 134.74 59.8345 134.259 60.0255 133.85C60.2232 133.442 60.4966 133.126 60.8458 132.902C61.2015 132.671 61.6199 132.556 62.1008 132.556C62.5554 132.556 62.9573 132.664 63.3065 132.882C63.6556 133.093 63.9258 133.402 64.1168 133.811C64.3145 134.219 64.4133 134.717 64.4133 135.303V135.55H60.6086C60.6415 136.11 60.7898 136.532 61.0533 136.815C61.3234 137.098 61.6858 137.24 62.1403 137.24C62.4829 137.24 62.7629 137.161 62.9803 137.003C63.2043 136.838 63.3592 136.624 63.4448 136.36L64.3342 136.43C64.1959 136.897 63.9323 137.283 63.5436 137.586C63.1615 137.882 62.6938 138.03 62.1403 138.03ZM60.6086 134.819H63.5041C63.4646 134.311 63.3163 133.939 63.0594 133.702C62.8091 133.465 62.4895 133.346 62.1008 133.346C61.6989 133.346 61.3662 133.471 61.1027 133.722C60.8458 133.966 60.6811 134.331 60.6086 134.819ZM68.2234 137.912V130.895H69.429L72.8978 137.062V130.895H73.7476V137.912H72.4827L69.0733 131.864V137.912H68.2234ZM77.3982 138.03C76.904 138.03 76.4758 137.918 76.1135 137.694C75.7577 137.47 75.481 137.154 75.2833 136.746C75.0923 136.331 74.9967 135.846 74.9967 135.293C74.9967 134.74 75.0923 134.259 75.2833 133.85C75.481 133.442 75.7544 133.126 76.1036 132.902C76.4593 132.671 76.8777 132.556 77.3586 132.556C77.8132 132.556 78.2151 132.664 78.5643 132.882C78.9135 133.093 79.1836 133.402 79.3746 133.811C79.5723 134.219 79.6711 134.717 79.6711 135.303V135.55H75.8664C75.8993 136.11 76.0476 136.532 76.3111 136.815C76.5812 137.098 76.9436 137.24 77.3982 137.24C77.7407 137.24 78.0207 137.161 78.2382 137.003C78.4622 136.838 78.617 136.624 78.7026 136.36L79.592 136.43C79.4537 136.897 79.1902 137.283 78.8015 137.586C78.4193 137.882 77.9516 138.03 77.3982 138.03ZM75.8664 134.819H78.7619C78.7224 134.311 78.5742 133.939 78.3172 133.702C78.0669 133.465 77.7473 133.346 77.3586 133.346C76.9567 133.346 76.624 133.471 76.3605 133.722C76.1036 133.966 75.9389 134.331 75.8664 134.819ZM81.6886 137.912L80.0679 132.674H80.9771L82.2025 137.042L83.4477 132.674H84.3371L85.5823 137.042L86.8176 132.674H87.7268L86.1061 137.912H85.0585L83.8924 133.929L82.7263 137.912H81.6886ZM91.3273 137.912V130.895H93.8473C94.6313 130.895 95.2407 131.083 95.6755 131.459C96.1103 131.834 96.3277 132.355 96.3277 133.02C96.3277 133.468 96.2289 133.857 96.0313 134.186C95.8336 134.509 95.5503 134.756 95.1814 134.927C94.8124 135.099 94.3677 135.184 93.8473 135.184H92.1771V137.912H91.3273ZM92.1771 134.354H93.8473C94.3743 134.354 94.7696 134.242 95.0331 134.018C95.3033 133.794 95.4383 133.462 95.4383 133.02C95.4383 132.592 95.3033 132.269 95.0331 132.052C94.7696 131.834 94.3743 131.726 93.8473 131.726H92.1771V134.354ZM97.5396 137.912V132.674H98.2708L98.3104 133.998L98.2313 133.969C98.2972 133.521 98.4388 133.195 98.6563 132.99C98.8803 132.78 99.1767 132.674 99.5457 132.674H100.06V133.465H99.5556C99.292 133.465 99.0713 133.514 98.8934 133.613C98.7221 133.705 98.5904 133.847 98.4981 134.038C98.4125 134.222 98.3697 134.46 98.3697 134.75V137.912H97.5396ZM102.934 138.03C102.453 138.03 102.031 137.918 101.669 137.694C101.307 137.47 101.027 137.154 100.829 136.746C100.631 136.331 100.533 135.846 100.533 135.293C100.533 134.733 100.631 134.249 100.829 133.84C101.027 133.432 101.307 133.116 101.669 132.892C102.031 132.668 102.453 132.556 102.934 132.556C103.415 132.556 103.833 132.668 104.189 132.892C104.551 133.116 104.831 133.432 105.029 133.84C105.227 134.249 105.326 134.733 105.326 135.293C105.326 135.846 105.227 136.331 105.029 136.746C104.831 137.154 104.551 137.47 104.189 137.694C103.833 137.918 103.415 138.03 102.934 138.03ZM102.934 137.24C103.415 137.24 103.787 137.069 104.051 136.726C104.321 136.377 104.456 135.899 104.456 135.293C104.456 134.687 104.321 134.213 104.051 133.87C103.787 133.521 103.415 133.346 102.934 133.346C102.453 133.346 102.078 133.521 101.807 133.87C101.537 134.213 101.402 134.687 101.402 135.293C101.402 135.899 101.537 136.377 101.807 136.726C102.078 137.069 102.453 137.24 102.934 137.24ZM105.617 139.394V138.663H106.042C106.213 138.663 106.351 138.62 106.457 138.534C106.562 138.455 106.615 138.307 106.615 138.09V132.674H107.445V138.129C107.445 138.59 107.343 138.917 107.139 139.108C106.934 139.299 106.595 139.394 106.121 139.394H105.617ZM106.595 131.854V130.886H107.465V131.854H106.595ZM110.973 138.03C110.479 138.03 110.051 137.918 109.688 137.694C109.333 137.47 109.056 137.154 108.858 136.746C108.667 136.331 108.572 135.846 108.572 135.293C108.572 134.74 108.667 134.259 108.858 133.85C109.056 133.442 109.329 133.126 109.678 132.902C110.034 132.671 110.453 132.556 110.934 132.556C111.388 132.556 111.79 132.664 112.139 132.882C112.488 133.093 112.758 133.402 112.95 133.811C113.147 134.219 113.246 134.717 113.246 135.303V135.55H109.441C109.474 136.11 109.622 136.532 109.886 136.815C110.156 137.098 110.518 137.24 110.973 137.24C111.316 137.24 111.596 137.161 111.813 137.003C112.037 136.838 112.192 136.624 112.278 136.36L113.167 136.43C113.029 136.897 112.765 137.283 112.376 137.586C111.994 137.882 111.526 138.03 110.973 138.03ZM109.441 134.819H112.337C112.297 134.311 112.149 133.939 111.892 133.702C111.642 133.465 111.322 133.346 110.934 133.346C110.532 133.346 110.199 133.471 109.935 133.722C109.678 133.966 109.514 134.331 109.441 134.819ZM116.416 138.03C115.929 138.03 115.504 137.918 115.141 137.694C114.785 137.47 114.509 137.154 114.311 136.746C114.113 136.331 114.015 135.846 114.015 135.293C114.015 134.74 114.113 134.259 114.311 133.85C114.509 133.442 114.785 133.126 115.141 132.902C115.504 132.671 115.929 132.556 116.416 132.556C116.818 132.556 117.174 132.628 117.483 132.773C117.8 132.911 118.057 133.116 118.254 133.386C118.452 133.656 118.58 133.985 118.64 134.374L117.77 134.433C117.711 134.084 117.559 133.817 117.315 133.633C117.072 133.442 116.772 133.346 116.416 133.346C115.935 133.346 115.56 133.521 115.289 133.87C115.019 134.213 114.884 134.687 114.884 135.293C114.884 135.899 115.019 136.377 115.289 136.726C115.56 137.069 115.935 137.24 116.416 137.24C116.772 137.24 117.072 137.141 117.315 136.943C117.559 136.746 117.711 136.449 117.77 136.054L118.64 136.113C118.58 136.502 118.452 136.841 118.254 137.131C118.057 137.414 117.8 137.635 117.483 137.793C117.174 137.951 116.818 138.03 116.416 138.03ZM121.383 137.912C120.909 137.912 120.556 137.803 120.326 137.586C120.102 137.368 119.99 137.029 119.99 136.568V131.449H120.82V136.548C120.82 136.785 120.873 136.95 120.978 137.042C121.083 137.134 121.245 137.181 121.462 137.181H122.213V137.912H121.383ZM119.219 133.406V132.674H122.213V133.406H119.219Z" fill="#C9C9C9"/>
</g>
<rect x="5.41176" y="1.41176" width="223.176" height="147.412" rx="6.17647" stroke="#2F2F2F" stroke-width="0.823529"/>
</g>
<defs>
<filter id="filter0_d_1092_618" x="0.882353" y="0.176471" width="232.235" height="156.471" filterUnits="userSpaceOnUse" color-interpolation-filters="sRGB">
<feFlood flood-opacity="0" result="BackgroundImageFix"/>
<feColorMatrix in="SourceAlpha" type="matrix" values="0 0 0 0 0 0 0 0 0 0 0 0 0 0 0 0 0 0 127 0" result="hardAlpha"/>
<feMorphology radius="0.823529" operator="dilate" in="SourceAlpha" result="effect1_dropShadow_1092_618"/>
<feOffset dy="3.29412"/>
<feGaussianBlur stdDeviation="1.64706"/>
<feComposite in2="hardAlpha" operator="out"/>
<feColorMatrix type="matrix" values="0 0 0 0 0 0 0 0 0 0 0 0 0 0 0 0 0 0 0.25 0"/>
<feBlend mode="normal" in2="BackgroundImageFix" result="effect1_dropShadow_1092_618"/>
<feBlend mode="normal" in="SourceGraphic" in2="effect1_dropShadow_1092_618" result="shape"/>
</filter>
<clipPath id="clip0_1092_618">
<rect x="5" y="1" width="224" height="148.235" rx="6.58824" fill="white"/>
</clipPath>
<clipPath id="clip1_1092_618">
<rect width="9.88235" height="9.88235" fill="white" transform="translate(14.8828 15.8235)"/>
</clipPath>
<clipPath id="clip2_1092_618">
<rect width="9.88235" height="9.88235" fill="white" transform="translate(14.8828 55.353)"/>
</clipPath>
<clipPath id="clip3_1092_618">
<rect width="13.1765" height="13.1765" fill="white" transform="translate(164.648 53.7058)"/>
</clipPath>
<clipPath id="clip4_1092_618">
<rect width="9.88235" height="9.88235" fill="white" transform="translate(14.8828 94.8823)"/>
</clipPath>
<clipPath id="clip5_1092_618">
<rect width="13.1765" height="13.1765" fill="white" transform="translate(164.648 93.2354)"/>
</clipPath>
</defs>
</svg>
