<svg width="207" height="30" viewBox="0 0 207 30" fill="none" xmlns="http://www.w3.org/2000/svg">
<rect width="207" height="30" rx="5.02908" fill="white"/>
<path d="M33.868 18.5V11.3587H35.1756V18.0977L34.4615 17.3634H38.5652V18.5H33.868ZM41.6703 18.6207C41.1405 18.6207 40.6745 18.5067 40.2722 18.2787C39.8766 18.044 39.5681 17.7155 39.3468 17.293C39.1322 16.8706 39.025 16.3777 39.025 15.8145C39.025 15.2445 39.1322 14.7517 39.3468 14.3359C39.5681 13.9135 39.8766 13.5883 40.2722 13.3603C40.6745 13.1256 41.1405 13.0082 41.6703 13.0082C42.2 13.0082 42.6627 13.1256 43.0583 13.3603C43.4539 13.5883 43.759 13.9135 43.9736 14.3359C44.1949 14.7517 44.3055 15.2445 44.3055 15.8145C44.3055 16.3777 44.1949 16.8706 43.9736 17.293C43.759 17.7155 43.4539 18.044 43.0583 18.2787C42.6627 18.5067 42.2 18.6207 41.6703 18.6207ZM41.6703 17.5746C42.086 17.5746 42.4045 17.4204 42.6258 17.112C42.8538 16.8035 42.9678 16.371 42.9678 15.8145C42.9678 15.2646 42.8538 14.8355 42.6258 14.527C42.4045 14.2119 42.086 14.0543 41.6703 14.0543C41.2545 14.0543 40.9327 14.2119 40.7047 14.527C40.4767 14.8355 40.3627 15.2646 40.3627 15.8145C40.3627 16.371 40.4767 16.8035 40.7047 17.112C40.9327 17.4204 41.2545 17.5746 41.6703 17.5746ZM47.5922 20.1294C47.1229 20.1294 46.7205 20.0657 46.3853 19.9383C46.05 19.8109 45.7784 19.6299 45.5705 19.3952C45.3694 19.1672 45.2286 18.9023 45.1481 18.6006L46.4758 18.5101C46.5428 18.7112 46.6568 18.8688 46.8178 18.9828C46.9854 19.0968 47.2436 19.1538 47.5922 19.1538C47.9879 19.1538 48.293 19.0633 48.5075 18.8822C48.7221 18.7079 48.8294 18.4329 48.8294 18.0574V17.3735C48.702 17.635 48.4975 17.8462 48.2158 18.0071C47.9342 18.1614 47.6191 18.2385 47.2704 18.2385C46.8278 18.2385 46.4322 18.1312 46.0835 17.9166C45.7415 17.6953 45.4733 17.3902 45.2789 17.0013C45.0844 16.6057 44.9872 16.1497 44.9872 15.6334C44.9872 15.1171 45.0811 14.6645 45.2688 14.2756C45.4633 13.8799 45.7315 13.5715 46.0735 13.3502C46.4154 13.1222 46.8077 13.0082 47.2503 13.0082C47.6392 13.0082 47.9744 13.0954 48.2561 13.2698C48.5377 13.4441 48.7422 13.6754 48.8696 13.9638V13.1289H50.1269V18.0273C50.1269 18.4832 50.0196 18.8688 49.805 19.184C49.5972 19.4991 49.3021 19.7338 48.9199 19.888C48.5444 20.049 48.1019 20.1294 47.5922 20.1294ZM47.5721 17.2327C47.9543 17.2327 48.2594 17.0919 48.4874 16.8102C48.7154 16.5219 48.8327 16.1263 48.8395 15.6234C48.8462 15.2881 48.7959 15.0031 48.6886 14.7684C48.588 14.527 48.4405 14.3426 48.246 14.2152C48.0583 14.0811 47.8336 14.0141 47.5721 14.0141C47.1765 14.0141 46.8681 14.1616 46.6468 14.4566C46.4322 14.745 46.3249 15.1339 46.3249 15.6234C46.3249 16.1129 46.4356 16.5051 46.6568 16.8002C46.8848 17.0885 47.1899 17.2327 47.5721 17.2327ZM51.438 18.5V13.1289H52.7254V18.5H51.438ZM51.4179 12.4148V11.2682H52.7556V12.4148H51.4179ZM54.2177 18.5V13.1289H55.3845L55.4348 14.6377L55.2839 14.5773C55.3376 14.2018 55.4482 13.9001 55.6158 13.6721C55.7835 13.4441 55.988 13.2765 56.2294 13.1692C56.4708 13.0619 56.7356 13.0082 57.024 13.0082C57.4196 13.0082 57.7515 13.0954 58.0197 13.2698C58.2947 13.4441 58.5025 13.6855 58.6433 13.9939C58.7841 14.2957 58.8546 14.6477 58.8546 15.05V18.5H57.5671V15.4624C57.5671 15.1607 57.5369 14.9059 57.4766 14.698C57.4162 14.4901 57.3157 14.3326 57.1748 14.2253C57.0407 14.1113 56.8597 14.0543 56.6317 14.0543C56.2897 14.0543 56.0148 14.175 55.8069 14.4164C55.6058 14.6578 55.5052 15.0065 55.5052 15.4624V18.5H54.2177ZM62.6356 18.5V13.1289H63.923V18.5H62.6356ZM62.6154 12.4148V11.2682H63.9532V12.4148H62.6154ZM65.4153 18.5V13.1289H66.5821L66.6323 14.6377L66.4815 14.5773C66.5351 14.2018 66.6458 13.9001 66.8134 13.6721C66.981 13.4441 67.1855 13.2765 67.4269 13.1692C67.6683 13.0619 67.9332 13.0082 68.2215 13.0082C68.6172 13.0082 68.9491 13.0954 69.2173 13.2698C69.4922 13.4441 69.7001 13.6855 69.8409 13.9939C69.9817 14.2957 70.0521 14.6477 70.0521 15.05V18.5H68.7647V15.4624C68.7647 15.1607 68.7345 14.9059 68.6742 14.698C68.6138 14.4901 68.5132 14.3326 68.3724 14.2253C68.2383 14.1113 68.0573 14.0543 67.8293 14.0543C67.4873 14.0543 67.2124 14.175 67.0045 14.4164C66.8033 14.6578 66.7028 15.0065 66.7028 15.4624V18.5H65.4153ZM74.9596 18.5L73.3403 13.1289H74.6579L75.7039 17.0416L76.7802 13.1289H77.9067L78.993 17.0416L80.039 13.1289H81.3566L79.7373 18.5H78.4096L77.3434 14.8992L76.2873 18.5H74.9596ZM82.1724 18.5V13.1289H83.4598V18.5H82.1724ZM82.1523 12.4148V11.2682H83.49V12.4148H82.1523ZM86.692 18.5C86.1556 18.5 85.76 18.3759 85.5052 18.1278C85.2571 17.8797 85.133 17.4908 85.133 16.9611V11.8717H86.4204V16.8404C86.4204 17.0885 86.4741 17.2628 86.5814 17.3634C86.6887 17.4573 86.8563 17.5042 87.0843 17.5042H87.8386V18.5H86.692ZM84.2881 14.1247V13.1289H87.8386V14.1247H84.2881ZM88.7829 18.5V11.3587H90.0703V14.356H89.9094C89.963 14.0476 90.0703 13.7961 90.2312 13.6017C90.3922 13.4005 90.59 13.253 90.8247 13.1591C91.0594 13.0585 91.3175 13.0082 91.5991 13.0082C91.9948 13.0082 92.3267 13.0954 92.5949 13.2698C92.8698 13.4374 93.0743 13.6754 93.2085 13.9839C93.3493 14.2923 93.4197 14.6477 93.4197 15.05V18.5H92.1322V15.3619C92.1322 14.926 92.0585 14.6008 91.9109 14.3862C91.7634 14.1649 91.5321 14.0543 91.2169 14.0543C90.8683 14.0543 90.59 14.1683 90.3821 14.3963C90.1742 14.6243 90.0703 14.9562 90.0703 15.392V18.5H88.7829Z" fill="#0F0F0F"/>
<path d="M99.7957 19.7271C99.1922 19.7271 98.7228 19.5528 98.3875 19.2041C98.0523 18.8621 97.8846 18.4195 97.8846 17.8764V17.0416C97.8846 16.7599 97.8478 16.532 97.774 16.3576C97.7069 16.1766 97.603 16.0458 97.4622 15.9653C97.3214 15.8849 97.1437 15.8446 96.9291 15.8446V14.7785C97.1437 14.7785 97.3214 14.7382 97.4622 14.6578C97.603 14.5773 97.7069 14.4499 97.774 14.2756C97.8478 14.0945 97.8846 13.8632 97.8846 13.5816V12.7467C97.8846 12.2036 98.0523 11.761 98.3875 11.4191C98.7228 11.0704 99.1922 10.896 99.7957 10.896H100.399V12.0225C99.9499 12.0091 99.6213 12.0728 99.4135 12.2136C99.2123 12.3478 99.1117 12.5724 99.1117 12.8875V13.6721C99.1117 14.1482 98.9977 14.5237 98.7698 14.7986C98.5418 15.0668 98.2702 15.2277 97.955 15.2814V15.3216C98.2702 15.3753 98.5418 15.5395 98.7698 15.8145C98.9977 16.0894 99.1117 16.4683 99.1117 16.951V17.7255C99.1117 18.0541 99.2123 18.2888 99.4135 18.4296C99.6213 18.5704 99.9499 18.6341 100.399 18.6207V19.7271H99.7957ZM102.958 18.5V15.6837L100.463 11.3587H101.932L103.621 14.3963L105.301 11.3587H106.77L104.275 15.6837V18.5H102.958ZM109.032 18.6207C108.503 18.6207 108.037 18.5067 107.634 18.2787C107.239 18.044 106.93 17.7155 106.709 17.293C106.494 16.8706 106.387 16.3777 106.387 15.8145C106.387 15.2445 106.494 14.7517 106.709 14.3359C106.93 13.9135 107.239 13.5883 107.634 13.3603C108.037 13.1256 108.503 13.0082 109.032 13.0082C109.562 13.0082 110.025 13.1256 110.42 13.3603C110.816 13.5883 111.121 13.9135 111.336 14.3359C111.557 14.7517 111.668 15.2445 111.668 15.8145C111.668 16.3777 111.557 16.8706 111.336 17.293C111.121 17.7155 110.816 18.044 110.42 18.2787C110.025 18.5067 109.562 18.6207 109.032 18.6207ZM109.032 17.5746C109.448 17.5746 109.767 17.4204 109.988 17.112C110.216 16.8035 110.33 16.371 110.33 15.8145C110.33 15.2646 110.216 14.8355 109.988 14.527C109.767 14.2119 109.448 14.0543 109.032 14.0543C108.617 14.0543 108.295 14.2119 108.067 14.527C107.839 14.8355 107.725 15.2646 107.725 15.8145C107.725 16.371 107.839 16.8035 108.067 17.112C108.295 17.4204 108.617 17.5746 109.032 17.5746ZM114.431 18.6207C113.888 18.6207 113.456 18.443 113.134 18.0876C112.819 17.7255 112.661 17.226 112.661 16.5889V13.1289H113.949V16.2671C113.949 16.7164 114.022 17.0483 114.17 17.2628C114.324 17.4707 114.555 17.5746 114.864 17.5746C115.213 17.5746 115.481 17.4607 115.669 17.2327C115.863 16.998 115.96 16.6594 115.96 16.2168V13.1289H117.248V18.5H116.071L116.041 17.0214L116.202 17.0717C116.121 17.5814 115.93 17.9669 115.628 18.2284C115.327 18.4899 114.928 18.6207 114.431 18.6207ZM118.663 18.5V13.1289H119.87L119.92 14.6175L119.809 14.5974C119.89 14.0811 120.041 13.709 120.262 13.481C120.49 13.2463 120.798 13.1289 121.187 13.1289H121.68V14.2353H121.177C120.902 14.2353 120.674 14.2756 120.493 14.356C120.312 14.4365 120.175 14.5639 120.081 14.7382C119.994 14.9059 119.95 15.1272 119.95 15.4021V18.5H118.663ZM128.193 18.6609C127.542 18.6609 126.969 18.5134 126.473 18.2184C125.977 17.9166 125.588 17.4908 125.306 16.941C125.025 16.3844 124.884 15.7172 124.884 14.9394C124.884 14.175 125.021 13.5145 125.296 12.958C125.571 12.3947 125.957 11.9622 126.453 11.6604C126.949 11.352 127.532 11.1978 128.203 11.1978C129.115 11.1978 129.822 11.4258 130.325 11.8817C130.828 12.331 131.157 12.9613 131.311 13.7727L129.943 13.8431C129.856 13.3737 129.668 13.0049 129.38 12.7367C129.091 12.4685 128.699 12.3343 128.203 12.3343C127.801 12.3343 127.452 12.4416 127.157 12.6562C126.862 12.8708 126.634 13.1725 126.473 13.5614C126.312 13.9504 126.232 14.4097 126.232 14.9394C126.232 15.4758 126.312 15.9385 126.473 16.3274C126.641 16.7096 126.872 17.0047 127.167 17.2126C127.462 17.4204 127.804 17.5244 128.193 17.5244C128.723 17.5244 129.132 17.3802 129.42 17.0919C129.715 16.7968 129.903 16.3945 129.983 15.8849L131.351 15.9553C131.257 16.5118 131.076 16.9946 130.808 17.4037C130.54 17.806 130.184 18.1178 129.742 18.3391C129.306 18.5536 128.79 18.6609 128.193 18.6609ZM134.679 18.6207C134.149 18.6207 133.683 18.5067 133.281 18.2787C132.885 18.044 132.577 17.7155 132.355 17.293C132.141 16.8706 132.034 16.3777 132.034 15.8145C132.034 15.2445 132.141 14.7517 132.355 14.3359C132.577 13.9135 132.885 13.5883 133.281 13.3603C133.683 13.1256 134.149 13.0082 134.679 13.0082C135.209 13.0082 135.671 13.1256 136.067 13.3603C136.462 13.5883 136.768 13.9135 136.982 14.3359C137.203 14.7517 137.314 15.2445 137.314 15.8145C137.314 16.3777 137.203 16.8706 136.982 17.293C136.768 17.7155 136.462 18.044 136.067 18.2787C135.671 18.5067 135.209 18.6207 134.679 18.6207ZM134.679 17.5746C135.095 17.5746 135.413 17.4204 135.634 17.112C135.862 16.8035 135.976 16.371 135.976 15.8145C135.976 15.2646 135.862 14.8355 135.634 14.527C135.413 14.2119 135.095 14.0543 134.679 14.0543C134.263 14.0543 133.941 14.2119 133.713 14.527C133.485 14.8355 133.371 15.2646 133.371 15.8145C133.371 16.371 133.485 16.8035 133.713 17.112C133.941 17.4204 134.263 17.5746 134.679 17.5746ZM138.308 18.5V13.1289H139.474L139.515 14.4466L139.394 14.3862C139.454 14.0979 139.558 13.8531 139.706 13.652C139.86 13.4441 140.044 13.2865 140.259 13.1792C140.48 13.0652 140.721 13.0082 140.983 13.0082C141.439 13.0082 141.808 13.139 142.089 13.4005C142.371 13.6553 142.549 14.0074 142.622 14.4566H142.451C142.512 14.1415 142.616 13.8799 142.763 13.6721C142.911 13.4575 143.095 13.2932 143.316 13.1792C143.544 13.0652 143.799 13.0082 144.081 13.0082C144.45 13.0082 144.768 13.0887 145.036 13.2496C145.305 13.4039 145.509 13.6318 145.65 13.9336C145.798 14.2353 145.871 14.6075 145.871 15.05V18.5H144.584V15.382C144.584 14.9394 144.507 14.6075 144.352 14.3862C144.205 14.1649 143.977 14.0543 143.669 14.0543C143.461 14.0543 143.283 14.1079 143.135 14.2152C142.988 14.3225 142.874 14.4801 142.793 14.688C142.72 14.8891 142.683 15.1339 142.683 15.4222V18.5H141.486V15.4222C141.486 14.9796 141.419 14.641 141.285 14.4063C141.151 14.1716 140.919 14.0543 140.591 14.0543C140.383 14.0543 140.205 14.1079 140.058 14.2152C139.917 14.3225 139.803 14.4801 139.716 14.688C139.635 14.8891 139.595 15.1339 139.595 15.4222V18.5H138.308ZM147.108 20.0087V13.1289H148.346L148.376 14.2756L148.245 14.2152C148.379 13.8196 148.597 13.5212 148.899 13.32C149.207 13.1122 149.566 13.0082 149.975 13.0082C150.485 13.0082 150.907 13.1356 151.242 13.3905C151.584 13.6453 151.839 13.9839 152.007 14.4063C152.174 14.8288 152.258 15.2982 152.258 15.8145C152.258 16.3308 152.171 16.8002 151.997 17.2226C151.829 17.6451 151.574 17.9837 151.232 18.2385C150.897 18.4933 150.475 18.6207 149.965 18.6207C149.697 18.6207 149.445 18.5738 149.211 18.4799C148.983 18.386 148.785 18.2519 148.617 18.0776C148.456 17.9032 148.342 17.6987 148.275 17.464L148.396 17.3634V20.0087H147.108ZM149.663 17.5746C150.052 17.5746 150.357 17.4204 150.578 17.112C150.806 16.7968 150.92 16.3643 150.92 15.8145C150.92 15.2646 150.806 14.8355 150.578 14.527C150.357 14.2119 150.052 14.0543 149.663 14.0543C149.402 14.0543 149.177 14.1213 148.989 14.2555C148.802 14.3829 148.654 14.5773 148.547 14.8388C148.446 15.1003 148.396 15.4256 148.396 15.8145C148.396 16.2034 148.446 16.5286 148.547 16.7901C148.647 17.0516 148.791 17.2494 148.979 17.3835C149.174 17.5109 149.402 17.5746 149.663 17.5746ZM154.895 18.6207C154.332 18.6207 153.879 18.4933 153.537 18.2385C153.195 17.977 153.024 17.6149 153.024 17.1522C153.024 16.6895 153.168 16.3274 153.457 16.0659C153.745 15.8044 154.184 15.6167 154.774 15.5027L156.554 15.1506C156.554 14.7684 156.467 14.4834 156.293 14.2957C156.119 14.1012 155.86 14.004 155.518 14.004C155.21 14.004 154.965 14.0778 154.784 14.2253C154.61 14.3661 154.489 14.5706 154.422 14.8388L153.115 14.7785C153.222 14.2085 153.483 13.7727 153.899 13.4709C154.315 13.1625 154.855 13.0082 155.518 13.0082C156.283 13.0082 156.86 13.2027 157.248 13.5916C157.644 13.9738 157.842 14.5237 157.842 15.2412V17.1924C157.842 17.3333 157.865 17.4305 157.912 17.4841C157.966 17.5378 158.043 17.5646 158.144 17.5646H158.315V18.5C158.274 18.5134 158.207 18.5235 158.113 18.5302C158.026 18.5369 157.936 18.5402 157.842 18.5402C157.621 18.5402 157.423 18.5067 157.248 18.4397C157.074 18.3659 156.94 18.2418 156.846 18.0675C156.752 17.8865 156.705 17.6417 156.705 17.3333L156.816 17.4137C156.762 17.6484 156.645 17.8596 156.464 18.0474C156.29 18.2284 156.068 18.3692 155.8 18.4698C155.532 18.5704 155.23 18.6207 154.895 18.6207ZM155.156 17.6853C155.445 17.6853 155.693 17.6283 155.901 17.5143C156.109 17.4003 156.269 17.2427 156.383 17.0416C156.497 16.8404 156.554 16.6024 156.554 16.3274V16.0257L155.166 16.3073C154.878 16.3677 154.67 16.4582 154.543 16.5789C154.422 16.6929 154.362 16.8438 154.362 17.0315C154.362 17.2394 154.429 17.4003 154.563 17.5143C154.704 17.6283 154.902 17.6853 155.156 17.6853ZM159.151 18.5V13.1289H160.317L160.368 14.6377L160.217 14.5773C160.271 14.2018 160.381 13.9001 160.549 13.6721C160.716 13.4441 160.921 13.2765 161.162 13.1692C161.404 13.0619 161.669 13.0082 161.957 13.0082C162.353 13.0082 162.684 13.0954 162.953 13.2698C163.228 13.4441 163.435 13.6855 163.576 13.9939C163.717 14.2957 163.788 14.6477 163.788 15.05V18.5H162.5V15.4624C162.5 15.1607 162.47 14.9059 162.41 14.698C162.349 14.4901 162.249 14.3326 162.108 14.2253C161.974 14.1113 161.793 14.0543 161.565 14.0543C161.223 14.0543 160.948 14.175 160.74 14.4164C160.539 14.6578 160.438 15.0065 160.438 15.4624V18.5H159.151ZM165.25 20.0087V19.013H165.934C166.108 19.013 166.235 18.9861 166.316 18.9325C166.403 18.8789 166.47 18.7883 166.517 18.6609L166.668 18.2888H166.296L164.375 13.1289H165.712L167.06 17.0818L168.347 13.1289H169.685L167.583 19.0633C167.462 19.3985 167.291 19.6399 167.07 19.7874C166.856 19.935 166.554 20.0087 166.165 20.0087H165.25ZM170.634 19.7271H170.03V18.6207C170.486 18.6341 170.815 18.5704 171.016 18.4296C171.224 18.2888 171.328 18.0541 171.328 17.7255V16.951C171.328 16.4683 171.438 16.0894 171.66 15.8145C171.888 15.5395 172.159 15.3753 172.474 15.3216V15.2814C172.166 15.2277 171.898 15.0668 171.67 14.7986C171.442 14.5237 171.328 14.1482 171.328 13.6721V12.8875C171.328 12.5724 171.224 12.3478 171.016 12.2136C170.815 12.0728 170.486 12.0091 170.03 12.0225V10.896H170.634C171.244 10.896 171.717 11.0704 172.052 11.4191C172.387 11.761 172.555 12.2036 172.555 12.7467V13.5816C172.555 13.8632 172.588 14.0945 172.656 14.2756C172.729 14.4499 172.837 14.5773 172.977 14.6578C173.118 14.7382 173.293 14.7785 173.5 14.7785V15.8446C173.293 15.8446 173.118 15.8849 172.977 15.9653C172.837 16.0458 172.729 16.1766 172.656 16.3576C172.588 16.532 172.555 16.7599 172.555 17.0416V17.8764C172.555 18.4195 172.387 18.8621 172.052 19.2041C171.717 19.5528 171.244 19.7271 170.634 19.7271Z" fill="#0F0F0F"/>
<g clip-path="url(#paint0_diamond_1094_1247_clip_path)" data-figma-skip-parse="true"><g transform="matrix(0.140482 -0.00200261 -0.241975 0.0462879 35.7215 11.2493)"><rect x="0" y="0" width="1505.85" height="300.185" fill="url(#paint0_diamond_1094_1247)" opacity="1" shape-rendering="crispEdges"/><rect x="0" y="0" width="1505.85" height="300.185" transform="scale(1 -1)" fill="url(#paint0_diamond_1094_1247)" opacity="1" shape-rendering="crispEdges"/><rect x="0" y="0" width="1505.85" height="300.185" transform="scale(-1 1)" fill="url(#paint0_diamond_1094_1247)" opacity="1" shape-rendering="crispEdges"/><rect x="0" y="0" width="1505.85" height="300.185" transform="scale(-1)" fill="url(#paint0_diamond_1094_1247)" opacity="1" shape-rendering="crispEdges"/></g></g><path d="M99.7957 19.7271C99.1922 19.7271 98.7228 19.5528 98.3875 19.2041C98.0523 18.8621 97.8846 18.4195 97.8846 17.8764V17.0416C97.8846 16.7599 97.8478 16.532 97.774 16.3576C97.7069 16.1766 97.603 16.0458 97.4622 15.9653C97.3214 15.8849 97.1437 15.8446 96.9291 15.8446V14.7785C97.1437 14.7785 97.3214 14.7382 97.4622 14.6578C97.603 14.5773 97.7069 14.4499 97.774 14.2756C97.8478 14.0945 97.8846 13.8632 97.8846 13.5816V12.7467C97.8846 12.2036 98.0523 11.761 98.3875 11.4191C98.7228 11.0704 99.1922 10.896 99.7957 10.896H100.399V12.0225C99.9499 12.0091 99.6213 12.0728 99.4135 12.2136C99.2123 12.3478 99.1117 12.5724 99.1117 12.8875V13.6721C99.1117 14.1482 98.9977 14.5237 98.7698 14.7986C98.5418 15.0668 98.2702 15.2277 97.955 15.2814V15.3216C98.2702 15.3753 98.5418 15.5395 98.7698 15.8145C98.9977 16.0894 99.1117 16.4683 99.1117 16.951V17.7255C99.1117 18.0541 99.2123 18.2888 99.4135 18.4296C99.6213 18.5704 99.9499 18.6341 100.399 18.6207V19.7271H99.7957ZM102.958 18.5V15.6837L100.463 11.3587H101.932L103.621 14.3963L105.301 11.3587H106.77L104.275 15.6837V18.5H102.958ZM109.032 18.6207C108.503 18.6207 108.037 18.5067 107.634 18.2787C107.239 18.044 106.93 17.7155 106.709 17.293C106.494 16.8706 106.387 16.3777 106.387 15.8145C106.387 15.2445 106.494 14.7517 106.709 14.3359C106.93 13.9135 107.239 13.5883 107.634 13.3603C108.037 13.1256 108.503 13.0082 109.032 13.0082C109.562 13.0082 110.025 13.1256 110.42 13.3603C110.816 13.5883 111.121 13.9135 111.336 14.3359C111.557 14.7517 111.668 15.2445 111.668 15.8145C111.668 16.3777 111.557 16.8706 111.336 17.293C111.121 17.7155 110.816 18.044 110.42 18.2787C110.025 18.5067 109.562 18.6207 109.032 18.6207ZM109.032 17.5746C109.448 17.5746 109.767 17.4204 109.988 17.112C110.216 16.8035 110.33 16.371 110.33 15.8145C110.33 15.2646 110.216 14.8355 109.988 14.527C109.767 14.2119 109.448 14.0543 109.032 14.0543C108.617 14.0543 108.295 14.2119 108.067 14.527C107.839 14.8355 107.725 15.2646 107.725 15.8145C107.725 16.371 107.839 16.8035 108.067 17.112C108.295 17.4204 108.617 17.5746 109.032 17.5746ZM114.431 18.6207C113.888 18.6207 113.456 18.443 113.134 18.0876C112.819 17.7255 112.661 17.226 112.661 16.5889V13.1289H113.949V16.2671C113.949 16.7164 114.022 17.0483 114.17 17.2628C114.324 17.4707 114.555 17.5746 114.864 17.5746C115.213 17.5746 115.481 17.4607 115.669 17.2327C115.863 16.998 115.96 16.6594 115.96 16.2168V13.1289H117.248V18.5H116.071L116.041 17.0214L116.202 17.0717C116.121 17.5814 115.93 17.9669 115.628 18.2284C115.327 18.4899 114.928 18.6207 114.431 18.6207ZM118.663 18.5V13.1289H119.87L119.92 14.6175L119.809 14.5974C119.89 14.0811 120.041 13.709 120.262 13.481C120.49 13.2463 120.798 13.1289 121.187 13.1289H121.68V14.2353H121.177C120.902 14.2353 120.674 14.2756 120.493 14.356C120.312 14.4365 120.175 14.5639 120.081 14.7382C119.994 14.9059 119.95 15.1272 119.95 15.4021V18.5H118.663ZM128.193 18.6609C127.542 18.6609 126.969 18.5134 126.473 18.2184C125.977 17.9166 125.588 17.4908 125.306 16.941C125.025 16.3844 124.884 15.7172 124.884 14.9394C124.884 14.175 125.021 13.5145 125.296 12.958C125.571 12.3947 125.957 11.9622 126.453 11.6604C126.949 11.352 127.532 11.1978 128.203 11.1978C129.115 11.1978 129.822 11.4258 130.325 11.8817C130.828 12.331 131.157 12.9613 131.311 13.7727L129.943 13.8431C129.856 13.3737 129.668 13.0049 129.38 12.7367C129.091 12.4685 128.699 12.3343 128.203 12.3343C127.801 12.3343 127.452 12.4416 127.157 12.6562C126.862 12.8708 126.634 13.1725 126.473 13.5614C126.312 13.9504 126.232 14.4097 126.232 14.9394C126.232 15.4758 126.312 15.9385 126.473 16.3274C126.641 16.7096 126.872 17.0047 127.167 17.2126C127.462 17.4204 127.804 17.5244 128.193 17.5244C128.723 17.5244 129.132 17.3802 129.42 17.0919C129.715 16.7968 129.903 16.3945 129.983 15.8849L131.351 15.9553C131.257 16.5118 131.076 16.9946 130.808 17.4037C130.54 17.806 130.184 18.1178 129.742 18.3391C129.306 18.5536 128.79 18.6609 128.193 18.6609ZM134.679 18.6207C134.149 18.6207 133.683 18.5067 133.281 18.2787C132.885 18.044 132.577 17.7155 132.355 17.293C132.141 16.8706 132.034 16.3777 132.034 15.8145C132.034 15.2445 132.141 14.7517 132.355 14.3359C132.577 13.9135 132.885 13.5883 133.281 13.3603C133.683 13.1256 134.149 13.0082 134.679 13.0082C135.209 13.0082 135.671 13.1256 136.067 13.3603C136.462 13.5883 136.768 13.9135 136.982 14.3359C137.203 14.7517 137.314 15.2445 137.314 15.8145C137.314 16.3777 137.203 16.8706 136.982 17.293C136.768 17.7155 136.462 18.044 136.067 18.2787C135.671 18.5067 135.209 18.6207 134.679 18.6207ZM134.679 17.5746C135.095 17.5746 135.413 17.4204 135.634 17.112C135.862 16.8035 135.976 16.371 135.976 15.8145C135.976 15.2646 135.862 14.8355 135.634 14.527C135.413 14.2119 135.095 14.0543 134.679 14.0543C134.263 14.0543 133.941 14.2119 133.713 14.527C133.485 14.8355 133.371 15.2646 133.371 15.8145C133.371 16.371 133.485 16.8035 133.713 17.112C133.941 17.4204 134.263 17.5746 134.679 17.5746ZM138.308 18.5V13.1289H139.474L139.515 14.4466L139.394 14.3862C139.454 14.0979 139.558 13.8531 139.706 13.652C139.86 13.4441 140.044 13.2865 140.259 13.1792C140.48 13.0652 140.721 13.0082 140.983 13.0082C141.439 13.0082 141.808 13.139 142.089 13.4005C142.371 13.6553 142.549 14.0074 142.622 14.4566H142.451C142.512 14.1415 142.616 13.8799 142.763 13.6721C142.911 13.4575 143.095 13.2932 143.316 13.1792C143.544 13.0652 143.799 13.0082 144.081 13.0082C144.45 13.0082 144.768 13.0887 145.036 13.2496C145.305 13.4039 145.509 13.6318 145.65 13.9336C145.798 14.2353 145.871 14.6075 145.871 15.05V18.5H144.584V15.382C144.584 14.9394 144.507 14.6075 144.352 14.3862C144.205 14.1649 143.977 14.0543 143.669 14.0543C143.461 14.0543 143.283 14.1079 143.135 14.2152C142.988 14.3225 142.874 14.4801 142.793 14.688C142.72 14.8891 142.683 15.1339 142.683 15.4222V18.5H141.486V15.4222C141.486 14.9796 141.419 14.641 141.285 14.4063C141.151 14.1716 140.919 14.0543 140.591 14.0543C140.383 14.0543 140.205 14.1079 140.058 14.2152C139.917 14.3225 139.803 14.4801 139.716 14.688C139.635 14.8891 139.595 15.1339 139.595 15.4222V18.5H138.308ZM147.108 20.0087V13.1289H148.346L148.376 14.2756L148.245 14.2152C148.379 13.8196 148.597 13.5212 148.899 13.32C149.207 13.1122 149.566 13.0082 149.975 13.0082C150.485 13.0082 150.907 13.1356 151.242 13.3905C151.584 13.6453 151.839 13.9839 152.007 14.4063C152.174 14.8288 152.258 15.2982 152.258 15.8145C152.258 16.3308 152.171 16.8002 151.997 17.2226C151.829 17.6451 151.574 17.9837 151.232 18.2385C150.897 18.4933 150.475 18.6207 149.965 18.6207C149.697 18.6207 149.445 18.5738 149.211 18.4799C148.983 18.386 148.785 18.2519 148.617 18.0776C148.456 17.9032 148.342 17.6987 148.275 17.464L148.396 17.3634V20.0087H147.108ZM149.663 17.5746C150.052 17.5746 150.357 17.4204 150.578 17.112C150.806 16.7968 150.92 16.3643 150.92 15.8145C150.92 15.2646 150.806 14.8355 150.578 14.527C150.357 14.2119 150.052 14.0543 149.663 14.0543C149.402 14.0543 149.177 14.1213 148.989 14.2555C148.802 14.3829 148.654 14.5773 148.547 14.8388C148.446 15.1003 148.396 15.4256 148.396 15.8145C148.396 16.2034 148.446 16.5286 148.547 16.7901C148.647 17.0516 148.791 17.2494 148.979 17.3835C149.174 17.5109 149.402 17.5746 149.663 17.5746ZM154.895 18.6207C154.332 18.6207 153.879 18.4933 153.537 18.2385C153.195 17.977 153.024 17.6149 153.024 17.1522C153.024 16.6895 153.168 16.3274 153.457 16.0659C153.745 15.8044 154.184 15.6167 154.774 15.5027L156.554 15.1506C156.554 14.7684 156.467 14.4834 156.293 14.2957C156.119 14.1012 155.86 14.004 155.518 14.004C155.21 14.004 154.965 14.0778 154.784 14.2253C154.61 14.3661 154.489 14.5706 154.422 14.8388L153.115 14.7785C153.222 14.2085 153.483 13.7727 153.899 13.4709C154.315 13.1625 154.855 13.0082 155.518 13.0082C156.283 13.0082 156.86 13.2027 157.248 13.5916C157.644 13.9738 157.842 14.5237 157.842 15.2412V17.1924C157.842 17.3333 157.865 17.4305 157.912 17.4841C157.966 17.5378 158.043 17.5646 158.144 17.5646H158.315V18.5C158.274 18.5134 158.207 18.5235 158.113 18.5302C158.026 18.5369 157.936 18.5402 157.842 18.5402C157.621 18.5402 157.423 18.5067 157.248 18.4397C157.074 18.3659 156.94 18.2418 156.846 18.0675C156.752 17.8865 156.705 17.6417 156.705 17.3333L156.816 17.4137C156.762 17.6484 156.645 17.8596 156.464 18.0474C156.29 18.2284 156.068 18.3692 155.8 18.4698C155.532 18.5704 155.23 18.6207 154.895 18.6207ZM155.156 17.6853C155.445 17.6853 155.693 17.6283 155.901 17.5143C156.109 17.4003 156.269 17.2427 156.383 17.0416C156.497 16.8404 156.554 16.6024 156.554 16.3274V16.0257L155.166 16.3073C154.878 16.3677 154.67 16.4582 154.543 16.5789C154.422 16.6929 154.362 16.8438 154.362 17.0315C154.362 17.2394 154.429 17.4003 154.563 17.5143C154.704 17.6283 154.902 17.6853 155.156 17.6853ZM159.151 18.5V13.1289H160.317L160.368 14.6377L160.217 14.5773C160.271 14.2018 160.381 13.9001 160.549 13.6721C160.716 13.4441 160.921 13.2765 161.162 13.1692C161.404 13.0619 161.669 13.0082 161.957 13.0082C162.353 13.0082 162.684 13.0954 162.953 13.2698C163.228 13.4441 163.435 13.6855 163.576 13.9939C163.717 14.2957 163.788 14.6477 163.788 15.05V18.5H162.5V15.4624C162.5 15.1607 162.47 14.9059 162.41 14.698C162.349 14.4901 162.249 14.3326 162.108 14.2253C161.974 14.1113 161.793 14.0543 161.565 14.0543C161.223 14.0543 160.948 14.175 160.74 14.4164C160.539 14.6578 160.438 15.0065 160.438 15.4624V18.5H159.151ZM165.25 20.0087V19.013H165.934C166.108 19.013 166.235 18.9861 166.316 18.9325C166.403 18.8789 166.47 18.7883 166.517 18.6609L166.668 18.2888H166.296L164.375 13.1289H165.712L167.06 17.0818L168.347 13.1289H169.685L167.583 19.0633C167.462 19.3985 167.291 19.6399 167.07 19.7874C166.856 19.935 166.554 20.0087 166.165 20.0087H165.25ZM170.634 19.7271H170.03V18.6207C170.486 18.6341 170.815 18.5704 171.016 18.4296C171.224 18.2888 171.328 18.0541 171.328 17.7255V16.951C171.328 16.4683 171.438 16.0894 171.66 15.8145C171.888 15.5395 172.159 15.3753 172.474 15.3216V15.2814C172.166 15.2277 171.898 15.0668 171.67 14.7986C171.442 14.5237 171.328 14.1482 171.328 13.6721V12.8875C171.328 12.5724 171.224 12.3478 171.016 12.2136C170.815 12.0728 170.486 12.0091 170.03 12.0225V10.896H170.634C171.244 10.896 171.717 11.0704 172.052 11.4191C172.387 11.761 172.555 12.2036 172.555 12.7467V13.5816C172.555 13.8632 172.588 14.0945 172.656 14.2756C172.729 14.4499 172.837 14.5773 172.977 14.6578C173.118 14.7382 173.293 14.7785 173.5 14.7785V15.8446C173.293 15.8446 173.118 15.8849 172.977 15.9653C172.837 16.0458 172.729 16.1766 172.656 16.3576C172.588 16.532 172.555 16.7599 172.555 17.0416V17.8764C172.555 18.4195 172.387 18.8621 172.052 19.2041C171.717 19.5528 171.244 19.7271 170.634 19.7271Z" data-figma-gradient-fill="{&#34;type&#34;:&#34;GRADIENT_DIAMOND&#34;,&#34;stops&#34;:[{&#34;color&#34;:{&#34;r&#34;:0.21397987008094788,&#34;g&#34;:0.21397987008094788,&#34;b&#34;:0.21397987008094788,&#34;a&#34;:1.0},&#34;position&#34;:0.0},{&#34;color&#34;:{&#34;r&#34;:0.42118012905120850,&#34;g&#34;:0.41547718644142151,&#34;b&#34;:0.41547718644142151,&#34;a&#34;:1.0},&#34;position&#34;:0.25166657567024231},{&#34;color&#34;:{&#34;r&#34;:0.21568627655506134,&#34;g&#34;:0.21568627655506134,&#34;b&#34;:0.21568627655506134,&#34;a&#34;:1.0},&#34;position&#34;:0.55000001192092896},{&#34;color&#34;:{&#34;r&#34;:0.41960784792900085,&#34;g&#34;:0.41568627953529358,&#34;b&#34;:0.41568627953529358,&#34;a&#34;:1.0},&#34;position&#34;:1.0}],&#34;stopsVar&#34;:[{&#34;color&#34;:{&#34;r&#34;:0.21397987008094788,&#34;g&#34;:0.21397987008094788,&#34;b&#34;:0.21397987008094788,&#34;a&#34;:1.0},&#34;position&#34;:0.0},{&#34;color&#34;:{&#34;r&#34;:0.42118012905120850,&#34;g&#34;:0.41547718644142151,&#34;b&#34;:0.41547718644142151,&#34;a&#34;:1.0},&#34;position&#34;:0.25166657567024231},{&#34;color&#34;:{&#34;r&#34;:0.21568627655506134,&#34;g&#34;:0.21568627655506134,&#34;b&#34;:0.21568627655506134,&#34;a&#34;:1.0},&#34;position&#34;:0.55000001192092896},{&#34;color&#34;:{&#34;r&#34;:0.41960784792900085,&#34;g&#34;:0.41568627953529358,&#34;b&#34;:0.41568627953529358,&#34;a&#34;:1.0},&#34;position&#34;:1.0}],&#34;transform&#34;:{&#34;m00&#34;:280.96322631835938,&#34;m01&#34;:-483.95071411132812,&#34;m02&#34;:137.21524047851562,&#34;m10&#34;:-4.0052227973937988,&#34;m11&#34;:92.575813293457031,&#34;m12&#34;:-33.035945892333984},&#34;opacity&#34;:1.0,&#34;blendMode&#34;:&#34;NORMAL&#34;,&#34;visible&#34;:true}"/>
<defs>
<clipPath id="paint0_diamond_1094_1247_clip_path"><path d="M99.7957 19.7271C99.1922 19.7271 98.7228 19.5528 98.3875 19.2041C98.0523 18.8621 97.8846 18.4195 97.8846 17.8764V17.0416C97.8846 16.7599 97.8478 16.532 97.774 16.3576C97.7069 16.1766 97.603 16.0458 97.4622 15.9653C97.3214 15.8849 97.1437 15.8446 96.9291 15.8446V14.7785C97.1437 14.7785 97.3214 14.7382 97.4622 14.6578C97.603 14.5773 97.7069 14.4499 97.774 14.2756C97.8478 14.0945 97.8846 13.8632 97.8846 13.5816V12.7467C97.8846 12.2036 98.0523 11.761 98.3875 11.4191C98.7228 11.0704 99.1922 10.896 99.7957 10.896H100.399V12.0225C99.9499 12.0091 99.6213 12.0728 99.4135 12.2136C99.2123 12.3478 99.1117 12.5724 99.1117 12.8875V13.6721C99.1117 14.1482 98.9977 14.5237 98.7698 14.7986C98.5418 15.0668 98.2702 15.2277 97.955 15.2814V15.3216C98.2702 15.3753 98.5418 15.5395 98.7698 15.8145C98.9977 16.0894 99.1117 16.4683 99.1117 16.951V17.7255C99.1117 18.0541 99.2123 18.2888 99.4135 18.4296C99.6213 18.5704 99.9499 18.6341 100.399 18.6207V19.7271H99.7957ZM102.958 18.5V15.6837L100.463 11.3587H101.932L103.621 14.3963L105.301 11.3587H106.77L104.275 15.6837V18.5H102.958ZM109.032 18.6207C108.503 18.6207 108.037 18.5067 107.634 18.2787C107.239 18.044 106.93 17.7155 106.709 17.293C106.494 16.8706 106.387 16.3777 106.387 15.8145C106.387 15.2445 106.494 14.7517 106.709 14.3359C106.93 13.9135 107.239 13.5883 107.634 13.3603C108.037 13.1256 108.503 13.0082 109.032 13.0082C109.562 13.0082 110.025 13.1256 110.42 13.3603C110.816 13.5883 111.121 13.9135 111.336 14.3359C111.557 14.7517 111.668 15.2445 111.668 15.8145C111.668 16.3777 111.557 16.8706 111.336 17.293C111.121 17.7155 110.816 18.044 110.42 18.2787C110.025 18.5067 109.562 18.6207 109.032 18.6207ZM109.032 17.5746C109.448 17.5746 109.767 17.4204 109.988 17.112C110.216 16.8035 110.33 16.371 110.33 15.8145C110.33 15.2646 110.216 14.8355 109.988 14.527C109.767 14.2119 109.448 14.0543 109.032 14.0543C108.617 14.0543 108.295 14.2119 108.067 14.527C107.839 14.8355 107.725 15.2646 107.725 15.8145C107.725 16.371 107.839 16.8035 108.067 17.112C108.295 17.4204 108.617 17.5746 109.032 17.5746ZM114.431 18.6207C113.888 18.6207 113.456 18.443 113.134 18.0876C112.819 17.7255 112.661 17.226 112.661 16.5889V13.1289H113.949V16.2671C113.949 16.7164 114.022 17.0483 114.17 17.2628C114.324 17.4707 114.555 17.5746 114.864 17.5746C115.213 17.5746 115.481 17.4607 115.669 17.2327C115.863 16.998 115.96 16.6594 115.96 16.2168V13.1289H117.248V18.5H116.071L116.041 17.0214L116.202 17.0717C116.121 17.5814 115.93 17.9669 115.628 18.2284C115.327 18.4899 114.928 18.6207 114.431 18.6207ZM118.663 18.5V13.1289H119.87L119.92 14.6175L119.809 14.5974C119.89 14.0811 120.041 13.709 120.262 13.481C120.49 13.2463 120.798 13.1289 121.187 13.1289H121.68V14.2353H121.177C120.902 14.2353 120.674 14.2756 120.493 14.356C120.312 14.4365 120.175 14.5639 120.081 14.7382C119.994 14.9059 119.95 15.1272 119.95 15.4021V18.5H118.663ZM128.193 18.6609C127.542 18.6609 126.969 18.5134 126.473 18.2184C125.977 17.9166 125.588 17.4908 125.306 16.941C125.025 16.3844 124.884 15.7172 124.884 14.9394C124.884 14.175 125.021 13.5145 125.296 12.958C125.571 12.3947 125.957 11.9622 126.453 11.6604C126.949 11.352 127.532 11.1978 128.203 11.1978C129.115 11.1978 129.822 11.4258 130.325 11.8817C130.828 12.331 131.157 12.9613 131.311 13.7727L129.943 13.8431C129.856 13.3737 129.668 13.0049 129.38 12.7367C129.091 12.4685 128.699 12.3343 128.203 12.3343C127.801 12.3343 127.452 12.4416 127.157 12.6562C126.862 12.8708 126.634 13.1725 126.473 13.5614C126.312 13.9504 126.232 14.4097 126.232 14.9394C126.232 15.4758 126.312 15.9385 126.473 16.3274C126.641 16.7096 126.872 17.0047 127.167 17.2126C127.462 17.4204 127.804 17.5244 128.193 17.5244C128.723 17.5244 129.132 17.3802 129.42 17.0919C129.715 16.7968 129.903 16.3945 129.983 15.8849L131.351 15.9553C131.257 16.5118 131.076 16.9946 130.808 17.4037C130.54 17.806 130.184 18.1178 129.742 18.3391C129.306 18.5536 128.79 18.6609 128.193 18.6609ZM134.679 18.6207C134.149 18.6207 133.683 18.5067 133.281 18.2787C132.885 18.044 132.577 17.7155 132.355 17.293C132.141 16.8706 132.034 16.3777 132.034 15.8145C132.034 15.2445 132.141 14.7517 132.355 14.3359C132.577 13.9135 132.885 13.5883 133.281 13.3603C133.683 13.1256 134.149 13.0082 134.679 13.0082C135.209 13.0082 135.671 13.1256 136.067 13.3603C136.462 13.5883 136.768 13.9135 136.982 14.3359C137.203 14.7517 137.314 15.2445 137.314 15.8145C137.314 16.3777 137.203 16.8706 136.982 17.293C136.768 17.7155 136.462 18.044 136.067 18.2787C135.671 18.5067 135.209 18.6207 134.679 18.6207ZM134.679 17.5746C135.095 17.5746 135.413 17.4204 135.634 17.112C135.862 16.8035 135.976 16.371 135.976 15.8145C135.976 15.2646 135.862 14.8355 135.634 14.527C135.413 14.2119 135.095 14.0543 134.679 14.0543C134.263 14.0543 133.941 14.2119 133.713 14.527C133.485 14.8355 133.371 15.2646 133.371 15.8145C133.371 16.371 133.485 16.8035 133.713 17.112C133.941 17.4204 134.263 17.5746 134.679 17.5746ZM138.308 18.5V13.1289H139.474L139.515 14.4466L139.394 14.3862C139.454 14.0979 139.558 13.8531 139.706 13.652C139.86 13.4441 140.044 13.2865 140.259 13.1792C140.48 13.0652 140.721 13.0082 140.983 13.0082C141.439 13.0082 141.808 13.139 142.089 13.4005C142.371 13.6553 142.549 14.0074 142.622 14.4566H142.451C142.512 14.1415 142.616 13.8799 142.763 13.6721C142.911 13.4575 143.095 13.2932 143.316 13.1792C143.544 13.0652 143.799 13.0082 144.081 13.0082C144.45 13.0082 144.768 13.0887 145.036 13.2496C145.305 13.4039 145.509 13.6318 145.65 13.9336C145.798 14.2353 145.871 14.6075 145.871 15.05V18.5H144.584V15.382C144.584 14.9394 144.507 14.6075 144.352 14.3862C144.205 14.1649 143.977 14.0543 143.669 14.0543C143.461 14.0543 143.283 14.1079 143.135 14.2152C142.988 14.3225 142.874 14.4801 142.793 14.688C142.72 14.8891 142.683 15.1339 142.683 15.4222V18.5H141.486V15.4222C141.486 14.9796 141.419 14.641 141.285 14.4063C141.151 14.1716 140.919 14.0543 140.591 14.0543C140.383 14.0543 140.205 14.1079 140.058 14.2152C139.917 14.3225 139.803 14.4801 139.716 14.688C139.635 14.8891 139.595 15.1339 139.595 15.4222V18.5H138.308ZM147.108 20.0087V13.1289H148.346L148.376 14.2756L148.245 14.2152C148.379 13.8196 148.597 13.5212 148.899 13.32C149.207 13.1122 149.566 13.0082 149.975 13.0082C150.485 13.0082 150.907 13.1356 151.242 13.3905C151.584 13.6453 151.839 13.9839 152.007 14.4063C152.174 14.8288 152.258 15.2982 152.258 15.8145C152.258 16.3308 152.171 16.8002 151.997 17.2226C151.829 17.6451 151.574 17.9837 151.232 18.2385C150.897 18.4933 150.475 18.6207 149.965 18.6207C149.697 18.6207 149.445 18.5738 149.211 18.4799C148.983 18.386 148.785 18.2519 148.617 18.0776C148.456 17.9032 148.342 17.6987 148.275 17.464L148.396 17.3634V20.0087H147.108ZM149.663 17.5746C150.052 17.5746 150.357 17.4204 150.578 17.112C150.806 16.7968 150.92 16.3643 150.92 15.8145C150.92 15.2646 150.806 14.8355 150.578 14.527C150.357 14.2119 150.052 14.0543 149.663 14.0543C149.402 14.0543 149.177 14.1213 148.989 14.2555C148.802 14.3829 148.654 14.5773 148.547 14.8388C148.446 15.1003 148.396 15.4256 148.396 15.8145C148.396 16.2034 148.446 16.5286 148.547 16.7901C148.647 17.0516 148.791 17.2494 148.979 17.3835C149.174 17.5109 149.402 17.5746 149.663 17.5746ZM154.895 18.6207C154.332 18.6207 153.879 18.4933 153.537 18.2385C153.195 17.977 153.024 17.6149 153.024 17.1522C153.024 16.6895 153.168 16.3274 153.457 16.0659C153.745 15.8044 154.184 15.6167 154.774 15.5027L156.554 15.1506C156.554 14.7684 156.467 14.4834 156.293 14.2957C156.119 14.1012 155.86 14.004 155.518 14.004C155.21 14.004 154.965 14.0778 154.784 14.2253C154.61 14.3661 154.489 14.5706 154.422 14.8388L153.115 14.7785C153.222 14.2085 153.483 13.7727 153.899 13.4709C154.315 13.1625 154.855 13.0082 155.518 13.0082C156.283 13.0082 156.86 13.2027 157.248 13.5916C157.644 13.9738 157.842 14.5237 157.842 15.2412V17.1924C157.842 17.3333 157.865 17.4305 157.912 17.4841C157.966 17.5378 158.043 17.5646 158.144 17.5646H158.315V18.5C158.274 18.5134 158.207 18.5235 158.113 18.5302C158.026 18.5369 157.936 18.5402 157.842 18.5402C157.621 18.5402 157.423 18.5067 157.248 18.4397C157.074 18.3659 156.94 18.2418 156.846 18.0675C156.752 17.8865 156.705 17.6417 156.705 17.3333L156.816 17.4137C156.762 17.6484 156.645 17.8596 156.464 18.0474C156.29 18.2284 156.068 18.3692 155.8 18.4698C155.532 18.5704 155.23 18.6207 154.895 18.6207ZM155.156 17.6853C155.445 17.6853 155.693 17.6283 155.901 17.5143C156.109 17.4003 156.269 17.2427 156.383 17.0416C156.497 16.8404 156.554 16.6024 156.554 16.3274V16.0257L155.166 16.3073C154.878 16.3677 154.67 16.4582 154.543 16.5789C154.422 16.6929 154.362 16.8438 154.362 17.0315C154.362 17.2394 154.429 17.4003 154.563 17.5143C154.704 17.6283 154.902 17.6853 155.156 17.6853ZM159.151 18.5V13.1289H160.317L160.368 14.6377L160.217 14.5773C160.271 14.2018 160.381 13.9001 160.549 13.6721C160.716 13.4441 160.921 13.2765 161.162 13.1692C161.404 13.0619 161.669 13.0082 161.957 13.0082C162.353 13.0082 162.684 13.0954 162.953 13.2698C163.228 13.4441 163.435 13.6855 163.576 13.9939C163.717 14.2957 163.788 14.6477 163.788 15.05V18.5H162.5V15.4624C162.5 15.1607 162.47 14.9059 162.41 14.698C162.349 14.4901 162.249 14.3326 162.108 14.2253C161.974 14.1113 161.793 14.0543 161.565 14.0543C161.223 14.0543 160.948 14.175 160.74 14.4164C160.539 14.6578 160.438 15.0065 160.438 15.4624V18.5H159.151ZM165.25 20.0087V19.013H165.934C166.108 19.013 166.235 18.9861 166.316 18.9325C166.403 18.8789 166.47 18.7883 166.517 18.6609L166.668 18.2888H166.296L164.375 13.1289H165.712L167.06 17.0818L168.347 13.1289H169.685L167.583 19.0633C167.462 19.3985 167.291 19.6399 167.07 19.7874C166.856 19.935 166.554 20.0087 166.165 20.0087H165.25ZM170.634 19.7271H170.03V18.6207C170.486 18.6341 170.815 18.5704 171.016 18.4296C171.224 18.2888 171.328 18.0541 171.328 17.7255V16.951C171.328 16.4683 171.438 16.0894 171.66 15.8145C171.888 15.5395 172.159 15.3753 172.474 15.3216V15.2814C172.166 15.2277 171.898 15.0668 171.67 14.7986C171.442 14.5237 171.328 14.1482 171.328 13.6721V12.8875C171.328 12.5724 171.224 12.3478 171.016 12.2136C170.815 12.0728 170.486 12.0091 170.03 12.0225V10.896H170.634C171.244 10.896 171.717 11.0704 172.052 11.4191C172.387 11.761 172.555 12.2036 172.555 12.7467V13.5816C172.555 13.8632 172.588 14.0945 172.656 14.2756C172.729 14.4499 172.837 14.5773 172.977 14.6578C173.118 14.7382 173.293 14.7785 173.5 14.7785V15.8446C173.293 15.8446 173.118 15.8849 172.977 15.9653C172.837 16.0458 172.729 16.1766 172.656 16.3576C172.588 16.532 172.555 16.7599 172.555 17.0416V17.8764C172.555 18.4195 172.387 18.8621 172.052 19.2041C171.717 19.5528 171.244 19.7271 170.634 19.7271Z"/></clipPath><linearGradient id="paint0_diamond_1094_1247" x1="0" y1="0" x2="500" y2="500" gradientUnits="userSpaceOnUse">
<stop stop-color="#373737"/>
<stop offset="0.251667" stop-color="#6B6A6A"/>
<stop offset="0.55" stop-color="#373737"/>
<stop offset="1" stop-color="#6B6A6A"/>
</linearGradient>
</defs>
</svg>
