<svg width="105" height="515" viewBox="0 0 105 515" fill="none" xmlns="http://www.w3.org/2000/svg">
<g clip-path="url(#clip0_1658_2756)">
<path opacity="0.94" d="M88.2109 0.501767L88.2109 11.0322L104.121 11.0322L104.121 0.501766L88.2109 0.501767Z" fill="#2F2E2E"/>
<path opacity="0.35" d="M88.3828 15.0869L88.3828 25.3918L103.952 25.3918L103.952 15.0869L88.3828 15.0869Z" fill="#2F2E2E"/>
<path opacity="0.25" d="M88.8281 29.8516L88.8281 39.5674L103.508 39.5674L103.508 29.8516L88.8281 29.8516Z" fill="#2F2E2E"/>
<path opacity="0.87" d="M89.0723 44.4782L89.0723 53.8765L103.272 53.8765L103.272 44.4782L89.0723 44.4782Z" fill="#2F2E2E"/>
<path opacity="0.79" d="M89.4473 59.2016L89.4473 68.0981L102.889 68.0981L102.889 59.2016L89.4473 59.2016Z" fill="#2F2E2E"/>
<path opacity="0.79" d="M89.6484 73.8098L89.6484 82.4348L102.68 82.4348L102.68 73.8098L89.6484 73.8098Z" fill="#2F2E2E"/>
<path opacity="0.65" d="M89.6836 88.3031L89.6836 96.8821L102.645 96.8821L102.645 88.3031L89.6836 88.3031Z" fill="#2F2E2E"/>
<path opacity="0.18" d="M89.7187 102.801L89.7188 111.334L102.611 111.334L102.611 102.801L89.7187 102.801Z" fill="#2F2E2E"/>
<path opacity="0.24" d="M89.7539 117.289L89.7539 125.781L102.584 125.781L102.584 117.289L89.7539 117.289Z" fill="#2F2E2E"/>
<path opacity="0.99" d="M89.7539 131.76L89.7539 140.251L102.584 140.251L102.584 131.76L89.7539 131.76Z" fill="#2F2E2E"/>
<path opacity="0.25" d="M89.7187 146.207L89.7188 154.744L102.611 154.744L102.611 146.207L89.7187 146.207Z" fill="#2F2E2E"/>
<path opacity="0.65" d="M89.7187 160.681L89.7188 169.214L102.611 169.214L102.611 160.681L89.7187 160.681Z" fill="#2F2E2E"/>
<path opacity="0.59" d="M89.7187 175.156L89.7188 183.689L102.611 183.689L102.611 175.156L89.7187 175.156Z" fill="#2F2E2E"/>
<path opacity="0.86" d="M89.7187 189.626L89.7188 198.159L102.611 198.159L102.611 189.626L89.7187 189.626Z" fill="#2F2E2E"/>
<path opacity="0.45" d="M89.7187 204.097L89.7188 212.63L102.611 212.63L102.611 204.097L89.7187 204.097Z" fill="#2F2E2E"/>
<path opacity="0.56" d="M89.7187 218.567L89.7188 227.1L102.611 227.1L102.611 218.567L89.7187 218.567Z" fill="#2F2E2E"/>
<path opacity="0.69" d="M89.7187 233.041L89.7188 241.574L102.611 241.574L102.611 233.041L89.7187 233.041Z" fill="#2F2E2E"/>
<path opacity="0.52" d="M89.7539 247.53L89.7539 256.022L102.584 256.022L102.584 247.53L89.7539 247.53Z" fill="#2F2E2E"/>
<path opacity="0.53" d="M89.8242 262.046L89.8242 270.446L102.515 270.446L102.515 262.046L89.8242 262.046Z" fill="#2F2E2E"/>
<path opacity="0.29" d="M89.9277 276.59L89.9277 284.852L102.41 284.852L102.41 276.59L89.9277 276.59Z" fill="#2F2E2E"/>
<path opacity="0.81" d="M90.2695 291.281L90.2695 299.092L102.07 299.092L102.07 291.281L90.2695 291.281Z" fill="#2F2E2E"/>
<path opacity="0.88" d="M91.0957 320.774L91.0957 327.493L101.248 327.493L101.248 320.774L91.0957 320.774Z" fill="#2F2E2E"/>
<path opacity="0.5" d="M91.8105 350.188L91.8105 355.955L100.524 355.955L100.524 350.188L91.8105 350.188Z" fill="#2F2E2E"/>
<path opacity="0.69" d="M92.2207 379.409L92.2207 384.629L100.106 384.629L100.106 379.409L92.2207 379.409Z" fill="#2F2E2E"/>
<path opacity="0.74" d="M92.3613 408.437L92.3613 413.477L99.9757 413.477L99.9757 408.437L92.3613 408.437Z" fill="#2F2E2E"/>
<path opacity="0.26" d="M92.3965 437.405L92.3965 442.399L99.9414 442.399L99.9414 437.405L92.3965 437.405Z" fill="#2F2E2E"/>
<path opacity="0.97" d="M92.3965 466.345L92.3965 471.339L99.9414 471.339L99.9414 466.345L92.3965 466.345Z" fill="#2F2E2E"/>
<path opacity="0.5" d="M92.5 495.355L92.5 500.215L99.8363 500.215L99.8363 495.355L92.5 495.355Z" fill="#2F2E2E"/>
<path opacity="0.3" d="M65.9023 0.202464L65.9023 11.3267L82.7097 11.3267L82.7097 0.202463L65.9023 0.202464Z" fill="#2F2E2E"/>
<path opacity="0.55" d="M66.1094 14.8107L66.1094 25.6633L82.5064 25.6633L82.5064 14.8107L66.1094 14.8107Z" fill="#2F2E2E"/>
<path opacity="0.43" d="M66.6523 29.6443L66.6523 39.7698L81.9507 39.7698L81.9507 29.6443L66.6523 29.6443Z" fill="#2F2E2E"/>
<path opacity="0.65" d="M66.8965 44.2756L66.8965 54.0835L81.715 54.0835L81.715 44.2756L66.8965 44.2756Z" fill="#2F2E2E"/>
<path opacity="0.88" d="M67.3418 59.0451L67.3418 68.2593L81.2633 68.2593L81.2633 59.0451L67.3418 59.0451Z" fill="#2F2E2E"/>
<path opacity="0.57" d="M67.6543 73.7177L67.6543 82.5269L80.9639 82.5269L80.9639 73.7177L67.6543 73.7177Z" fill="#2F2E2E"/>
<path opacity="0.48" d="M67.8223 102.778L67.8223 111.357L80.7841 111.357L80.7841 102.778L67.8223 102.778Z" fill="#2F2E2E"/>
<path opacity="0.28" d="M67.8574 131.737L67.8574 140.274L80.7498 140.274L80.7498 131.737L67.8574 131.737Z" fill="#2F2E2E"/>
<path opacity="0.74" d="M67.8574 160.681L67.8574 169.214L80.7498 169.214L80.7498 160.681L67.8574 160.681Z" fill="#2F2E2E"/>
<path opacity="0.13" d="M67.8574 189.626L67.8574 198.159L80.7498 198.159L80.7498 189.626L67.8574 189.626Z" fill="#2F2E2E"/>
<path opacity="0.18" d="M67.8574 218.567L67.8574 227.1L80.7498 227.1L80.7498 218.567L67.8574 218.567Z" fill="#2F2E2E"/>
<path opacity="0.17" d="M67.8574 247.512L67.8574 256.045L80.7498 256.045L80.7498 247.512L67.8574 247.512Z" fill="#2F2E2E"/>
<path opacity="0.7" d="M67.9609 276.517L67.9609 284.916L80.6516 284.916L80.6516 276.517L67.9609 276.517Z" fill="#2F2E2E"/>
<path opacity="0.35" d="M68.2656 291.194L68.2656 299.184L80.3374 299.184L80.3374 291.194L68.2656 291.194Z" fill="#2F2E2E"/>
<path opacity="0.14" d="M68.5098 305.825L68.5098 313.497L80.1018 313.497L80.1018 305.825L68.5098 305.825Z" fill="#2F2E2E"/>
<path opacity="0.33" d="M69.3633 335.336L69.3633 341.872L79.2377 341.872L79.2377 335.336L69.3633 335.336Z" fill="#2F2E2E"/>
<path opacity="0.44" d="M70.2207 364.843L70.2207 370.246L78.3845 370.246L78.3845 364.843L70.2207 364.843Z" fill="#2F2E2E"/>
<path opacity="0.49" d="M70.4629 393.944L70.4629 399.03L78.1468 399.03L78.1468 393.944L70.4629 393.944Z" fill="#2F2E2E"/>
<path opacity="0.25" d="M70.498 422.912L70.498 427.952L78.1125 427.952L78.1125 422.912L70.498 422.912Z" fill="#2F2E2E"/>
<path opacity="0.29" d="M70.5332 451.875L70.5332 456.869L78.0781 456.869L78.0781 451.875L70.5332 451.875Z" fill="#2F2E2E"/>
<path opacity="0.14" d="M70.5684 480.843L70.5684 485.791L78.0437 485.791L78.0437 480.843L70.5684 480.843Z" fill="#2F2E2E"/>
<path opacity="0.23" d="M71.1172 510.147L71.1172 514.368L77.4938 514.368L77.4938 510.147L71.1172 510.147Z" fill="#2F2E2E"/>
<path opacity="0.64" d="M43.9355 0.138066L43.9355 11.3958L60.9445 11.3958L60.9445 0.138066L43.9355 0.138066Z" fill="#2F2E2E"/>
<path opacity="0.32" d="M44.1426 14.7463L44.1426 25.7324L60.7413 25.7324L60.7413 14.7463L44.1426 14.7463Z" fill="#2F2E2E"/>
<path opacity="0.35" d="M44.6934 29.5802L44.6934 39.8391L60.1934 39.8391L60.1934 29.5802L44.6934 29.5802Z" fill="#2F2E2E"/>
<path opacity="0.43" d="M44.9648 44.2343L44.9648 54.1296L59.9155 54.1296L59.9155 44.2343L44.9648 44.2343Z" fill="#2F2E2E"/>
<path opacity="0.84" d="M45.4453 59.0221L45.4453 68.2822L59.4364 68.2822L59.4364 59.0221L45.4453 59.0221Z" fill="#2F2E2E"/>
<path opacity="0.72" d="M45.75 73.6992L45.75 82.5498L59.1222 82.5498L59.1222 73.6992L45.75 73.6992Z" fill="#2F2E2E"/>
<path opacity="0.38" d="M45.8184 88.2108L45.8184 96.9739L59.0584 96.9739L59.0584 88.2108L45.8184 88.2108Z" fill="#2F2E2E"/>
<path opacity="0.46" d="M45.959 102.778L45.959 111.357L58.9209 111.357L58.9209 102.778L45.959 102.778Z" fill="#2F2E2E"/>
<path opacity="0.28" d="M45.959 117.248L45.959 125.827L58.9209 125.827L58.9209 117.248L45.959 117.248Z" fill="#2F2E2E"/>
<path opacity="0.76" d="M45.9941 131.737L45.9941 140.274L58.8865 140.274L58.8865 131.737L45.9941 131.737Z" fill="#2F2E2E"/>
<path opacity="0.72" d="M45.9941 146.207L45.9941 154.744L58.8865 154.744L58.8865 146.207L45.9941 146.207Z" fill="#2F2E2E"/>
<path opacity="0.53" d="M45.9941 160.681L45.9941 169.214L58.8865 169.214L58.8865 160.681L45.9941 160.681Z" fill="#2F2E2E"/>
<path opacity="0.53" d="M45.9941 175.156L45.9941 183.689L58.8865 183.689L58.8865 175.156L45.9941 175.156Z" fill="#2F2E2E"/>
<path opacity="0.84" d="M45.9941 189.626L45.9941 198.159L58.8865 198.159L58.8865 189.626L45.9941 189.626Z" fill="#2F2E2E"/>
<path opacity="0.79" d="M45.9941 204.097L45.9941 212.63L58.8865 212.63L58.8865 204.097L45.9941 204.097Z" fill="#2F2E2E"/>
<path opacity="0.72" d="M45.9941 218.567L45.9941 227.1L58.8865 227.1L58.8865 218.567L45.9941 218.567Z" fill="#2F2E2E"/>
<path opacity="0.75" d="M45.9941 233.041L45.9941 241.574L58.8865 241.574L58.8865 233.041L45.9941 233.041Z" fill="#2F2E2E"/>
<path opacity="0.46" d="M45.9941 247.512L45.9941 256.045L58.8865 256.045L58.8865 247.512L45.9941 247.512Z" fill="#2F2E2E"/>
<path opacity="0.16" d="M46.0293 262L46.0293 270.492L58.8591 270.492L58.8591 262L46.0293 262Z" fill="#2F2E2E"/>
<path opacity="0.74" d="M46.0625 276.493L46.0625 284.939L58.8227 284.939L58.8227 276.493L46.0625 276.493Z" fill="#2F2E2E"/>
<path opacity="0.12" d="M46.6133 305.802L46.6133 313.521L58.2748 313.521L58.2748 305.802L46.6133 305.802Z" fill="#2F2E2E"/>
<path opacity="0.84" d="M47.1973 320.659L47.1973 327.604L57.6905 327.604L57.6905 320.659L47.1973 320.659Z" fill="#2F2E2E"/>
<path opacity="0.96" d="M47.9824 350.124L47.9824 356.024L56.8972 356.024L56.8972 350.124L47.9824 350.124Z" fill="#2F2E2E"/>
<path opacity="0.97" d="M48.4277 379.359L48.4277 384.67L56.4524 384.67L56.4524 379.359L48.4277 379.359Z" fill="#2F2E2E"/>
<path opacity="0.81" d="M48.6348 408.437L48.6348 413.477L56.2492 413.477L56.2492 408.437L48.6348 408.437Z" fill="#2F2E2E"/>
<path opacity="0.45" d="M48.6699 437.405L48.6699 442.399L56.2148 442.399L56.2148 437.405L48.6699 437.405Z" fill="#2F2E2E"/>
<path opacity="0.61" d="M48.6699 466.345L48.6699 471.339L56.2148 471.339L56.2148 466.345L48.6699 466.345Z" fill="#2F2E2E"/>
<path opacity="0.86" d="M48.8379 495.401L48.8379 500.169L56.042 500.169L56.042 495.401L48.8379 495.401Z" fill="#2F2E2E"/>
<path opacity="0.62" d="M21.9336 0.0460529L21.9336 11.4878L39.2207 11.4878L39.2207 0.0460522L21.9336 0.0460529Z" fill="#2F2E2E"/>
<path opacity="0.25" d="M22.1426 14.6496L22.1426 25.8198L39.0195 25.8198L39.0195 14.6496L22.1426 14.6496Z" fill="#2F2E2E"/>
<path opacity="0.57" d="M22.7187 29.511L22.7188 39.908L38.4274 39.908L38.4274 29.511L22.7187 29.511Z" fill="#2F2E2E"/>
<path opacity="0.57" d="M23.0312 44.1884L23.0312 54.1758L38.121 54.1758L38.121 44.1884L23.0312 44.1884Z" fill="#2F2E2E"/>
<path opacity="0.53" d="M23.5469 58.999L23.5469 68.3052L37.6075 68.3052L37.6075 58.999L23.5469 58.999Z" fill="#2F2E2E"/>
<path opacity="0.74" d="M23.8516 73.6764L23.8516 82.573L37.2933 82.573L37.2933 73.6764L23.8516 73.6764Z" fill="#2F2E2E"/>
<path opacity="0.36" d="M23.957 88.2108L23.957 96.9739L37.1971 96.9739L37.1971 88.2108L23.957 88.2108Z" fill="#2F2E2E"/>
<path opacity="0.12" d="M24.1309 117.271L24.1309 125.804L37.0232 125.804L37.0232 117.271L24.1309 117.271Z" fill="#2F2E2E"/>
<path opacity="0.13" d="M24.1309 146.207L24.1309 154.744L37.0232 154.744L37.0232 146.207L24.1309 146.207Z" fill="#2F2E2E"/>
<path opacity="0.23" d="M24.1309 175.156L24.1309 183.689L37.0232 183.689L37.0232 175.156L24.1309 175.156Z" fill="#2F2E2E"/>
<path opacity="0.78" d="M24.1309 204.097L24.1309 212.63L37.0232 212.63L37.0232 204.097L24.1309 204.097Z" fill="#2F2E2E"/>
<path opacity="0.21" d="M24.1309 233.041L24.1309 241.574L37.0232 241.574L37.0232 233.041L24.1309 233.041Z" fill="#2F2E2E"/>
<path opacity="0.61" d="M24.166 262L24.166 270.492L36.9958 270.492L36.9958 262L24.166 262Z" fill="#2F2E2E"/>
<path opacity="0.9" d="M24.2344 276.517L24.2344 284.916L36.9251 284.916L36.9251 276.517L24.2344 276.517Z" fill="#2F2E2E"/>
<path opacity="0.12" d="M24.5059 291.171L24.5059 299.207L36.6472 299.207L36.6472 291.171L24.5059 291.171Z" fill="#2F2E2E"/>
<path opacity="0.61" d="M25.3262 320.659L25.3262 327.604L35.8195 327.604L35.8195 320.659L25.3262 320.659Z" fill="#2F2E2E"/>
<path opacity="0.18" d="M26.1543 350.147L26.1543 356.001L34.9995 356.001L34.9995 350.147L26.1543 350.147Z" fill="#2F2E2E"/>
<path opacity="0.52" d="M26.5996 379.386L26.5996 384.652L34.5548 384.652L34.5548 379.386L26.5996 379.386Z" fill="#2F2E2E"/>
<path opacity="0.69" d="M26.7656 408.437L26.7656 413.477L34.38 413.477L34.38 408.437L26.7656 408.437Z" fill="#2F2E2E"/>
<path opacity="0.44" d="M26.8008 437.405L26.8008 442.399L34.3457 442.399L34.3457 437.405L26.8008 437.405Z" fill="#2F2E2E"/>
<path opacity="0.51" d="M26.8711 466.392L26.8711 471.293L34.2769 471.293L34.2769 466.392L26.8711 466.392Z" fill="#2F2E2E"/>
<path opacity="0.64" d="M27.7949 510.419L27.7949 514.096L33.351 514.096L33.351 510.419L27.7949 510.419Z" fill="#2F2E2E"/>
<path opacity="0.74" d="M-5.04157e-07 -7.53403e-05L0 11.5337L17.4193 11.5337L17.4193 -7.61017e-05L-5.04157e-07 -7.53403e-05Z" fill="#2F2E2E"/>
<path opacity="0.77" d="M0.24414 14.6311L0.244141 25.8428L17.1836 25.8428L17.1836 14.6311L0.24414 14.6311Z" fill="#2F2E2E"/>
<path opacity="0.12" d="M0.822265 29.4879L0.822266 39.9309L16.6004 39.9309L16.6004 29.4879L0.822265 29.4879Z" fill="#2F2E2E"/>
<path opacity="0.14" d="M1.16992 44.1884L1.16992 54.1758L16.2597 54.1758L16.2597 44.1884L1.16992 44.1884Z" fill="#2F2E2E"/>
<path opacity="0.72" d="M1.68359 58.999L1.68359 68.3052L15.7442 68.3052L15.7442 58.999L1.68359 58.999Z" fill="#2F2E2E"/>
<path opacity="0.18" d="M2.02344 73.6992L2.02344 82.5498L15.4026 82.5498L15.4026 73.6992L2.02344 73.6992Z" fill="#2F2E2E"/>
<path opacity="0.68" d="M2.12891 88.2338L2.12891 96.9509L15.2994 96.9509L15.2994 88.2338L2.12891 88.2338Z" fill="#2F2E2E"/>
<path opacity="0.55" d="M2.23242 102.778L2.23242 111.357L15.1943 111.357L15.1943 102.778L2.23242 102.778Z" fill="#2F2E2E"/>
<path opacity="0.58" d="M2.26172 117.271L2.26172 125.804L15.1541 125.804L15.1541 117.271L2.26172 117.271Z" fill="#2F2E2E"/>
<path opacity="0.86" d="M2.26172 131.737L2.26172 140.274L15.1541 140.274L15.1541 131.737L2.26172 131.737Z" fill="#2F2E2E"/>
<path opacity="0.96" d="M2.26172 146.207L2.26172 154.744L15.1541 154.744L15.1541 146.207L2.26172 146.207Z" fill="#2F2E2E"/>
<path opacity="0.88" d="M2.26172 160.681L2.26172 169.214L15.1541 169.214L15.1541 160.681L2.26172 160.681Z" fill="#2F2E2E"/>
<path opacity="0.26" d="M2.26172 175.156L2.26172 183.689L15.1541 183.689L15.1541 175.156L2.26172 175.156Z" fill="#2F2E2E"/>
<path opacity="0.82" d="M2.26172 189.626L2.26172 198.159L15.1541 198.159L15.1541 189.626L2.26172 189.626Z" fill="#2F2E2E"/>
<path opacity="0.96" d="M2.26172 204.097L2.26172 212.63L15.1541 212.63L15.1541 204.097L2.26172 204.097Z" fill="#2F2E2E"/>
<path opacity="0.31" d="M2.26172 218.567L2.26172 227.1L15.1541 227.1L15.1541 218.567L2.26172 218.567Z" fill="#2F2E2E"/>
<path opacity="0.57" d="M2.26172 233.041L2.26172 241.574L15.1541 241.574L15.1541 233.041L2.26172 233.041Z" fill="#2F2E2E"/>
<path opacity="0.27" d="M2.26172 247.512L2.26172 256.045L15.1541 256.045L15.1541 247.512L2.26172 247.512Z" fill="#2F2E2E"/>
<path opacity="0.89" d="M2.33008 262.023L2.33008 270.469L15.0903 270.469L15.0903 262.023L2.33008 262.023Z" fill="#2F2E2E"/>
<path opacity="0.11" d="M2.71289 291.217L2.71289 299.161L14.7151 299.161L14.7151 291.217L2.71289 291.217Z" fill="#2F2E2E"/>
<path opacity="0.38" d="M2.94922 305.848L2.94922 313.474L14.4717 313.474L14.4717 305.848L2.94922 305.848Z" fill="#2F2E2E"/>
<path opacity="0.56" d="M3.83789 335.377L3.83789 341.825L13.5802 341.825L13.5802 335.377L3.83789 335.377Z" fill="#2F2E2E"/>
<path opacity="0.34" d="M4.63281 364.843L4.63281 370.246L12.7966 370.246L12.7966 364.843L4.63281 364.843Z" fill="#2F2E2E"/>
<path opacity="0.48" d="M4.90234 393.967L4.90234 399.007L12.5168 399.007L12.5168 393.967L4.90234 393.967Z" fill="#2F2E2E"/>
<path opacity="0.95" d="M4.97266 422.958L4.97266 427.906L12.448 427.906L12.448 422.958L4.97266 422.958Z" fill="#2F2E2E"/>
<path opacity="0.49" d="M5.04297 451.944L5.04297 456.8L12.3792 456.8L12.3792 451.944L5.04297 451.944Z" fill="#2F2E2E"/>
<path opacity="0.31" d="M5.38281 481.11L5.38281 485.515L12.0376 485.515L12.0376 481.11L5.38281 481.11Z" fill="#2F2E2E"/>
</g>
<defs>
<clipPath id="clip0_1658_2756">
<rect width="514.368" height="104.126" fill="white" transform="translate(0 514.368) rotate(-90)"/>
</clipPath>
</defs>
</svg>
