<svg width="237" height="111" viewBox="0 0 237 111" fill="none" xmlns="http://www.w3.org/2000/svg">
<g filter="url(#filter0_d_1094_994)">
<g clip-path="url(#clip0_1094_994)">
<rect x="5" y="1" width="227.41" height="101.574" rx="6.68852" fill="#171717"/>
<g filter="url(#filter1_d_1094_994)">
<rect x="5" y="1" width="227.41" height="30.0984" rx="6.68852" fill="#171717" shape-rendering="crispEdges"/>
<rect x="11.6895" y="7.68848" width="16.7213" height="16.7213" rx="8.36066" fill="#790BFF"/>
<g clip-path="url(#clip1_1094_994)">
<path d="M20.052 16.6426C19.3037 16.6426 18.6934 17.2529 18.6934 18.0012V20.4049H21.4106V18.0012C21.4106 17.2529 20.8002 16.6426 20.052 16.6426Z" fill="white"/>
<path d="M23.8755 14.0257L20.9493 11.9774C20.41 11.6011 19.6868 11.6011 19.1517 11.9774L16.2255 14.0257C15.8075 14.3183 15.5566 14.7991 15.5566 15.3091V18.8373C15.5566 19.7026 16.2589 20.4049 17.1243 20.4049H18.0648V18.0012C18.0648 16.906 18.9552 16.0156 20.0505 16.0156C21.1457 16.0156 22.0361 16.906 22.0361 18.0012V20.4049H22.9767C23.8421 20.4049 24.5443 19.7026 24.5443 18.8373V15.3091C24.5443 14.7991 24.2935 14.3183 23.8755 14.0257Z" fill="white"/>
</g>
<path d="M35.3337 20.5491L38.3302 12.2386H39.6879L42.6844 20.5491H41.5841L40.7531 18.1847H37.265L36.434 20.5491H35.3337ZM37.6045 17.2015H40.4136L39.0091 13.1164L37.6045 17.2015ZM44.8432 20.5491C44.4843 20.5491 44.1916 20.4554 43.9654 20.2682C43.7391 20.0809 43.6259 19.7844 43.6259 19.3786V12.2386H44.6091V19.2966C44.6091 19.4215 44.6403 19.519 44.7028 19.5893C44.773 19.6517 44.8705 19.6829 44.9954 19.6829H45.5338V20.5491H44.8432ZM47.8495 20.5491C47.4905 20.5491 47.1979 20.4554 46.9716 20.2682C46.7453 20.0809 46.6322 19.7844 46.6322 19.3786V12.2386H47.6154V19.2966C47.6154 19.4215 47.6466 19.519 47.709 19.5893C47.7792 19.6517 47.8768 19.6829 48.0016 19.6829H48.5401V20.5491H47.8495ZM56.0617 20.7364C55.2735 20.7364 54.5946 20.5647 54.025 20.2213C53.4632 19.8702 53.0301 19.3708 52.7258 18.7231C52.4214 18.0754 52.2693 17.3029 52.2693 16.4055C52.2693 15.5082 52.4214 14.7356 52.7258 14.088C53.0301 13.4325 53.4632 12.9292 54.025 12.578C54.5946 12.2269 55.2735 12.0513 56.0617 12.0513C56.8576 12.0513 57.5365 12.2269 58.0983 12.578C58.6679 12.9292 59.1049 13.4325 59.4093 14.088C59.7136 14.7356 59.8658 15.5082 59.8658 16.4055C59.8658 17.3029 59.7136 18.0754 59.4093 18.7231C59.1049 19.3708 58.6679 19.8702 58.0983 20.2213C57.5365 20.5647 56.8576 20.7364 56.0617 20.7364ZM56.0617 19.7531C56.6391 19.7531 57.1307 19.6205 57.5365 19.3552C57.95 19.0899 58.2661 18.7075 58.4846 18.2081C58.7031 17.7087 58.8123 17.1078 58.8123 16.4055C58.8123 15.7032 58.7031 15.1024 58.4846 14.603C58.2661 14.0958 57.95 13.7095 57.5365 13.4442C57.1307 13.1711 56.6391 13.0345 56.0617 13.0345C55.492 13.0345 55.0004 13.1711 54.5868 13.4442C54.1811 13.7095 53.8689 14.0958 53.6504 14.603C53.4319 15.1024 53.3227 15.7032 53.3227 16.4055C53.3227 17.1078 53.4319 17.7087 53.6504 18.2081C53.8689 18.7075 54.1811 19.0899 54.5868 19.3552C55.0004 19.6205 55.492 19.7531 56.0617 19.7531ZM61.3319 20.5491V14.3455H62.1981L62.2449 15.9139L62.1512 15.8788C62.2293 15.3482 62.397 14.9619 62.6545 14.72C62.9199 14.4703 63.271 14.3455 63.708 14.3455H64.3166V15.2819H63.7197C63.4076 15.2819 63.1461 15.3404 62.9355 15.4574C62.7326 15.5667 62.5765 15.7344 62.4673 15.9607C62.3658 16.1792 62.3151 16.4602 62.3151 16.8035V20.5491H61.3319ZM67.651 22.4453C67.2062 22.4453 66.8043 22.3711 66.4454 22.2229C66.0864 22.0746 65.786 21.8639 65.5441 21.5908C65.3022 21.3177 65.1383 21.0017 65.0525 20.6427L66.0825 20.5725C66.1762 20.8612 66.34 21.0875 66.5741 21.2514C66.816 21.423 67.175 21.5089 67.651 21.5089C68.2128 21.5089 68.642 21.3957 68.9385 21.1694C69.2429 20.9431 69.395 20.6037 69.395 20.1511V19.1445C69.2468 19.4722 69.0088 19.7336 68.681 19.9287C68.3533 20.1238 67.9865 20.2213 67.5808 20.2213C67.0579 20.2213 66.5897 20.0926 66.1762 19.8351C65.7704 19.5776 65.4505 19.2225 65.2164 18.7699C64.9901 18.3173 64.8769 17.7984 64.8769 17.2132C64.8769 16.6201 64.9901 16.1012 65.2164 15.6564C65.4427 15.2038 65.7548 14.8488 66.1528 14.5913C66.5585 14.3338 67.0189 14.205 67.5339 14.205C67.9709 14.205 68.3611 14.3064 68.7044 14.5093C69.0556 14.7122 69.3014 14.9853 69.4418 15.3287V14.3455H70.3782V20.1277C70.3782 20.6115 70.269 21.0251 70.0505 21.3684C69.832 21.7196 69.5199 21.9849 69.1141 22.1644C68.7083 22.3516 68.2206 22.4453 67.651 22.4453ZM67.6276 19.2849C68.1582 19.2849 68.5835 19.1016 68.9034 18.7348C69.2233 18.3603 69.3872 17.853 69.395 17.2132C69.4028 16.784 69.3326 16.4172 69.1843 16.1129C69.0439 15.8008 68.8371 15.5628 68.564 15.3989C68.2987 15.2272 67.9865 15.1414 67.6276 15.1414C67.0813 15.1414 66.6561 15.3287 66.3517 15.7032C66.0552 16.07 65.907 16.5733 65.907 17.2132C65.907 17.853 66.0591 18.3603 66.3634 18.7348C66.6756 19.1016 67.097 19.2849 67.6276 19.2849ZM73.9219 20.6895C73.282 20.6895 72.7709 20.5413 72.3886 20.2447C72.014 19.9482 71.8267 19.5346 71.8267 19.004C71.8267 18.4734 71.9828 18.0559 72.2949 17.7516C72.607 17.4473 73.1026 17.2327 73.7814 17.1078L75.982 16.6982C75.982 16.1753 75.8571 15.7852 75.6074 15.5277C75.3655 15.2702 74.9987 15.1414 74.5071 15.1414C74.078 15.1414 73.7385 15.2389 73.4888 15.434C73.2391 15.6213 73.0674 15.8944 72.9738 16.2534L71.9321 16.1714C72.0491 15.5862 72.33 15.1141 72.7748 14.7551C73.2274 14.3884 73.8048 14.205 74.5071 14.205C75.3031 14.205 75.9117 14.4313 76.3331 14.8839C76.7545 15.3287 76.9652 15.9451 76.9652 16.7333V19.2966C76.9652 19.4371 76.9886 19.5385 77.0354 19.601C77.09 19.6556 77.1759 19.6829 77.2929 19.6829H77.5387V20.5491C77.5075 20.5569 77.4568 20.5608 77.3866 20.5608C77.3163 20.5686 77.2422 20.5725 77.1642 20.5725C76.8832 20.5725 76.653 20.5296 76.4736 20.4437C76.3019 20.3501 76.177 20.2096 76.099 20.0224C76.021 19.8273 75.982 19.5737 75.982 19.2615L76.099 19.2849C76.0444 19.5503 75.9117 19.7922 75.701 20.0106C75.4904 20.2213 75.2289 20.3891 74.9168 20.514C74.6047 20.631 74.273 20.6895 73.9219 20.6895ZM74.0155 19.8234C74.4291 19.8234 74.7803 19.7453 75.069 19.5893C75.3655 19.4254 75.5918 19.2069 75.7479 18.9338C75.9039 18.6529 75.982 18.3407 75.982 17.9974V17.5526L73.9687 17.9272C73.5473 18.0052 73.2547 18.1262 73.0908 18.29C72.9348 18.4461 72.8567 18.6529 72.8567 18.9104C72.8567 19.1991 72.9582 19.4254 73.1611 19.5893C73.3718 19.7453 73.6566 19.8234 74.0155 19.8234ZM78.6492 20.5491V14.3455H79.5505L79.5856 15.9256L79.4686 15.8203C79.5466 15.4535 79.6832 15.1531 79.8782 14.919C80.0733 14.6771 80.3074 14.4976 80.5805 14.3806C80.8614 14.2635 81.1619 14.205 81.4818 14.205C81.9578 14.205 82.348 14.3104 82.6523 14.521C82.9644 14.7317 83.1946 15.0165 83.3429 15.3755C83.499 15.7266 83.577 16.1207 83.577 16.5577V20.5491H82.5938V16.8386C82.5938 16.4563 82.547 16.1363 82.4533 15.8788C82.3675 15.6135 82.227 15.4145 82.0319 15.2819C81.8369 15.1414 81.5833 15.0712 81.2711 15.0712C80.7951 15.0712 80.4011 15.2233 80.0889 15.5277C79.7846 15.8242 79.6324 16.2612 79.6324 16.8386V20.5491H78.6492ZM85.3361 20.5491V14.3455H86.3193V20.5491H85.3361ZM85.3127 13.374V12.2269H86.3427V13.374H85.3127ZM87.9245 20.5491V19.5659L91.8457 15.2116H88.0416V14.3455H92.9225V15.3287L89.0014 19.6829H93.0162V20.5491H87.9245ZM96.1201 20.6895C95.4802 20.6895 94.9691 20.5413 94.5867 20.2447C94.2122 19.9482 94.0249 19.5346 94.0249 19.004C94.0249 18.4734 94.181 18.0559 94.4931 17.7516C94.8052 17.4473 95.3007 17.2327 95.9796 17.1078L98.1802 16.6982C98.1802 16.1753 98.0553 15.7852 97.8056 15.5277C97.5637 15.2702 97.1969 15.1414 96.7053 15.1414C96.2762 15.1414 95.9367 15.2389 95.687 15.434C95.4373 15.6213 95.2656 15.8944 95.172 16.2534L94.1303 16.1714C94.2473 15.5862 94.5282 15.1141 94.973 14.7551C95.4256 14.3884 96.003 14.205 96.7053 14.205C97.5013 14.205 98.1099 14.4313 98.5313 14.8839C98.9527 15.3287 99.1634 15.9451 99.1634 16.7333V19.2966C99.1634 19.4371 99.1868 19.5385 99.2336 19.601C99.2882 19.6556 99.3741 19.6829 99.4911 19.6829H99.7369V20.5491C99.7057 20.5569 99.655 20.5608 99.5847 20.5608C99.5145 20.5686 99.4404 20.5725 99.3624 20.5725C99.0814 20.5725 98.8512 20.5296 98.6718 20.4437C98.5001 20.3501 98.3752 20.2096 98.2972 20.0224C98.2192 19.8273 98.1802 19.5737 98.1802 19.2615L98.2972 19.2849C98.2426 19.5503 98.1099 19.7922 97.8992 20.0106C97.6885 20.2213 97.4271 20.3891 97.115 20.514C96.8029 20.631 96.4712 20.6895 96.1201 20.6895ZM96.2137 19.8234C96.6273 19.8234 96.9784 19.7453 97.2672 19.5893C97.5637 19.4254 97.79 19.2069 97.9461 18.9338C98.1021 18.6529 98.1802 18.3407 98.1802 17.9974V17.5526L96.1669 17.9272C95.7455 18.0052 95.4529 18.1262 95.289 18.29C95.133 18.4461 95.0549 18.6529 95.0549 18.9104C95.0549 19.1991 95.1564 19.4254 95.3593 19.5893C95.57 19.7453 95.8548 19.8234 96.2137 19.8234ZM102.81 20.5491C102.248 20.5491 101.83 20.4203 101.557 20.1628C101.292 19.9053 101.159 19.5034 101.159 18.9572V12.8941H102.142V18.9338C102.142 19.2147 102.205 19.4098 102.33 19.519C102.454 19.6283 102.646 19.6829 102.903 19.6829H103.793V20.5491H102.81ZM100.246 15.2116V14.3455H103.793V15.2116H100.246ZM105.054 20.5491V14.3455H106.037V20.5491H105.054ZM105.03 13.374V12.2269H106.06V13.374H105.03ZM110.22 20.6895C109.65 20.6895 109.151 20.5569 108.722 20.2916C108.293 20.0263 107.961 19.6517 107.727 19.1679C107.493 18.6763 107.376 18.1027 107.376 17.4473C107.376 16.784 107.493 16.2104 107.727 15.7266C107.961 15.2428 108.293 14.8683 108.722 14.603C109.151 14.3377 109.65 14.205 110.22 14.205C110.79 14.205 111.285 14.3377 111.707 14.603C112.136 14.8683 112.467 15.2428 112.702 15.7266C112.936 16.2104 113.053 16.784 113.053 17.4473C113.053 18.1027 112.936 18.6763 112.702 19.1679C112.467 19.6517 112.136 20.0263 111.707 20.2916C111.285 20.5569 110.79 20.6895 110.22 20.6895ZM110.22 19.7531C110.79 19.7531 111.231 19.5503 111.543 19.1445C111.863 18.7309 112.023 18.1652 112.023 17.4473C112.023 16.7294 111.863 16.1675 111.543 15.7618C111.231 15.3482 110.79 15.1414 110.22 15.1414C109.65 15.1414 109.206 15.3482 108.886 15.7618C108.566 16.1675 108.406 16.7294 108.406 17.4473C108.406 18.1652 108.566 18.7309 108.886 19.1445C109.206 19.5503 109.65 19.7531 110.22 19.7531ZM114.393 20.5491V14.3455H115.294L115.329 15.9256L115.212 15.8203C115.29 15.4535 115.427 15.1531 115.622 14.919C115.817 14.6771 116.051 14.4976 116.324 14.3806C116.605 14.2635 116.905 14.205 117.225 14.205C117.701 14.205 118.091 14.3104 118.396 14.521C118.708 14.7317 118.938 15.0165 119.086 15.3755C119.242 15.7266 119.32 16.1207 119.32 16.5577V20.5491H118.337V16.8386C118.337 16.4563 118.29 16.1363 118.197 15.8788C118.111 15.6135 117.97 15.4145 117.775 15.2819C117.58 15.1414 117.327 15.0712 117.015 15.0712C116.539 15.0712 116.144 15.2233 115.832 15.5277C115.528 15.8242 115.376 16.2612 115.376 16.8386V20.5491H114.393Z" fill="white"/>
</g>
<g filter="url(#filter2_d_1094_994)">
<mask id="path-8-inside-1_1094_994" fill="white">
<path d="M5 31.0984H232.41V72.4754H5V31.0984Z"/>
</mask>
<path d="M5 31.0984H232.41V72.4754H5V31.0984Z" fill="#171717" shape-rendering="crispEdges"/>
<path d="M5 31.0984V31.9345H232.41V31.0984V30.2623H5V31.0984Z" fill="#222222" mask="url(#path-8-inside-1_1094_994)"/>
<rect x="11.6895" y="37.7869" width="16.7213" height="16.7213" rx="8.36066" fill="url(#paint0_linear_1094_994)"/>
<g clip-path="url(#clip2_1094_994)">
<path d="M24.7543 49.2828H24.1273V44.8935C24.2104 44.8935 24.2902 44.8604 24.349 44.8016C24.4078 44.7428 24.4408 44.6631 24.4408 44.5799C24.4408 44.4968 24.4078 44.417 24.349 44.3582C24.2902 44.2994 24.2104 44.2664 24.1273 44.2664H22.2461V43.0123C22.3293 43.0123 22.409 42.9793 22.4678 42.9205C22.5266 42.8617 22.5597 42.7819 22.5597 42.6988C22.5597 42.6156 22.5266 42.5359 22.4678 42.4771C22.409 42.4183 22.3293 42.3853 22.2461 42.3853H16.6027C16.5195 42.3853 16.4398 42.4183 16.381 42.4771C16.3222 42.5359 16.2892 42.6156 16.2892 42.6988C16.2892 42.7819 16.3222 42.8617 16.381 42.9205C16.4398 42.9793 16.5195 43.0123 16.6027 43.0123V49.2828H15.9756C15.8925 49.2828 15.8127 49.3158 15.7539 49.3746C15.6951 49.4334 15.6621 49.5132 15.6621 49.5963C15.6621 49.6795 15.6951 49.7592 15.7539 49.818C15.8127 49.8768 15.8925 49.9098 15.9756 49.9098H24.7543C24.8375 49.9098 24.9172 49.8768 24.976 49.818C25.0348 49.7592 25.0678 49.6795 25.0678 49.5963C25.0678 49.5132 25.0348 49.4334 24.976 49.3746C24.9172 49.3158 24.8375 49.2828 24.7543 49.2828ZM18.1703 43.9529H18.7974C18.8805 43.9529 18.9603 43.9859 19.0191 44.0447C19.0778 44.1035 19.1109 44.1832 19.1109 44.2664C19.1109 44.3496 19.0778 44.4293 19.0191 44.4881C18.9603 44.5469 18.8805 44.5799 18.7974 44.5799H18.1703C18.0872 44.5799 18.0074 44.5469 17.9486 44.4881C17.8898 44.4293 17.8568 44.3496 17.8568 44.2664C17.8568 44.1832 17.8898 44.1035 17.9486 44.0447C18.0074 43.9859 18.0872 43.9529 18.1703 43.9529ZM17.8568 45.834C17.8568 45.7509 17.8898 45.6711 17.9486 45.6123C18.0074 45.5535 18.0872 45.5205 18.1703 45.5205H18.7974C18.8805 45.5205 18.9603 45.5535 19.0191 45.6123C19.0778 45.6711 19.1109 45.7509 19.1109 45.834C19.1109 45.9172 19.0778 45.9969 19.0191 46.0557C18.9603 46.1145 18.8805 46.1475 18.7974 46.1475H18.1703C18.0872 46.1475 18.0074 46.1145 17.9486 46.0557C17.8898 45.9969 17.8568 45.9172 17.8568 45.834ZM20.365 49.2828H18.4838V47.4016H20.365V49.2828ZM20.6785 46.1475H20.0515C19.9683 46.1475 19.8886 46.1145 19.8298 46.0557C19.771 45.9969 19.7379 45.9172 19.7379 45.834C19.7379 45.7509 19.771 45.6711 19.8298 45.6123C19.8886 45.5535 19.9683 45.5205 20.0515 45.5205H20.6785C20.7617 45.5205 20.8414 45.5535 20.9002 45.6123C20.959 45.6711 20.992 45.7509 20.992 45.834C20.992 45.9172 20.959 45.9969 20.9002 46.0557C20.8414 46.1145 20.7617 46.1475 20.6785 46.1475ZM20.6785 44.5799H20.0515C19.9683 44.5799 19.8886 44.5469 19.8298 44.4881C19.771 44.4293 19.7379 44.3496 19.7379 44.2664C19.7379 44.1832 19.771 44.1035 19.8298 44.0447C19.8886 43.9859 19.9683 43.9529 20.0515 43.9529H20.6785C20.7617 43.9529 20.8414 43.9859 20.9002 44.0447C20.959 44.1035 20.992 44.1832 20.992 44.2664C20.992 44.3496 20.959 44.4293 20.9002 44.4881C20.8414 44.5469 20.7617 44.5799 20.6785 44.5799ZM23.5002 49.2828H22.2461V44.8935H23.5002V49.2828Z" fill="white"/>
</g>
<path d="M36.1765 49.7869V41.4764H37.5811L40.2381 48.6866L42.8834 41.4764H44.288V49.7869H43.2813V43.3492L40.9052 49.7869H39.5592L37.1831 43.3492V49.7869H36.1765ZM48.6093 49.9273C48.0396 49.9273 47.5402 49.7947 47.111 49.5294C46.6819 49.264 46.3502 48.8895 46.1161 48.4057C45.882 47.9141 45.765 47.3405 45.765 46.6851C45.765 46.0218 45.882 45.4482 46.1161 44.9644C46.3502 44.4806 46.6819 44.1061 47.111 43.8408C47.5402 43.5755 48.0396 43.4428 48.6093 43.4428C49.1789 43.4428 49.6744 43.5755 50.0958 43.8408C50.525 44.1061 50.8566 44.4806 51.0907 44.9644C51.3248 45.4482 51.4419 46.0218 51.4419 46.6851C51.4419 47.3405 51.3248 47.9141 51.0907 48.4057C50.8566 48.8895 50.525 49.264 50.0958 49.5294C49.6744 49.7947 49.1789 49.9273 48.6093 49.9273ZM48.6093 48.9909C49.1789 48.9909 49.6198 48.788 49.9319 48.3823C50.2519 47.9687 50.4118 47.403 50.4118 46.6851C50.4118 45.9672 50.2519 45.4053 49.9319 44.9996C49.6198 44.586 49.1789 44.3792 48.6093 44.3792C48.0396 44.3792 47.5949 44.586 47.2749 44.9996C46.955 45.4053 46.795 45.9672 46.795 46.6851C46.795 47.403 46.955 47.9687 47.2749 48.3823C47.5949 48.788 48.0396 48.9909 48.6093 48.9909ZM52.7818 49.7869V43.5833H53.6831L53.7182 45.1634L53.6012 45.0581C53.6792 44.6913 53.8157 44.3909 54.0108 44.1568C54.2059 43.9149 54.44 43.7354 54.7131 43.6184C54.994 43.5013 55.2945 43.4428 55.6144 43.4428C56.0904 43.4428 56.4806 43.5481 56.7849 43.7588C57.097 43.9695 57.3272 44.2543 57.4755 44.6133C57.6315 44.9644 57.7096 45.3585 57.7096 45.7955V49.7869H56.7264V46.0764C56.7264 45.694 56.6795 45.3741 56.5859 45.1166C56.5001 44.8513 56.3596 44.6523 56.1645 44.5197C55.9694 44.3792 55.7158 44.309 55.4037 44.309C54.9277 44.309 54.5336 44.4611 54.2215 44.7655C53.9172 45.062 53.765 45.499 53.765 46.0764V49.7869H52.7818ZM59.4687 49.7869V41.4764H60.4519V46.9192L63.4718 43.5833H64.7827L62.3364 46.2169L64.8881 49.7869H63.6942L61.6692 46.884L60.4519 48.1716V49.7869H59.4687ZM67.1786 49.7869C66.8196 49.7869 66.527 49.6932 66.3007 49.5059C66.0744 49.3187 65.9613 49.0221 65.9613 48.6164V41.4764H66.9445V48.5344C66.9445 48.6593 66.9757 48.7568 67.0381 48.8271C67.1084 48.8895 67.2059 48.9207 67.3307 48.9207H67.8692V49.7869H67.1786ZM70.7556 49.9273C70.1158 49.9273 69.6046 49.7791 69.2223 49.4825C68.8477 49.186 68.6604 48.7724 68.6604 48.2418C68.6604 47.7112 68.8165 47.2937 69.1286 46.9894C69.4408 46.6851 69.9363 46.4705 70.6152 46.3456L72.8157 45.9359C72.8157 45.4131 72.6908 45.023 72.4411 44.7655C72.1992 44.5079 71.8325 44.3792 71.3409 44.3792C70.9117 44.3792 70.5722 44.4767 70.3225 44.6718C70.0728 44.8591 69.9012 45.1322 69.8075 45.4912L68.7658 45.4092C68.8828 44.824 69.1638 44.3519 69.6085 43.9929C70.0611 43.6262 70.6386 43.4428 71.3409 43.4428C72.1368 43.4428 72.7455 43.6691 73.1668 44.1217C73.5882 44.5665 73.7989 45.1829 73.7989 45.9711V48.5344C73.7989 48.6749 73.8223 48.7763 73.8691 48.8388C73.9238 48.8934 74.0096 48.9207 74.1266 48.9207H74.3724V49.7869C74.3412 49.7947 74.2905 49.7986 74.2203 49.7986C74.1501 49.8064 74.0759 49.8103 73.9979 49.8103C73.717 49.8103 73.4868 49.7674 73.3073 49.6815C73.1356 49.5879 73.0108 49.4474 72.9327 49.2601C72.8547 49.0651 72.8157 48.8115 72.8157 48.4993L72.9327 48.5227C72.8781 48.788 72.7455 49.0299 72.5348 49.2484C72.3241 49.4591 72.0627 49.6269 71.7505 49.7518C71.4384 49.8688 71.1068 49.9273 70.7556 49.9273ZM70.8493 49.0612C71.2628 49.0612 71.614 48.9831 71.9027 48.8271C72.1992 48.6632 72.4255 48.4447 72.5816 48.1716C72.7377 47.8907 72.8157 47.5785 72.8157 47.2352V46.7904L70.8024 47.165C70.3811 47.243 70.0884 47.3639 69.9246 47.5278C69.7685 47.6839 69.6905 47.8907 69.6905 48.1482C69.6905 48.4369 69.7919 48.6632 69.9948 48.8271C70.2055 48.9831 70.4903 49.0612 70.8493 49.0612ZM78.2815 49.9273C77.8523 49.9273 77.47 49.8337 77.1344 49.6464C76.7989 49.4513 76.5414 49.186 76.3619 48.8505L76.3268 49.7869H75.4372V41.4764H76.4204V44.4494C76.5765 44.1919 76.8184 43.9617 77.1461 43.7588C77.4739 43.5481 77.8523 43.4428 78.2815 43.4428C78.8277 43.4428 79.2998 43.5755 79.6978 43.8408C80.0958 44.1061 80.404 44.4806 80.6225 44.9644C80.841 45.4482 80.9502 46.0218 80.9502 46.6851C80.9502 47.3483 80.841 47.9219 80.6225 48.4057C80.404 48.8895 80.0958 49.264 79.6978 49.5294C79.2998 49.7947 78.8277 49.9273 78.2815 49.9273ZM78.223 48.9909C78.7458 48.9909 79.1594 48.7841 79.4637 48.3706C79.768 47.957 79.9202 47.3952 79.9202 46.6851C79.9202 45.9672 79.768 45.4053 79.4637 44.9996C79.1594 44.586 78.7536 44.3792 78.2464 44.3792C77.864 44.3792 77.5363 44.4728 77.2632 44.6601C76.9901 44.8396 76.7794 45.101 76.6311 45.4443C76.4907 45.7877 76.4204 46.2013 76.4204 46.6851C76.4204 47.1533 76.4907 47.5629 76.6311 47.9141C76.7794 48.2574 76.9862 48.5227 77.2515 48.71C77.5246 48.8973 77.8484 48.9909 78.223 48.9909ZM84.5432 49.9273C83.9892 49.9273 83.5171 49.8376 83.1269 49.6581C82.7445 49.4786 82.4441 49.2328 82.2256 48.9207C82.0149 48.6008 81.894 48.2379 81.8628 47.8321L82.8928 47.7619C82.9552 48.1365 83.1152 48.4369 83.3727 48.6632C83.6302 48.8817 84.0204 48.9909 84.5432 48.9909C84.9646 48.9909 85.3001 48.9246 85.5498 48.7919C85.8073 48.6515 85.9361 48.4291 85.9361 48.1248C85.9361 47.9609 85.8971 47.8243 85.819 47.7151C85.741 47.6058 85.5888 47.5122 85.3625 47.4342C85.1362 47.3483 84.8007 47.2664 84.3559 47.1884C83.7629 47.0791 83.2947 46.9465 82.9513 46.7904C82.6158 46.6265 82.3739 46.4276 82.2256 46.1935C82.0852 45.9516 82.0149 45.6667 82.0149 45.339C82.0149 44.785 82.2178 44.3324 82.6236 43.9812C83.0294 43.6223 83.6068 43.4428 84.3559 43.4428C84.8631 43.4428 85.2884 43.5364 85.6318 43.7237C85.9829 43.9032 86.256 44.1451 86.4511 44.4494C86.654 44.7459 86.7866 45.0737 86.8491 45.4326L85.819 45.5029C85.7722 45.2844 85.6864 45.0932 85.5615 44.9293C85.4367 44.7577 85.2728 44.625 85.0699 44.5314C84.867 44.4299 84.6251 44.3792 84.3442 44.3792C83.8994 44.3792 83.5717 44.465 83.361 44.6367C83.1503 44.8084 83.045 45.0269 83.045 45.2922C83.045 45.4951 83.0918 45.6628 83.1854 45.7955C83.2869 45.9203 83.4468 46.0257 83.6653 46.1115C83.8838 46.1896 84.1764 46.2598 84.5432 46.3222C85.1753 46.4315 85.6669 46.5641 86.018 46.7202C86.3692 46.8762 86.615 47.0674 86.7554 47.2937C86.8959 47.52 86.9661 47.797 86.9661 48.1248C86.9661 48.5071 86.8569 48.8349 86.6384 49.108C86.4277 49.3733 86.139 49.5762 85.7722 49.7166C85.4133 49.8571 85.0036 49.9273 84.5432 49.9273Z" fill="white"/>
<path d="M37.4372 62.7869V56.5063H35.22V55.6636H40.5173V56.5063H38.3001V62.7869H37.4372ZM42.7113 62.9073C42.2096 62.9073 41.7749 62.7936 41.407 62.5661C41.0458 62.3387 40.7649 62.0177 40.5643 61.603C40.3703 61.1816 40.2733 60.69 40.2733 60.1282C40.2733 59.5663 40.3703 59.0781 40.5643 58.6634C40.7649 58.2487 41.0425 57.9277 41.397 57.7002C41.7582 57.4661 42.1829 57.3491 42.6712 57.3491C43.1327 57.3491 43.5407 57.4595 43.8952 57.6802C44.2496 57.8942 44.5239 58.2086 44.7178 58.6233C44.9185 59.0379 45.0188 59.5429 45.0188 60.1382V60.389H41.1562C41.1896 60.9576 41.3401 61.3856 41.6077 61.6732C41.8819 61.9608 42.2498 62.1046 42.7113 62.1046C43.0591 62.1046 43.3433 62.0244 43.5641 61.8638C43.7915 61.6966 43.9487 61.4793 44.0356 61.2117L44.9386 61.2819C44.7981 61.7568 44.5306 62.1481 44.1359 62.4558C43.748 62.7568 43.2731 62.9073 42.7113 62.9073ZM41.1562 59.6466H44.0958C44.0557 59.1316 43.9052 58.7537 43.6443 58.5129C43.3902 58.2721 43.0658 58.1517 42.6712 58.1517C42.2632 58.1517 41.9254 58.2788 41.6578 58.533C41.397 58.7804 41.2298 59.1517 41.1562 59.6466ZM47.7322 62.9073C47.1838 62.9073 46.7457 62.7802 46.4179 62.526C46.0969 62.2718 45.9364 61.9174 45.9364 61.4625C45.9364 61.0077 46.0701 60.6499 46.3377 60.389C46.6052 60.1282 47.0299 59.9442 47.6118 59.8372L49.498 59.4861C49.498 59.0379 49.391 58.7035 49.1769 58.4828C48.9696 58.2621 48.6552 58.1517 48.2339 58.1517C47.866 58.1517 47.575 58.2353 47.361 58.4025C47.147 58.5631 46.9998 58.7972 46.9196 59.1048L46.0266 59.0346C46.127 58.533 46.3678 58.1283 46.749 57.8206C47.1369 57.5063 47.6319 57.3491 48.2339 57.3491C48.9161 57.3491 49.4378 57.5431 49.799 57.931C50.1602 58.3122 50.3407 58.8406 50.3407 59.5162V61.7134C50.3407 61.8338 50.3608 61.9207 50.4009 61.9742C50.4478 62.021 50.5213 62.0444 50.6217 62.0444H50.8324V62.7869C50.8056 62.7936 50.7621 62.7969 50.7019 62.7969C50.6417 62.8036 50.5782 62.8069 50.5113 62.8069C50.2705 62.8069 50.0732 62.7701 49.9194 62.6966C49.7722 62.6163 49.6652 62.4959 49.5983 62.3354C49.5314 62.1682 49.498 61.9508 49.498 61.6833L49.5983 61.7033C49.5515 61.9307 49.4378 62.1381 49.2572 62.3254C49.0766 62.5059 48.8525 62.6498 48.585 62.7568C48.3175 62.8571 48.0332 62.9073 47.7322 62.9073ZM47.8125 62.1648C48.167 62.1648 48.468 62.0979 48.7154 61.9642C48.9696 61.8237 49.1636 61.6364 49.2973 61.4023C49.4311 61.1616 49.498 60.894 49.498 60.5997V60.2185L47.7724 60.5395C47.4112 60.6064 47.1604 60.7101 47.0199 60.8505C46.8861 60.9843 46.8192 61.1616 46.8192 61.3823C46.8192 61.6298 46.9062 61.8237 47.0801 61.9642C47.2607 62.0979 47.5048 62.1648 47.8125 62.1648ZM51.7842 62.7869V57.4695H52.5567L52.5868 58.8139L52.4664 58.7738C52.5266 58.4795 52.6303 58.2286 52.7775 58.0213C52.9313 57.8073 53.1186 57.6434 53.3393 57.5297C53.56 57.4093 53.8041 57.3491 54.0717 57.3491C54.5332 57.3491 54.9078 57.4762 55.1954 57.7303C55.4897 57.9845 55.6736 58.339 55.7472 58.7938L55.5866 58.7838C55.6401 58.4761 55.7371 58.2186 55.8776 58.0113C56.0247 57.7972 56.212 57.6334 56.4394 57.5197C56.6668 57.4059 56.9277 57.3491 57.222 57.3491C57.6032 57.3491 57.9243 57.4294 58.1851 57.5899C58.446 57.7437 58.6433 57.9711 58.7771 58.2721C58.9108 58.5731 58.9777 58.9376 58.9777 59.3657V62.7869H58.135V59.5463C58.135 59.0647 58.0413 58.7035 57.8541 58.4627C57.6668 58.2153 57.3892 58.0915 57.0213 58.0915C56.7739 58.0915 56.5565 58.1517 56.3692 58.2721C56.1886 58.3925 56.0481 58.5664 55.9478 58.7938C55.8475 59.0145 55.7973 59.2854 55.7973 59.6065V62.7869H54.9546V59.6065C54.9546 59.1316 54.871 58.7604 54.7038 58.4928C54.5365 58.2253 54.2556 58.0915 53.861 58.0915C53.6135 58.0915 53.3961 58.1517 53.2089 58.2721C53.0283 58.3925 52.8845 58.5664 52.7775 58.7938C52.6771 59.0212 52.627 59.2921 52.627 59.6065V62.7869H51.7842Z" fill="#A1A1A1"/>
<rect x="163.729" y="42.1722" width="61.5738" height="19.2295" rx="6.27049" fill="#222222"/>
<rect x="163.729" y="42.1722" width="61.5738" height="19.2295" rx="6.27049" stroke="#333333" stroke-width="0.836066"/>
<g clip-path="url(#clip3_1094_994)">
<path d="M173.341 53.459C174.265 53.459 175.013 52.7104 175.013 51.7869C175.013 50.8634 174.265 50.1148 173.341 50.1148C172.418 50.1148 171.669 50.8634 171.669 51.7869C171.669 52.7104 172.418 53.459 173.341 53.459Z" stroke="white" stroke-width="0.836066" stroke-linecap="round" stroke-linejoin="round"/>
<path d="M177.091 53.307C177.024 53.4599 177.003 53.6294 177.033 53.7938C177.063 53.9581 177.141 54.1098 177.258 54.2292L177.289 54.2596C177.383 54.3538 177.458 54.4655 177.509 54.5885C177.56 54.7116 177.586 54.8434 177.586 54.9766C177.586 55.1098 177.56 55.2417 177.509 55.3647C177.458 55.4877 177.383 55.5995 177.289 55.6936C177.194 55.7878 177.083 55.8626 176.96 55.9136C176.837 55.9646 176.705 55.9908 176.572 55.9908C176.438 55.9908 176.307 55.9646 176.184 55.9136C176.061 55.8626 175.949 55.7878 175.855 55.6936L175.824 55.6632C175.705 55.5464 175.553 55.468 175.389 55.4382C175.224 55.4084 175.055 55.4285 174.902 55.496C174.752 55.5602 174.624 55.6669 174.534 55.8028C174.444 55.9388 174.396 56.0981 174.395 56.2611V56.3473C174.395 56.616 174.289 56.8738 174.098 57.0639C173.908 57.2539 173.651 57.3607 173.382 57.3607C173.113 57.3607 172.855 57.2539 172.665 57.0639C172.475 56.8738 172.368 56.616 172.368 56.3473V56.3017C172.365 56.1339 172.31 55.9713 172.213 55.8348C172.115 55.6984 171.979 55.5944 171.821 55.5365C171.668 55.4691 171.499 55.449 171.334 55.4788C171.17 55.5086 171.018 55.5869 170.899 55.7037L170.869 55.7341C170.775 55.8284 170.663 55.9031 170.54 55.9541C170.417 56.0051 170.285 56.0314 170.152 56.0314C170.018 56.0314 169.887 56.0051 169.764 55.9541C169.641 55.9031 169.529 55.8284 169.435 55.7341C169.34 55.64 169.266 55.5283 169.215 55.4052C169.164 55.2822 169.137 55.1503 169.137 55.0172C169.137 54.884 169.164 54.7521 169.215 54.6291C169.266 54.5061 169.34 54.3943 169.435 54.3002L169.465 54.2698C169.582 54.1503 169.66 53.9987 169.69 53.8343C169.72 53.6699 169.7 53.5004 169.632 53.3476C169.568 53.1977 169.461 53.0699 169.325 52.9798C169.189 52.8898 169.03 52.8415 168.867 52.8409H168.781C168.512 52.8409 168.254 52.7341 168.064 52.544C167.874 52.354 167.768 52.0962 167.768 51.8274C167.768 51.5587 167.874 51.3009 168.064 51.1109C168.254 50.9208 168.512 50.814 168.781 50.814H168.827C168.994 50.8101 169.157 50.7558 169.293 50.6582C169.43 50.5606 169.534 50.4242 169.592 50.2668C169.659 50.114 169.679 49.9444 169.649 49.7801C169.62 49.6157 169.541 49.464 169.425 49.3446L169.394 49.3142C169.3 49.2201 169.225 49.1083 169.174 48.9853C169.123 48.8622 169.097 48.7304 169.097 48.5972C169.097 48.464 169.123 48.3321 169.174 48.2091C169.225 48.0861 169.3 47.9743 169.394 47.8802C169.488 47.786 169.6 47.7112 169.723 47.6602C169.846 47.6092 169.978 47.583 170.111 47.583C170.244 47.583 170.376 47.6092 170.499 47.6602C170.622 47.7112 170.734 47.786 170.828 47.8802L170.858 47.9106C170.978 48.0274 171.13 48.1058 171.294 48.1356C171.458 48.1654 171.628 48.1453 171.781 48.0778H171.821C171.971 48.0136 172.099 47.9069 172.189 47.771C172.279 47.635 172.327 47.4757 172.328 47.3127V47.2265C172.328 46.9578 172.435 46.7 172.625 46.51C172.815 46.3199 173.073 46.2131 173.341 46.2131C173.61 46.2131 173.868 46.3199 174.058 46.51C174.248 46.7 174.355 46.9578 174.355 47.2265V47.2722C174.355 47.4352 174.404 47.5945 174.494 47.7304C174.584 47.8664 174.712 47.973 174.861 48.0373C175.014 48.1047 175.184 48.1248 175.348 48.095C175.513 48.0652 175.664 47.9869 175.784 47.8701L175.814 47.8397C175.908 47.7454 176.02 47.6707 176.143 47.6197C176.266 47.5687 176.398 47.5424 176.531 47.5424C176.664 47.5424 176.796 47.5687 176.919 47.6197C177.042 47.6707 177.154 47.7454 177.248 47.8397C177.342 47.9338 177.417 48.0455 177.468 48.1686C177.519 48.2916 177.545 48.4235 177.545 48.5567C177.545 48.6898 177.519 48.8217 177.468 48.9447C177.417 49.0678 177.342 49.1795 177.248 49.2736L177.218 49.304C177.101 49.4235 177.022 49.5751 176.993 49.7395C176.963 49.9039 176.983 50.0734 177.05 50.2263V50.2668C177.115 50.4167 177.221 50.5445 177.357 50.6345C177.493 50.7245 177.653 50.7728 177.816 50.7735H177.902C178.17 50.7735 178.428 50.8803 178.618 51.0703C178.808 51.2604 178.915 51.5181 178.915 51.7869C178.915 52.0557 178.808 52.3134 178.618 52.5035C178.428 52.6935 178.17 52.8003 177.902 52.8003H177.856C177.693 52.801 177.534 52.8493 177.398 52.9393C177.262 53.0293 177.155 53.1572 177.091 53.307Z" stroke="white" stroke-width="0.836066" stroke-linecap="round" stroke-linejoin="round"/>
</g>
<path d="M184.179 48.4904H185.515L187.838 54.1624H187.923L190.246 48.4904H191.582V55.787H190.535V50.5069H190.467L188.315 55.7763H187.446L185.294 50.5034H185.226V55.787H184.179V48.4904ZM194.69 55.9081C194.343 55.9081 194.029 55.844 193.749 55.7157C193.469 55.5851 193.247 55.3963 193.083 55.1492C192.921 54.9022 192.841 54.5994 192.841 54.2407C192.841 53.932 192.9 53.6778 193.019 53.4783C193.137 53.2788 193.298 53.1208 193.5 53.0045C193.702 52.8881 193.927 52.8002 194.177 52.7408C194.426 52.6814 194.68 52.6363 194.939 52.6054C195.267 52.5674 195.533 52.5365 195.737 52.5128C195.941 52.4867 196.09 52.4451 196.182 52.3881C196.275 52.3311 196.321 52.2385 196.321 52.1102V52.0853C196.321 51.7741 196.234 51.533 196.058 51.362C195.884 51.191 195.625 51.1055 195.281 51.1055C194.922 51.1055 194.64 51.1851 194.433 51.3442C194.229 51.501 194.088 51.6755 194.009 51.8679L193.008 51.6399C193.127 51.3074 193.3 51.039 193.528 50.8347C193.759 50.6281 194.023 50.4784 194.323 50.3858C194.622 50.2908 194.937 50.2433 195.267 50.2433C195.485 50.2433 195.717 50.2694 195.962 50.3217C196.209 50.3716 196.439 50.4642 196.653 50.5996C196.869 50.735 197.046 50.9285 197.184 51.1803C197.321 51.4297 197.39 51.7539 197.39 52.153V55.787H196.35V55.0388H196.307C196.238 55.1766 196.135 55.312 195.997 55.445C195.859 55.578 195.682 55.6884 195.466 55.7763C195.25 55.8642 194.991 55.9081 194.69 55.9081ZM194.921 55.0531C195.216 55.0531 195.468 54.9949 195.677 54.8785C195.888 54.7621 196.048 54.6101 196.158 54.4224C196.269 54.2324 196.325 54.0293 196.325 53.8132V53.1078C196.287 53.1458 196.213 53.1814 196.104 53.2147C195.997 53.2455 195.875 53.2729 195.737 53.2966C195.599 53.318 195.465 53.3382 195.335 53.3572C195.204 53.3738 195.095 53.388 195.007 53.3999C194.8 53.4261 194.611 53.47 194.44 53.5317C194.272 53.5935 194.136 53.6826 194.034 53.799C193.934 53.913 193.884 54.065 193.884 54.255C193.884 54.5186 193.982 54.7182 194.177 54.8535C194.371 54.9865 194.62 55.0531 194.921 55.0531ZM199.874 52.5377V55.787H198.809V50.3146H199.832V51.2053H199.899C200.025 50.9155 200.222 50.6827 200.491 50.5069C200.762 50.3312 201.102 50.2433 201.513 50.2433C201.886 50.2433 202.213 50.3217 202.493 50.4784C202.773 50.6328 202.991 50.8632 203.145 51.1696C203.299 51.476 203.377 51.8549 203.377 52.3062V55.787H202.311V52.4344C202.311 52.0378 202.208 51.7278 202.001 51.5045C201.795 51.2789 201.511 51.1661 201.15 51.1661C200.903 51.1661 200.683 51.2195 200.491 51.3264C200.301 51.4333 200.15 51.59 200.038 51.7967C199.929 52.0009 199.874 52.248 199.874 52.5377ZM206.398 55.9081C206.051 55.9081 205.738 55.844 205.457 55.7157C205.177 55.5851 204.955 55.3963 204.791 55.1492C204.63 54.9022 204.549 54.5994 204.549 54.2407C204.549 53.932 204.608 53.6778 204.727 53.4783C204.846 53.2788 205.006 53.1208 205.208 53.0045C205.41 52.8881 205.635 52.8002 205.885 52.7408C206.134 52.6814 206.388 52.6363 206.647 52.6054C206.975 52.5674 207.241 52.5365 207.445 52.5128C207.65 52.4867 207.798 52.4451 207.891 52.3881C207.983 52.3311 208.03 52.2385 208.03 52.1102V52.0853C208.03 51.7741 207.942 51.533 207.766 51.362C207.593 51.191 207.334 51.1055 206.989 51.1055C206.631 51.1055 206.348 51.1851 206.141 51.3442C205.937 51.501 205.796 51.6755 205.717 51.8679L204.716 51.6399C204.835 51.3074 205.008 51.039 205.236 50.8347C205.467 50.6281 205.732 50.4784 206.031 50.3858C206.33 50.2908 206.645 50.2433 206.975 50.2433C207.194 50.2433 207.425 50.2694 207.67 50.3217C207.917 50.3716 208.147 50.4642 208.361 50.5996C208.577 50.735 208.754 50.9285 208.892 51.1803C209.03 51.4297 209.098 51.7539 209.098 52.153V55.787H208.058V55.0388H208.015C207.946 55.1766 207.843 55.312 207.705 55.445C207.568 55.578 207.391 55.6884 207.175 55.7763C206.958 55.8642 206.7 55.9081 206.398 55.9081ZM206.629 55.0531C206.924 55.0531 207.176 54.9949 207.385 54.8785C207.596 54.7621 207.756 54.6101 207.866 54.4224C207.977 54.2324 208.033 54.0293 208.033 53.8132V53.1078C207.995 53.1458 207.922 53.1814 207.812 53.2147C207.705 53.2455 207.583 53.2729 207.445 53.2966C207.308 53.318 207.173 53.3382 207.043 53.3572C206.912 53.3738 206.803 53.388 206.715 53.3999C206.508 53.4261 206.319 53.47 206.148 53.5317C205.98 53.5935 205.844 53.6826 205.742 53.799C205.643 53.913 205.593 54.065 205.593 54.255C205.593 54.5186 205.69 54.7182 205.885 54.8535C206.08 54.9865 206.328 55.0531 206.629 55.0531ZM212.812 57.9532C212.377 57.9532 212.003 57.8962 211.689 57.7821C211.378 57.6681 211.124 57.5173 210.927 57.3297C210.73 57.142 210.583 56.9366 210.485 56.7133L211.401 56.3357C211.465 56.4402 211.551 56.5506 211.657 56.667C211.767 56.7858 211.914 56.8867 212.099 56.9698C212.287 57.053 212.528 57.0945 212.822 57.0945C213.226 57.0945 213.56 56.996 213.824 56.7988C214.087 56.6041 214.219 56.2929 214.219 55.8654V54.7894H214.151C214.087 54.9058 213.995 55.0352 213.873 55.1778C213.755 55.3203 213.591 55.4438 213.382 55.5483C213.173 55.6528 212.901 55.705 212.566 55.705C212.134 55.705 211.744 55.6041 211.397 55.4022C211.053 55.1979 210.78 54.8975 210.578 54.5008C210.378 54.1018 210.279 53.6113 210.279 53.0294C210.279 52.4475 210.377 51.9487 210.574 51.533C210.774 51.1174 211.047 50.7991 211.394 50.5782C211.741 50.3549 212.134 50.2433 212.573 50.2433C212.913 50.2433 213.187 50.3003 213.396 50.4143C213.605 50.5259 213.768 50.6566 213.884 50.8062C214.003 50.9559 214.094 51.0877 214.158 51.2017H214.237V50.3146H215.281V55.9081C215.281 56.3784 215.171 56.7644 214.953 57.066C214.734 57.3677 214.439 57.5909 214.066 57.7358C213.695 57.8807 213.277 57.9532 212.812 57.9532ZM212.801 54.8215C213.107 54.8215 213.366 54.7502 213.578 54.6077C213.792 54.4628 213.953 54.2562 214.062 53.9878C214.174 53.717 214.23 53.3928 214.23 53.0151C214.23 52.647 214.175 52.3228 214.066 52.0425C213.957 51.7622 213.796 51.5437 213.585 51.387C213.373 51.2278 213.112 51.1482 212.801 51.1482C212.48 51.1482 212.213 51.2314 211.999 51.3976C211.786 51.5615 211.624 51.7848 211.515 52.0674C211.408 52.3501 211.355 52.666 211.355 53.0151C211.355 53.3738 211.409 53.6885 211.518 53.9593C211.628 54.2301 211.789 54.4414 212.003 54.5935C212.219 54.7455 212.485 54.8215 212.801 54.8215ZM219.068 55.8974C218.529 55.8974 218.064 55.7822 217.675 55.5518C217.288 55.3191 216.989 54.9925 216.777 54.5721C216.568 54.1493 216.464 53.6541 216.464 53.0864C216.464 52.5259 216.568 52.0318 216.777 51.6043C216.989 51.1768 217.283 50.843 217.661 50.6031C218.041 50.3632 218.485 50.2433 218.993 50.2433C219.302 50.2433 219.601 50.2944 219.891 50.3965C220.181 50.4986 220.441 50.659 220.671 50.8775C220.902 51.096 221.083 51.3798 221.216 51.729C221.349 52.0758 221.416 52.4974 221.416 52.9938V53.3714H217.066V52.5734H220.372C220.372 52.2931 220.315 52.0449 220.201 51.8287C220.087 51.6102 219.927 51.438 219.72 51.3121C219.516 51.1863 219.276 51.1233 219 51.1233C218.701 51.1233 218.44 51.1969 218.216 51.3442C217.996 51.4891 217.825 51.6791 217.703 51.9142C217.585 52.147 217.525 52.4 217.525 52.6731V53.2966C217.525 53.6624 217.589 53.9735 217.718 54.2301C217.848 54.4866 218.03 54.6825 218.263 54.8179C218.496 54.9509 218.768 55.0174 219.079 55.0174C219.281 55.0174 219.465 54.9889 219.631 54.9319C219.797 54.8725 219.941 54.7847 220.062 54.6683C220.183 54.5519 220.276 54.4082 220.34 54.2372L221.348 54.4189C221.267 54.7158 221.123 54.9759 220.914 55.1991C220.707 55.42 220.447 55.5922 220.133 55.7157C219.822 55.8369 219.467 55.8974 219.068 55.8974Z" fill="white"/>
</g>
<mask id="path-17-inside-2_1094_994" fill="white">
<path d="M5 72.4754H232.41V102.574H5V72.4754Z"/>
</mask>
<path d="M5 72.4754H232.41V102.574H5V72.4754Z" fill="#222222"/>
<path d="M5 72.4754V73.3115H232.41V72.4754V71.6393H5V72.4754Z" fill="#2F2F2F" mask="url(#path-17-inside-2_1094_994)"/>
<rect x="11.6895" y="79.1639" width="16.7213" height="16.7213" rx="8.36066" fill="#2F2F2F"/>
<path d="M20.0493 84.5983V90.4508M17.123 87.5246H22.9755" stroke="white" stroke-width="0.836066" stroke-linecap="round" stroke-linejoin="round"/>
<path d="M38.7515 91.1851C38.1161 91.1851 37.5576 91.038 37.0761 90.7437C36.5945 90.4427 36.2199 90.0146 35.9524 89.4595C35.6849 88.9043 35.5511 88.2422 35.5511 87.473C35.5511 86.7038 35.6849 86.0416 35.9524 85.4865C36.2199 84.9247 36.5945 84.4933 37.0761 84.1923C37.5576 83.8913 38.1161 83.7408 38.7515 83.7408C39.6144 83.7408 40.2832 83.9582 40.7581 84.3929C41.233 84.8277 41.544 85.4196 41.6912 86.1687L40.7782 86.2289C40.6778 85.7206 40.4638 85.3193 40.1361 85.025C39.8083 84.7307 39.3468 84.5835 38.7515 84.5835C38.2967 84.5835 37.8954 84.7006 37.5476 84.9347C37.2065 85.1621 36.939 85.4932 36.745 85.9279C36.551 86.356 36.454 86.871 36.454 87.473C36.454 88.075 36.551 88.59 36.745 89.018C36.939 89.4461 37.2065 89.7738 37.5476 90.0013C37.8954 90.2287 38.2967 90.3424 38.7515 90.3424C39.3736 90.3424 39.8552 90.1818 40.1963 89.8608C40.5374 89.5331 40.7514 89.0916 40.8384 88.5365L41.7513 88.5967C41.6644 89.1117 41.4938 89.5632 41.2397 89.9511C40.9855 90.339 40.6477 90.6434 40.2264 90.8641C39.8117 91.0781 39.3201 91.1851 38.7515 91.1851ZM42.8782 91.0246V85.7072H43.6206L43.6607 87.0516L43.5805 87.0215C43.6473 86.5667 43.7911 86.2356 44.0119 86.0283C44.2393 85.8142 44.5403 85.7072 44.9148 85.7072H45.4365V86.5098H44.9248C44.6573 86.5098 44.4332 86.56 44.2526 86.6603C44.0787 86.754 43.945 86.8978 43.8513 87.0917C43.7644 87.279 43.7209 87.5198 43.7209 87.8141V91.0246H42.8782ZM48.3547 91.145C47.8531 91.145 47.4183 91.0313 47.0505 90.8039C46.6893 90.5765 46.4084 90.2554 46.2077 89.8407C46.0137 89.4194 45.9168 88.9277 45.9168 88.3659C45.9168 87.8041 46.0137 87.3158 46.2077 86.9011C46.4084 86.4864 46.6859 86.1654 47.0404 85.938C47.4016 85.7039 47.8263 85.5868 48.3146 85.5868C48.7761 85.5868 49.1841 85.6972 49.5386 85.9179C49.8931 86.1319 50.1673 86.4463 50.3613 86.861C50.5619 87.2757 50.6623 87.7807 50.6623 88.3759V88.6268H46.7996C46.8331 89.1953 46.9836 89.6234 47.2511 89.911C47.5253 90.1986 47.8932 90.3424 48.3547 90.3424C48.7025 90.3424 48.9868 90.2621 49.2075 90.1016C49.4349 89.9344 49.5921 89.717 49.6791 89.4494L50.582 89.5197C50.4415 89.9946 50.174 90.3858 49.7794 90.6935C49.3914 90.9945 48.9166 91.145 48.3547 91.145ZM46.7996 87.8843H49.7392C49.6991 87.3693 49.5486 86.9914 49.2878 86.7506C49.0336 86.5098 48.7092 86.3894 48.3146 86.3894C47.9066 86.3894 47.5688 86.5165 47.3013 86.7707C47.0404 87.0182 46.8732 87.3894 46.7996 87.8843ZM53.3757 91.145C52.8272 91.145 52.3891 91.0179 52.0614 90.7637C51.7403 90.5096 51.5798 90.1551 51.5798 89.7003C51.5798 89.2454 51.7136 88.8876 51.9811 88.6268C52.2486 88.3659 52.6734 88.182 53.2553 88.075L55.1414 87.7238C55.1414 87.2757 55.0344 86.9413 54.8204 86.7205C54.613 86.4998 54.2987 86.3894 53.8773 86.3894C53.5094 86.3894 53.2185 86.4731 53.0045 86.6403C52.7904 86.8008 52.6433 87.0349 52.563 87.3426L51.6701 87.2723C51.7704 86.7707 52.0112 86.366 52.3925 86.0584C52.7804 85.744 53.2753 85.5868 53.8773 85.5868C54.5595 85.5868 55.0812 85.7808 55.4424 86.1687C55.8036 86.55 55.9842 87.0784 55.9842 87.7539V89.9511C55.9842 90.0715 56.0043 90.1584 56.0444 90.2119C56.0912 90.2588 56.1648 90.2822 56.2651 90.2822H56.4758V91.0246C56.449 91.0313 56.4056 91.0346 56.3454 91.0346C56.2852 91.0413 56.2216 91.0447 56.1547 91.0447C55.914 91.0447 55.7166 91.0079 55.5628 90.9343C55.4157 90.854 55.3086 90.7336 55.2418 90.5731C55.1749 90.4059 55.1414 90.1885 55.1414 89.921L55.2418 89.9411C55.1949 90.1685 55.0812 90.3758 54.9006 90.5631C54.7201 90.7437 54.496 90.8875 54.2285 90.9945C53.9609 91.0948 53.6766 91.145 53.3757 91.145ZM53.4559 90.4026C53.8104 90.4026 54.1114 90.3357 54.3589 90.2019C54.613 90.0614 54.807 89.8742 54.9408 89.6401C55.0746 89.3993 55.1414 89.1317 55.1414 88.8374V88.4562L53.4158 88.7773C53.0546 88.8441 52.8038 88.9478 52.6633 89.0883C52.5296 89.222 52.4627 89.3993 52.4627 89.62C52.4627 89.8675 52.5496 90.0614 52.7235 90.2019C52.9041 90.3357 53.1483 90.4026 53.4559 90.4026ZM59.1095 91.0246C58.6279 91.0246 58.2701 90.9142 58.036 90.6935C57.8086 90.4728 57.6949 90.1283 57.6949 89.6601V84.4632H58.5376V89.6401C58.5376 89.8809 58.5911 90.0481 58.6981 90.1417C58.8052 90.2354 58.969 90.2822 59.1897 90.2822H59.9522V91.0246H59.1095ZM56.9123 86.4496V85.7072H59.9522V86.4496H56.9123ZM63.012 91.145C62.5104 91.145 62.0756 91.0313 61.7077 90.8039C61.3466 90.5765 61.0656 90.2554 60.865 89.8407C60.671 89.4194 60.574 88.9277 60.574 88.3659C60.574 87.8041 60.671 87.3158 60.865 86.9011C61.0656 86.4864 61.3432 86.1654 61.6977 85.938C62.0589 85.7039 62.4836 85.5868 62.9719 85.5868C63.4334 85.5868 63.8414 85.6972 64.1959 85.9179C64.5504 86.1319 64.8246 86.4463 65.0186 86.861C65.2192 87.2757 65.3195 87.7807 65.3195 88.3759V88.6268H61.4569C61.4904 89.1953 61.6409 89.6234 61.9084 89.911C62.1826 90.1986 62.5505 90.3424 63.012 90.3424C63.3598 90.3424 63.6441 90.2621 63.8648 90.1016C64.0922 89.9344 64.2494 89.717 64.3363 89.4494L65.2393 89.5197C65.0988 89.9946 64.8313 90.3858 64.4367 90.6935C64.0487 90.9945 63.5738 91.145 63.012 91.145ZM61.4569 87.8843H64.3965C64.3564 87.3693 64.2059 86.9914 63.945 86.7506C63.6909 86.5098 63.3665 86.3894 62.9719 86.3894C62.5639 86.3894 62.2261 86.5165 61.9586 86.7707C61.6977 87.0182 61.5305 87.3894 61.4569 87.8843ZM69.1876 91.0246V83.9013H70.4116L73.9332 90.1618V83.9013H74.796V91.0246H73.5118L70.0505 84.8845V91.0246H69.1876ZM78.5021 91.145C78.0004 91.145 77.5657 91.0313 77.1978 90.8039C76.8366 90.5765 76.5557 90.2554 76.3551 89.8407C76.1611 89.4194 76.0641 88.9277 76.0641 88.3659C76.0641 87.8041 76.1611 87.3158 76.3551 86.9011C76.5557 86.4864 76.8333 86.1654 77.1878 85.938C77.549 85.7039 77.9737 85.5868 78.4619 85.5868C78.9235 85.5868 79.3315 85.6972 79.6859 85.9179C80.0404 86.1319 80.3147 86.4463 80.5086 86.861C80.7093 87.2757 80.8096 87.7807 80.8096 88.3759V88.6268H76.947C76.9804 89.1953 77.1309 89.6234 77.3985 89.911C77.6727 90.1986 78.0406 90.3424 78.5021 90.3424C78.8499 90.3424 79.1341 90.2621 79.3549 90.1016C79.5823 89.9344 79.7395 89.717 79.8264 89.4494L80.7294 89.5197C80.5889 89.9946 80.3214 90.3858 79.9267 90.6935C79.5388 90.9945 79.0639 91.145 78.5021 91.145ZM76.947 87.8843H79.8866C79.8465 87.3693 79.696 86.9914 79.4351 86.7506C79.181 86.5098 78.8566 86.3894 78.4619 86.3894C78.0539 86.3894 77.7162 86.5165 77.4486 86.7707C77.1878 87.0182 77.0206 87.3894 76.947 87.8843ZM82.8579 91.0246L81.2125 85.7072H82.1355L83.3796 90.1417L84.6437 85.7072H85.5467L86.8108 90.1417L88.0649 85.7072H88.9879L87.3425 91.0246H86.2791L85.0952 86.9814L83.9113 91.0246H82.8579ZM95.4223 91.1851C94.7467 91.1851 94.1648 91.038 93.6766 90.7437C93.195 90.4427 92.8238 90.0146 92.5629 89.4595C92.3021 88.9043 92.1717 88.2422 92.1717 87.473C92.1717 86.7038 92.3021 86.0416 92.5629 85.4865C92.8238 84.9247 93.195 84.4933 93.6766 84.1923C94.1648 83.8913 94.7467 83.7408 95.4223 83.7408C96.1045 83.7408 96.6864 83.8913 97.168 84.1923C97.6563 84.4933 98.0308 84.9247 98.2917 85.4865C98.5525 86.0416 98.6829 86.7038 98.6829 87.473C98.6829 88.2422 98.5525 88.9043 98.2917 89.4595C98.0308 90.0146 97.6563 90.4427 97.168 90.7437C96.6864 91.038 96.1045 91.1851 95.4223 91.1851ZM95.4223 90.3424C95.9172 90.3424 96.3386 90.2287 96.6864 90.0013C97.0409 89.7738 97.3118 89.4461 97.4991 89.018C97.6864 88.59 97.78 88.075 97.78 87.473C97.78 86.871 97.6864 86.356 97.4991 85.9279C97.3118 85.4932 97.0409 85.1621 96.6864 84.9347C96.3386 84.7006 95.9172 84.5835 95.4223 84.5835C94.934 84.5835 94.5127 84.7006 94.1582 84.9347C93.8104 85.1621 93.5428 85.4932 93.3555 85.9279C93.1683 86.356 93.0746 86.871 93.0746 87.473C93.0746 88.075 93.1683 88.59 93.3555 89.018C93.5428 89.4461 93.8104 89.7738 94.1582 90.0013C94.5127 90.2287 94.934 90.3424 95.4223 90.3424ZM99.9396 91.0246V85.7072H100.682L100.722 87.0516L100.642 87.0215C100.709 86.5667 100.853 86.2356 101.073 86.0283C101.301 85.8142 101.602 85.7072 101.976 85.7072H102.498V86.5098H101.986C101.719 86.5098 101.495 86.56 101.314 86.6603C101.14 86.754 101.006 86.8978 100.913 87.0917C100.826 87.279 100.782 87.5198 100.782 87.8141V91.0246H99.9396ZM105.356 92.6499C104.975 92.6499 104.63 92.5864 104.323 92.4593C104.015 92.3322 103.757 92.1516 103.55 91.9175C103.343 91.6834 103.202 91.4125 103.129 91.1049L104.012 91.0447C104.092 91.2921 104.232 91.4861 104.433 91.6266C104.64 91.7737 104.948 91.8473 105.356 91.8473C105.838 91.8473 106.205 91.7503 106.46 91.5563C106.72 91.3624 106.851 91.0714 106.851 90.6835V89.8207C106.724 90.1016 106.52 90.3256 106.239 90.4929C105.958 90.6601 105.644 90.7437 105.296 90.7437C104.848 90.7437 104.446 90.6333 104.092 90.4126C103.744 90.1919 103.47 89.8875 103.269 89.4996C103.075 89.1117 102.978 88.6669 102.978 88.1653C102.978 87.6569 103.075 87.2121 103.269 86.8309C103.463 86.443 103.731 86.1386 104.072 85.9179C104.42 85.6972 104.814 85.5868 105.256 85.5868C105.63 85.5868 105.965 85.6738 106.259 85.8477C106.56 86.0216 106.771 86.2557 106.891 86.55V85.7072H107.694V90.6634C107.694 91.0781 107.6 91.4326 107.413 91.7269C107.225 92.0279 106.958 92.2553 106.61 92.4091C106.262 92.5696 105.844 92.6499 105.356 92.6499ZM105.336 89.9411C105.791 89.9411 106.155 89.7839 106.43 89.4695C106.704 89.1485 106.844 88.7137 106.851 88.1653C106.858 87.7974 106.797 87.483 106.67 87.2222C106.55 86.9546 106.373 86.7506 106.139 86.6102C105.911 86.463 105.644 86.3894 105.336 86.3894C104.868 86.3894 104.503 86.55 104.242 86.871C103.988 87.1854 103.861 87.6168 103.861 88.1653C103.861 88.7137 103.992 89.1485 104.252 89.4695C104.52 89.7839 104.881 89.9411 105.336 89.9411ZM110.731 91.145C110.183 91.145 109.745 91.0179 109.417 90.7637C109.096 90.5096 108.935 90.1551 108.935 89.7003C108.935 89.2454 109.069 88.8876 109.337 88.6268C109.604 88.3659 110.029 88.182 110.611 88.075L112.497 87.7238C112.497 87.2757 112.39 86.9413 112.176 86.7205C111.968 86.4998 111.654 86.3894 111.233 86.3894C110.865 86.3894 110.574 86.4731 110.36 86.6403C110.146 86.8008 109.999 87.0349 109.918 87.3426L109.025 87.2723C109.126 86.7707 109.367 86.366 109.748 86.0584C110.136 85.744 110.631 85.5868 111.233 85.5868C111.915 85.5868 112.437 85.7808 112.798 86.1687C113.159 86.55 113.34 87.0784 113.34 87.7539V89.9511C113.34 90.0715 113.36 90.1584 113.4 90.2119C113.447 90.2588 113.52 90.2822 113.621 90.2822H113.831V91.0246C113.804 91.0313 113.761 91.0346 113.701 91.0346C113.641 91.0413 113.577 91.0447 113.51 91.0447C113.269 91.0447 113.072 91.0079 112.918 90.9343C112.771 90.854 112.664 90.7336 112.597 90.5731C112.53 90.4059 112.497 90.1885 112.497 89.921L112.597 89.9411C112.55 90.1685 112.437 90.3758 112.256 90.5631C112.075 90.7437 111.851 90.8875 111.584 90.9945C111.316 91.0948 111.032 91.145 110.731 91.145ZM110.811 90.4026C111.166 90.4026 111.467 90.3357 111.714 90.2019C111.968 90.0614 112.162 89.8742 112.296 89.6401C112.43 89.3993 112.497 89.1317 112.497 88.8374V88.4562L110.771 88.7773C110.41 88.8441 110.159 88.9478 110.019 89.0883C109.885 89.222 109.818 89.3993 109.818 89.62C109.818 89.8675 109.905 90.0614 110.079 90.2019C110.26 90.3357 110.504 90.4026 110.811 90.4026ZM114.783 91.0246V85.7072H115.556L115.586 87.0616L115.485 86.9714C115.552 86.657 115.669 86.3995 115.837 86.1988C116.004 85.9915 116.204 85.8376 116.438 85.7373C116.679 85.637 116.937 85.5868 117.211 85.5868C117.619 85.5868 117.953 85.6771 118.214 85.8577C118.482 86.0383 118.679 86.2824 118.806 86.5901C118.94 86.8911 119.007 87.2289 119.007 87.6034V91.0246H118.164V87.8442C118.164 87.5165 118.124 87.2422 118.044 87.0215C117.97 86.7941 117.85 86.6235 117.683 86.5098C117.515 86.3894 117.298 86.3293 117.03 86.3293C116.622 86.3293 116.285 86.4597 116.017 86.7205C115.756 86.9747 115.626 87.3493 115.626 87.8442V91.0246H114.783ZM120.515 91.0246V85.7072H121.357V91.0246H120.515ZM120.495 84.8745V83.8913H121.378V84.8745H120.495ZM122.733 91.0246V90.1818L126.094 86.4496H122.834V85.7072H127.017V86.55L123.656 90.2822H127.098V91.0246H122.733ZM129.758 91.145C129.21 91.145 128.772 91.0179 128.444 90.7637C128.123 90.5096 127.962 90.1551 127.962 89.7003C127.962 89.2454 128.096 88.8876 128.364 88.6268C128.631 88.3659 129.056 88.182 129.638 88.075L131.524 87.7238C131.524 87.2757 131.417 86.9413 131.203 86.7205C130.995 86.4998 130.681 86.3894 130.26 86.3894C129.892 86.3894 129.601 86.4731 129.387 86.6403C129.173 86.8008 129.026 87.0349 128.945 87.3426L128.053 87.2723C128.153 86.7707 128.394 86.366 128.775 86.0584C129.163 85.744 129.658 85.5868 130.26 85.5868C130.942 85.5868 131.464 85.7808 131.825 86.1687C132.186 86.55 132.367 87.0784 132.367 87.7539V89.9511C132.367 90.0715 132.387 90.1584 132.427 90.2119C132.474 90.2588 132.547 90.2822 132.648 90.2822H132.858V91.0246C132.831 91.0313 132.788 91.0346 132.728 91.0346C132.668 91.0413 132.604 91.0447 132.537 91.0447C132.296 91.0447 132.099 91.0079 131.945 90.9343C131.798 90.854 131.691 90.7336 131.624 90.5731C131.557 90.4059 131.524 90.1885 131.524 89.921L131.624 89.9411C131.577 90.1685 131.464 90.3758 131.283 90.5631C131.102 90.7437 130.878 90.8875 130.611 90.9945C130.343 91.0948 130.059 91.145 129.758 91.145ZM129.838 90.4026C130.193 90.4026 130.494 90.3357 130.741 90.2019C130.995 90.0614 131.189 89.8742 131.323 89.6401C131.457 89.3993 131.524 89.1317 131.524 88.8374V88.4562L129.798 88.7773C129.437 88.8441 129.186 88.9478 129.046 89.0883C128.912 89.222 128.845 89.3993 128.845 89.62C128.845 89.8675 128.932 90.0614 129.106 90.2019C129.287 90.3357 129.531 90.4026 129.838 90.4026ZM135.492 91.0246C135.01 91.0246 134.653 90.9142 134.418 90.6935C134.191 90.4728 134.077 90.1283 134.077 89.6601V84.4632H134.92V89.6401C134.92 89.8809 134.974 90.0481 135.081 90.1417C135.188 90.2354 135.351 90.2822 135.572 90.2822H136.335V91.0246H135.492ZM133.295 86.4496V85.7072H136.335V86.4496H133.295ZM137.416 91.0246V85.7072H138.258V91.0246H137.416ZM137.396 84.8745V83.8913H138.278V84.8745H137.396ZM141.844 91.145C141.356 91.145 140.928 91.0313 140.56 90.8039C140.192 90.5765 139.908 90.2554 139.707 89.8407C139.506 89.4194 139.406 88.9277 139.406 88.3659C139.406 87.7974 139.506 87.3058 139.707 86.8911C139.908 86.4764 140.192 86.1554 140.56 85.9279C140.928 85.7005 141.356 85.5868 141.844 85.5868C142.332 85.5868 142.757 85.7005 143.118 85.9279C143.486 86.1554 143.77 86.4764 143.971 86.8911C144.171 87.3058 144.272 87.7974 144.272 88.3659C144.272 88.9277 144.171 89.4194 143.971 89.8407C143.77 90.2554 143.486 90.5765 143.118 90.8039C142.757 91.0313 142.332 91.145 141.844 91.145ZM141.844 90.3424C142.332 90.3424 142.71 90.1685 142.978 89.8207C143.252 89.4662 143.389 88.9813 143.389 88.3659C143.389 87.7506 143.252 87.269 142.978 86.9212C142.71 86.5667 142.332 86.3894 141.844 86.3894C141.356 86.3894 140.974 86.5667 140.7 86.9212C140.426 87.269 140.289 87.7506 140.289 88.3659C140.289 88.9813 140.426 89.4662 140.7 89.8207C140.974 90.1685 141.356 90.3424 141.844 90.3424ZM145.42 91.0246V85.7072H146.193L146.223 87.0616L146.123 86.9714C146.189 86.657 146.307 86.3995 146.474 86.1988C146.641 85.9915 146.842 85.8376 147.076 85.7373C147.316 85.637 147.574 85.5868 147.848 85.5868C148.256 85.5868 148.591 85.6771 148.852 85.8577C149.119 86.0383 149.316 86.2824 149.443 86.5901C149.577 86.8911 149.644 87.2289 149.644 87.6034V91.0246H148.801V87.8442C148.801 87.5165 148.761 87.2422 148.681 87.0215C148.607 86.7941 148.487 86.6235 148.32 86.5098C148.153 86.3894 147.935 86.3293 147.668 86.3293C147.26 86.3293 146.922 86.4597 146.654 86.7205C146.393 86.9747 146.263 87.3493 146.263 87.8442V91.0246H145.42Z" fill="#C9C9C9"/>
</g>
<rect x="5.41803" y="1.41803" width="226.574" height="100.738" rx="6.27049" stroke="#2F2F2F" stroke-width="0.836066"/>
</g>
<defs>
<filter id="filter0_d_1094_994" x="0.819672" y="0.163934" width="235.771" height="109.934" filterUnits="userSpaceOnUse" color-interpolation-filters="sRGB">
<feFlood flood-opacity="0" result="BackgroundImageFix"/>
<feColorMatrix in="SourceAlpha" type="matrix" values="0 0 0 0 0 0 0 0 0 0 0 0 0 0 0 0 0 0 127 0" result="hardAlpha"/>
<feMorphology radius="0.836066" operator="dilate" in="SourceAlpha" result="effect1_dropShadow_1094_994"/>
<feOffset dy="3.34426"/>
<feGaussianBlur stdDeviation="1.67213"/>
<feComposite in2="hardAlpha" operator="out"/>
<feColorMatrix type="matrix" values="0 0 0 0 0 0 0 0 0 0 0 0 0 0 0 0 0 0 0.25 0"/>
<feBlend mode="normal" in2="BackgroundImageFix" result="effect1_dropShadow_1094_994"/>
<feBlend mode="normal" in="SourceGraphic" in2="effect1_dropShadow_1094_994" result="shape"/>
</filter>
<filter id="filter1_d_1094_994" x="1.65574" y="1" width="234.099" height="36.7869" filterUnits="userSpaceOnUse" color-interpolation-filters="sRGB">
<feFlood flood-opacity="0" result="BackgroundImageFix"/>
<feColorMatrix in="SourceAlpha" type="matrix" values="0 0 0 0 0 0 0 0 0 0 0 0 0 0 0 0 0 0 127 0" result="hardAlpha"/>
<feOffset dy="3.34426"/>
<feGaussianBlur stdDeviation="1.67213"/>
<feComposite in2="hardAlpha" operator="out"/>
<feColorMatrix type="matrix" values="0 0 0 0 0 0 0 0 0 0 0 0 0 0 0 0 0 0 0.25 0"/>
<feBlend mode="normal" in2="BackgroundImageFix" result="effect1_dropShadow_1094_994"/>
<feBlend mode="normal" in="SourceGraphic" in2="effect1_dropShadow_1094_994" result="shape"/>
</filter>
<filter id="filter2_d_1094_994" x="1.65574" y="31.0984" width="234.099" height="48.0656" filterUnits="userSpaceOnUse" color-interpolation-filters="sRGB">
<feFlood flood-opacity="0" result="BackgroundImageFix"/>
<feColorMatrix in="SourceAlpha" type="matrix" values="0 0 0 0 0 0 0 0 0 0 0 0 0 0 0 0 0 0 127 0" result="hardAlpha"/>
<feOffset dy="3.34426"/>
<feGaussianBlur stdDeviation="1.67213"/>
<feComposite in2="hardAlpha" operator="out"/>
<feColorMatrix type="matrix" values="0 0 0 0 0 0 0 0 0 0 0 0 0 0 0 0 0 0 0.25 0"/>
<feBlend mode="normal" in2="BackgroundImageFix" result="effect1_dropShadow_1094_994"/>
<feBlend mode="normal" in="SourceGraphic" in2="effect1_dropShadow_1094_994" result="shape"/>
</filter>
<linearGradient id="paint0_linear_1094_994" x1="20.0501" y1="37.7869" x2="20.0501" y2="54.5082" gradientUnits="userSpaceOnUse">
<stop offset="1" stop-color="#0B79FF"/>
</linearGradient>
<clipPath id="clip0_1094_994">
<rect x="5" y="1" width="227.41" height="101.574" rx="6.68852" fill="white"/>
</clipPath>
<clipPath id="clip1_1094_994">
<rect width="10.0328" height="10.0328" fill="white" transform="translate(15.0332 11.0327)"/>
</clipPath>
<clipPath id="clip2_1094_994">
<rect width="10.0328" height="10.0328" fill="white" transform="translate(15.0332 41.1311)"/>
</clipPath>
<clipPath id="clip3_1094_994">
<rect width="13.377" height="13.377" fill="white" transform="translate(166.654 45.0984)"/>
</clipPath>
</defs>
</svg>
